<svg width="12" height="12" viewBox="0 0 12 12" fill="none" xmlns="http://www.w3.org/2000/svg">
<path d="M4.125 9.75H1.5C1.39844 9.75 1.30078 9.73047 1.20703 9.69141C1.11719 9.65234 1.03711 9.59961 0.966797 9.5332C0.900391 9.46289 0.847656 9.38281 0.808594 9.29297C0.769531 9.19922 0.75 9.10156 0.75 9C0.75 8.89844 0.769531 8.80273 0.808594 8.71289L1.5 7.04883V4.45312C1.5 4.04297 1.55469 3.64844 1.66406 3.26953C1.77344 2.89062 1.92578 2.53711 2.12109 2.20898C2.32031 1.87695 2.55664 1.57617 2.83008 1.30664C3.10742 1.0332 3.41211 0.800781 3.74414 0.609375C4.08008 0.414062 4.4375 0.263672 4.81641 0.158203C5.19922 0.0527344 5.59375 0 6 0C6.19922 0 6.4043 0.0136719 6.61523 0.0410156C6.83008 0.0644531 7.0332 0.107422 7.22461 0.169922C7.30664 0.197266 7.37305 0.242188 7.42383 0.304688C7.47461 0.363281 7.5 0.4375 7.5 0.527344C7.5 0.628906 7.46289 0.71875 7.38867 0.796875C7.31836 0.871094 7.23047 0.908203 7.125 0.908203C7.08984 0.908203 7.05469 0.902344 7.01953 0.890625C6.68359 0.796875 6.34375 0.75 6 0.75C5.48047 0.75 4.99219 0.847656 4.53516 1.04297C4.08203 1.23828 3.68555 1.50586 3.3457 1.8457C3.00586 2.18555 2.73828 2.58398 2.54297 3.04102C2.34766 3.49414 2.25 3.98047 2.25 4.5V7.125C2.25 7.15625 2.23438 7.21875 2.20312 7.3125C2.17188 7.40234 2.13086 7.50977 2.08008 7.63477C2.0293 7.75586 1.97266 7.88867 1.91016 8.0332C1.85156 8.17383 1.79492 8.30859 1.74023 8.4375C1.68555 8.56641 1.63477 8.68164 1.58789 8.7832C1.54492 8.88477 1.51562 8.95703 1.5 9H10.5L9.7793 7.27148C9.76367 7.23242 9.75195 7.16016 9.74414 7.05469C9.74023 6.94531 9.73828 6.82617 9.73828 6.69727C9.73828 6.55664 9.74023 6.41992 9.74414 6.28711C9.74805 6.1543 9.75 6.05859 9.75 6C9.75 5.89844 9.78711 5.81055 9.86133 5.73633C9.93555 5.66211 10.0234 5.625 10.125 5.625C10.2266 5.625 10.3145 5.66211 10.3887 5.73633C10.4629 5.81055 10.5 5.89844 10.5 6V7.04883L11.1914 8.71289C11.2305 8.80273 11.25 8.89844 11.25 9C11.25 9.10156 11.2305 9.19922 11.1914 9.29297C11.1523 9.38281 11.0977 9.46289 11.0273 9.5332C10.9609 9.59961 10.8809 9.65234 10.7871 9.69141C10.6973 9.73047 10.6016 9.75 10.5 9.75H7.875V9.79102C7.875 10.0449 7.82422 10.2832 7.72266 10.5059C7.62109 10.7285 7.48438 10.9238 7.3125 11.0918C7.14062 11.2559 6.94141 11.3867 6.71484 11.4844C6.48828 11.5781 6.25 11.625 6 11.625C5.75391 11.625 5.51758 11.5781 5.29102 11.4844C5.06836 11.3906 4.86914 11.2617 4.69336 11.0977C4.52148 10.9336 4.38281 10.7422 4.27734 10.5234C4.17578 10.3047 4.125 10.0703 4.125 9.82031V9.75ZM9 4.5C8.89453 4.5 8.80469 4.46484 8.73047 4.39453C8.66016 4.32031 8.625 4.23047 8.625 4.125C8.625 4.04688 8.64844 3.97461 8.69531 3.9082L10.9043 0.75H9C8.89844 0.75 8.81055 0.712891 8.73633 0.638672C8.66211 0.564453 8.625 0.476562 8.625 0.375C8.625 0.273438 8.66211 0.185547 8.73633 0.111328C8.81055 0.0371094 8.89844 0 9 0H11.625C11.7305 0 11.8184 0.0371094 11.8887 0.111328C11.9629 0.181641 12 0.269531 12 0.375C12 0.457031 11.9766 0.529297 11.9297 0.591797L9.7207 3.75H11.625C11.7266 3.75 11.8145 3.78711 11.8887 3.86133C11.9629 3.93555 12 4.02344 12 4.125C12 4.23047 11.9629 4.32031 11.8887 4.39453C11.8184 4.46484 11.7305 4.5 11.625 4.5H9ZM5.625 6C5.51953 6 5.42969 5.96484 5.35547 5.89453C5.28516 5.82031 5.25 5.73047 5.25 5.625C5.25 5.53516 5.2793 5.45508 5.33789 5.38477L6.69727 3.75H5.625C5.52344 3.75 5.43555 3.71289 5.36133 3.63867C5.28711 3.56445 5.25 3.47656 5.25 3.375C5.25 3.26953 5.28516 3.18164 5.35547 3.11133C5.42969 3.03711 5.51953 3 5.625 3H7.5C7.60547 3 7.69336 3.03711 7.76367 3.11133C7.83789 3.18164 7.875 3.26953 7.875 3.375C7.875 3.46484 7.8457 3.54492 7.78711 3.61523L6.42773 5.25H7.5C7.60156 5.25 7.68945 5.28711 7.76367 5.36133C7.83789 5.43555 7.875 5.52344 7.875 5.625C7.875 5.72656 7.83789 5.81445 7.76367 5.88867C7.68945 5.96289 7.60156 6 7.5 6H5.625ZM7.125 9.75H4.875C4.875 9.90234 4.9043 10.0469 4.96289 10.1836C5.02148 10.3203 5.10156 10.4414 5.20312 10.5469C5.30859 10.6484 5.42969 10.7285 5.56641 10.7871C5.70312 10.8457 5.84766 10.875 6 10.875C6.15234 10.875 6.29688 10.8457 6.43359 10.7871C6.57031 10.7285 6.68945 10.6484 6.79102 10.5469C6.89648 10.4414 6.97852 10.3203 7.03711 10.1836C7.0957 10.0469 7.125 9.90234 7.125 9.75Z" fill="black" fill-opacity="0.8956"/>
</svg>
