<svg width="326" height="255" viewBox="0 0 326 255" fill="none" xmlns="http://www.w3.org/2000/svg">
<path d="M15.3008 25V24.5146C15.3008 24.0954 15.3464 23.7262 15.4375 23.4072C15.5286 23.0882 15.679 22.7852 15.8887 22.498C16.0983 22.2109 16.3717 21.9238 16.709 21.6367C17.0508 21.3496 17.4678 21.026 17.96 20.666C18.3154 20.4108 18.6117 20.167 18.8486 19.9346C19.0902 19.7021 19.2839 19.4697 19.4297 19.2373C19.5618 19.0413 19.6621 18.818 19.7305 18.5674C19.7988 18.3167 19.833 18.0615 19.833 17.8018C19.833 17.2549 19.6781 16.8174 19.3682 16.4893C19.0583 16.1566 18.6367 15.9902 18.1035 15.9902C17.6523 15.9902 17.2376 16.0791 16.8594 16.2568C16.4811 16.4346 16.1325 16.7057 15.8135 17.0703L15.0957 16.4414C15.5104 15.9674 15.9661 15.6143 16.4629 15.3818C16.9642 15.1494 17.5316 15.0332 18.165 15.0332C19.0628 15.0332 19.7555 15.2975 20.2432 15.8262C20.7308 16.3548 20.9746 16.986 20.9746 17.7197C20.9746 18.0706 20.9268 18.4124 20.8311 18.7451C20.7354 19.0778 20.5986 19.374 20.4209 19.6338C20.2386 19.9209 20.0153 20.1943 19.751 20.4541C19.4867 20.7139 19.1722 20.9782 18.8076 21.2471C18.3473 21.5706 17.9668 21.8464 17.666 22.0742C17.3698 22.2975 17.1351 22.5072 16.9619 22.7031C16.7842 22.9036 16.6589 23.1042 16.5859 23.3047C16.5176 23.5052 16.4834 23.7354 16.4834 23.9951H21.3506V25H15.3008ZM28.8906 15.8467C28.0977 17.2367 27.373 18.6745 26.7168 20.1602C26.0651 21.6458 25.6071 23.2591 25.3428 25H24.1396C24.3903 23.3594 24.8597 21.7712 25.5479 20.2354C26.236 18.6995 26.9105 17.3574 27.5713 16.209H22.6562V15.1973H28.8906V15.8467Z" fill="black" fill-opacity="0.6063"/>
<path d="M62.3008 25V24.5146C62.3008 24.0954 62.3464 23.7262 62.4375 23.4072C62.5286 23.0882 62.679 22.7852 62.8887 22.498C63.0983 22.2109 63.3717 21.9238 63.709 21.6367C64.0508 21.3496 64.4678 21.026 64.96 20.666C65.3154 20.4108 65.6117 20.167 65.8486 19.9346C66.0902 19.7021 66.2839 19.4697 66.4297 19.2373C66.5618 19.0413 66.6621 18.818 66.7305 18.5674C66.7988 18.3167 66.833 18.0615 66.833 17.8018C66.833 17.2549 66.6781 16.8174 66.3682 16.4893C66.0583 16.1566 65.6367 15.9902 65.1035 15.9902C64.6523 15.9902 64.2376 16.0791 63.8594 16.2568C63.4811 16.4346 63.1325 16.7057 62.8135 17.0703L62.0957 16.4414C62.5104 15.9674 62.9661 15.6143 63.4629 15.3818C63.9642 15.1494 64.5316 15.0332 65.165 15.0332C66.0628 15.0332 66.7555 15.2975 67.2432 15.8262C67.7308 16.3548 67.9746 16.986 67.9746 17.7197C67.9746 18.0706 67.9268 18.4124 67.8311 18.7451C67.7354 19.0778 67.5986 19.374 67.4209 19.6338C67.2386 19.9209 67.0153 20.1943 66.751 20.4541C66.4867 20.7139 66.1722 20.9782 65.8076 21.2471C65.3473 21.5706 64.9668 21.8464 64.666 22.0742C64.3698 22.2975 64.1351 22.5072 63.9619 22.7031C63.7842 22.9036 63.6589 23.1042 63.5859 23.3047C63.5176 23.5052 63.4834 23.7354 63.4834 23.9951H68.3506V25H62.3008ZM69.5947 22.2656C69.5947 21.7507 69.752 21.2471 70.0664 20.7549C70.3809 20.2581 70.8275 19.9004 71.4062 19.6816C70.9824 19.4447 70.6452 19.1416 70.3945 18.7725C70.1439 18.3988 70.0186 17.9863 70.0186 17.5352C70.0186 16.8151 70.2806 16.2181 70.8047 15.7441C71.3333 15.2702 71.9896 15.0332 72.7734 15.0332C73.5664 15.0332 74.2227 15.2725 74.7422 15.751C75.2663 16.2295 75.5283 16.8242 75.5283 17.5352C75.5283 17.9863 75.403 18.3988 75.1523 18.7725C74.9017 19.1416 74.569 19.4447 74.1543 19.6816C74.724 19.9004 75.166 20.2581 75.4805 20.7549C75.7949 21.2471 75.9521 21.7507 75.9521 22.2656C75.9521 23.1133 75.6582 23.8083 75.0703 24.3506C74.487 24.8883 73.7214 25.1572 72.7734 25.1572C71.8392 25.1572 71.0758 24.8883 70.4834 24.3506C69.891 23.8128 69.5947 23.1178 69.5947 22.2656ZM70.8115 22.1699C70.8115 22.7852 70.9915 23.2728 71.3516 23.6328C71.7161 23.9883 72.1924 24.166 72.7803 24.166C73.3499 24.166 73.8216 23.986 74.1953 23.626C74.569 23.2614 74.7559 22.776 74.7559 22.1699C74.7559 21.623 74.5758 21.1559 74.2158 20.7686C73.8604 20.3766 73.3818 20.1807 72.7803 20.1807C72.2152 20.1807 71.7458 20.3675 71.3721 20.7412C70.9984 21.1104 70.8115 21.5866 70.8115 22.1699ZM71.1602 17.624C71.1602 18.0889 71.3174 18.4785 71.6318 18.793C71.9508 19.1074 72.3337 19.2646 72.7803 19.2646C73.2223 19.2646 73.6029 19.1074 73.9219 18.793C74.2454 18.474 74.4072 18.0843 74.4072 17.624C74.4072 17.1501 74.25 16.7581 73.9355 16.4482C73.6211 16.1338 73.236 15.9766 72.7803 15.9766C72.2972 15.9766 71.9053 16.1383 71.6045 16.4619C71.3083 16.7809 71.1602 17.1683 71.1602 17.624Z" fill="black" fill-opacity="0.6063"/>
<path d="M109.301 25V24.5146C109.301 24.0954 109.346 23.7262 109.438 23.4072C109.529 23.0882 109.679 22.7852 109.889 22.498C110.098 22.2109 110.372 21.9238 110.709 21.6367C111.051 21.3496 111.468 21.026 111.96 20.666C112.315 20.4108 112.612 20.167 112.849 19.9346C113.09 19.7021 113.284 19.4697 113.43 19.2373C113.562 19.0413 113.662 18.818 113.73 18.5674C113.799 18.3167 113.833 18.0615 113.833 17.8018C113.833 17.2549 113.678 16.8174 113.368 16.4893C113.058 16.1566 112.637 15.9902 112.104 15.9902C111.652 15.9902 111.238 16.0791 110.859 16.2568C110.481 16.4346 110.132 16.7057 109.813 17.0703L109.096 16.4414C109.51 15.9674 109.966 15.6143 110.463 15.3818C110.964 15.1494 111.532 15.0332 112.165 15.0332C113.063 15.0332 113.756 15.2975 114.243 15.8262C114.731 16.3548 114.975 16.986 114.975 17.7197C114.975 18.0706 114.927 18.4124 114.831 18.7451C114.735 19.0778 114.599 19.374 114.421 19.6338C114.239 19.9209 114.015 20.1943 113.751 20.4541C113.487 20.7139 113.172 20.9782 112.808 21.2471C112.347 21.5706 111.967 21.8464 111.666 22.0742C111.37 22.2975 111.135 22.5072 110.962 22.7031C110.784 22.9036 110.659 23.1042 110.586 23.3047C110.518 23.5052 110.483 23.7354 110.483 23.9951H115.351V25H109.301ZM122.911 19.5107C122.911 21.3564 122.599 22.7624 121.975 23.7285C121.355 24.6901 120.389 25.1709 119.076 25.1709C118.584 25.1709 118.137 25.0866 117.736 24.918C117.34 24.7493 116.971 24.485 116.629 24.125L117.34 23.4346C117.581 23.6852 117.841 23.8743 118.119 24.002C118.402 24.125 118.743 24.1865 119.145 24.1865C119.992 24.1865 120.642 23.8561 121.093 23.1953C121.549 22.5345 121.776 21.5091 121.776 20.1191H121.749C121.539 20.5339 121.252 20.846 120.888 21.0557C120.523 21.2607 120.083 21.3633 119.568 21.3633C118.721 21.3633 118.028 21.0785 117.49 20.5088C116.957 19.9391 116.69 19.21 116.69 18.3213C116.69 17.3369 116.989 16.5439 117.586 15.9424C118.183 15.3363 118.935 15.0332 119.842 15.0332C120.831 15.0332 121.59 15.4229 122.118 16.2021C122.647 16.9814 122.911 18.0843 122.911 19.5107ZM121.701 18.5059C121.701 17.7539 121.517 17.1478 121.147 16.6875C120.783 16.2227 120.316 15.9902 119.746 15.9902C119.208 15.9902 118.755 16.1953 118.386 16.6055C118.021 17.0111 117.839 17.5329 117.839 18.1709C117.839 18.859 118.021 19.3968 118.386 19.7842C118.75 20.1715 119.224 20.3652 119.808 20.3652C120.332 20.3652 120.778 20.1852 121.147 19.8252C121.517 19.4652 121.701 19.0254 121.701 18.5059Z" fill="black" fill-opacity="0.6063"/>
<path d="M156.185 24.2002L156.766 23.4414C157.103 23.7057 157.454 23.8994 157.818 24.0225C158.183 24.1455 158.563 24.207 158.96 24.207C159.675 24.207 160.213 24.0361 160.573 23.6943C160.933 23.3525 161.113 22.9082 161.113 22.3613C161.113 21.7005 160.885 21.2106 160.43 20.8916C159.974 20.568 159.29 20.4062 158.379 20.4062H157.572V19.4561H158.338C159.145 19.4561 159.748 19.3057 160.149 19.0049C160.555 18.7041 160.758 18.2393 160.758 17.6104C160.758 17.0863 160.598 16.6852 160.279 16.4072C159.965 16.1292 159.589 15.9902 159.151 15.9902C158.769 15.9902 158.406 16.0563 158.064 16.1885C157.727 16.3206 157.404 16.5257 157.094 16.8037L156.458 16.1064C156.864 15.7327 157.287 15.4616 157.729 15.293C158.172 15.1198 158.661 15.0332 159.199 15.0332C160.015 15.0332 160.669 15.2497 161.161 15.6826C161.658 16.1156 161.906 16.7103 161.906 17.4668C161.906 18.041 161.747 18.5355 161.428 18.9502C161.113 19.3649 160.637 19.668 159.999 19.8594V19.8867C160.651 19.9642 161.191 20.2103 161.619 20.625C162.048 21.0397 162.262 21.5911 162.262 22.2793C162.262 23.168 161.963 23.8721 161.366 24.3916C160.774 24.9111 159.994 25.1709 159.028 25.1709C158.481 25.1709 157.976 25.0934 157.511 24.9385C157.05 24.7835 156.608 24.5374 156.185 24.2002ZM166.678 25.1709C165.693 25.1709 164.93 24.7493 164.388 23.9062C163.85 23.0586 163.581 21.8555 163.581 20.2969C163.581 18.5879 163.864 17.2845 164.429 16.3867C164.994 15.4844 165.812 15.0332 166.883 15.0332C167.913 15.0332 168.683 15.4525 169.193 16.291C169.708 17.125 169.966 18.3805 169.966 20.0576C169.966 21.7074 169.676 22.972 169.098 23.8516C168.519 24.7311 167.712 25.1709 166.678 25.1709ZM166.828 15.9834C166.131 15.9834 165.607 16.3389 165.256 17.0498C164.905 17.7562 164.729 18.8203 164.729 20.2422C164.729 21.5638 164.9 22.5573 165.242 23.2227C165.584 23.8835 166.099 24.2139 166.787 24.2139C167.466 24.2139 167.974 23.8766 168.312 23.2021C168.649 22.5277 168.817 21.516 168.817 20.167C168.817 18.7725 168.651 17.7266 168.318 17.0293C167.986 16.332 167.489 15.9834 166.828 15.9834Z" fill="black" fill-opacity="0.6063"/>
<path d="M204.806 24.2002L205.387 23.4414C205.724 23.7057 206.075 23.8994 206.439 24.0225C206.804 24.1455 207.185 24.207 207.581 24.207C208.297 24.207 208.834 24.0361 209.194 23.6943C209.554 23.3525 209.734 22.9082 209.734 22.3613C209.734 21.7005 209.507 21.2106 209.051 20.8916C208.595 20.568 207.911 20.4062 207 20.4062H206.193V19.4561H206.959C207.766 19.4561 208.369 19.3057 208.771 19.0049C209.176 18.7041 209.379 18.2393 209.379 17.6104C209.379 17.0863 209.219 16.6852 208.9 16.4072C208.586 16.1292 208.21 15.9902 207.772 15.9902C207.39 15.9902 207.027 16.0563 206.686 16.1885C206.348 16.3206 206.025 16.5257 205.715 16.8037L205.079 16.1064C205.485 15.7327 205.909 15.4616 206.351 15.293C206.793 15.1198 207.283 15.0332 207.82 15.0332C208.636 15.0332 209.29 15.2497 209.782 15.6826C210.279 16.1156 210.527 16.7103 210.527 17.4668C210.527 18.041 210.368 18.5355 210.049 18.9502C209.734 19.3649 209.258 19.668 208.62 19.8594V19.8867C209.272 19.9642 209.812 20.2103 210.24 20.625C210.669 21.0397 210.883 21.5911 210.883 22.2793C210.883 23.168 210.584 23.8721 209.987 24.3916C209.395 24.9111 208.616 25.1709 207.649 25.1709C207.103 25.1709 206.597 25.0934 206.132 24.9385C205.672 24.7835 205.229 24.5374 204.806 24.2002ZM215.265 25H214.144V16.5986C213.952 16.7581 213.642 16.9404 213.214 17.1455C212.79 17.346 212.412 17.4896 212.079 17.5762L211.765 16.5986C212.284 16.4619 212.833 16.2409 213.412 15.9355C213.991 15.6257 214.451 15.3066 214.793 14.9785H215.265V25Z" fill="black" fill-opacity="0.6063"/>
<path d="M257.991 25H256.87V16.5986C256.679 16.7581 256.369 16.9404 255.94 17.1455C255.517 17.346 255.138 17.4896 254.806 17.5762L254.491 16.5986C255.011 16.4619 255.56 16.2409 256.139 15.9355C256.717 15.6257 257.178 15.3066 257.52 14.9785H257.991V25Z" fill="black" fill-opacity="0.8956"/>
<path d="M301.074 25V24.5146C301.074 24.0954 301.12 23.7262 301.211 23.4072C301.302 23.0882 301.452 22.7852 301.662 22.498C301.872 22.2109 302.145 21.9238 302.482 21.6367C302.824 21.3496 303.241 21.026 303.733 20.666C304.089 20.4108 304.385 20.167 304.622 19.9346C304.864 19.7021 305.057 19.4697 305.203 19.2373C305.335 19.0413 305.436 18.818 305.504 18.5674C305.572 18.3167 305.606 18.0615 305.606 17.8018C305.606 17.2549 305.451 16.8174 305.142 16.4893C304.832 16.1566 304.41 15.9902 303.877 15.9902C303.426 15.9902 303.011 16.0791 302.633 16.2568C302.255 16.4346 301.906 16.7057 301.587 17.0703L300.869 16.4414C301.284 15.9674 301.74 15.6143 302.236 15.3818C302.738 15.1494 303.305 15.0332 303.938 15.0332C304.836 15.0332 305.529 15.2975 306.017 15.8262C306.504 16.3548 306.748 16.986 306.748 17.7197C306.748 18.0706 306.7 18.4124 306.604 18.7451C306.509 19.0778 306.372 19.374 306.194 19.6338C306.012 19.9209 305.789 20.1943 305.524 20.4541C305.26 20.7139 304.946 20.9782 304.581 21.2471C304.121 21.5706 303.74 21.8464 303.439 22.0742C303.143 22.2975 302.909 22.5072 302.735 22.7031C302.558 22.9036 302.432 23.1042 302.359 23.3047C302.291 23.5052 302.257 23.7354 302.257 23.9951H307.124V25H301.074Z" fill="black" fill-opacity="0.8956"/>
<path d="M18.958 67.2002L19.5391 66.4414C19.8763 66.7057 20.2272 66.8994 20.5918 67.0225C20.9564 67.1455 21.3369 67.207 21.7334 67.207C22.4489 67.207 22.9867 67.0361 23.3467 66.6943C23.7067 66.3525 23.8867 65.9082 23.8867 65.3613C23.8867 64.7005 23.6589 64.2106 23.2031 63.8916C22.7474 63.568 22.0638 63.4062 21.1523 63.4062H20.3457V62.4561H21.1113C21.918 62.4561 22.5218 62.3057 22.9229 62.0049C23.3285 61.7041 23.5312 61.2393 23.5312 60.6104C23.5312 60.0863 23.3717 59.6852 23.0527 59.4072C22.7383 59.1292 22.3623 58.9902 21.9248 58.9902C21.542 58.9902 21.1797 59.0563 20.8379 59.1885C20.5007 59.3206 20.1771 59.5257 19.8672 59.8037L19.2314 59.1064C19.637 58.7327 20.0609 58.4616 20.5029 58.293C20.945 58.1198 21.4349 58.0332 21.9727 58.0332C22.7884 58.0332 23.4424 58.2497 23.9346 58.6826C24.4313 59.1156 24.6797 59.7103 24.6797 60.4668C24.6797 61.041 24.5202 61.5355 24.2012 61.9502C23.8867 62.3649 23.4105 62.668 22.7725 62.8594V62.8867C23.4242 62.9642 23.9642 63.2103 24.3926 63.625C24.821 64.0397 25.0352 64.5911 25.0352 65.2793C25.0352 66.168 24.7367 66.8721 24.1396 67.3916C23.5472 67.9111 22.7679 68.1709 21.8018 68.1709C21.2549 68.1709 20.749 68.0934 20.2842 67.9385C19.8239 67.7835 19.3818 67.5374 18.958 67.2002Z" fill="black" fill-opacity="0.8956"/>
<path d="M71.3516 58.1152V64.7051H72.4043V65.751H71.3516V68.0957H70.2373V65.751H65.582V64.7598C66.015 64.2676 66.4525 63.7435 66.8945 63.1875C67.3366 62.627 67.7604 62.0596 68.166 61.4854C68.5671 60.9111 68.9385 60.3369 69.2803 59.7627C69.6221 59.1885 69.9115 58.6393 70.1484 58.1152H71.3516ZM66.8604 64.7051H70.2373V59.8242C69.891 60.4303 69.5628 60.9727 69.2529 61.4512C68.9476 61.9297 68.6559 62.3626 68.3779 62.75C68.0954 63.1419 67.8265 63.4951 67.5713 63.8096C67.3206 64.124 67.0837 64.4225 66.8604 64.7051Z" fill="black" fill-opacity="0.8956"/>
<path d="M112.917 67.084L113.553 66.3594C113.876 66.651 114.216 66.8652 114.571 67.002C114.931 67.1387 115.33 67.207 115.768 67.207C116.406 67.207 116.927 67.0111 117.333 66.6191C117.739 66.2272 117.941 65.7145 117.941 65.0811C117.941 64.4339 117.723 63.9303 117.285 63.5703C116.848 63.2103 116.228 63.0303 115.426 63.0303C115.161 63.0303 114.874 63.0371 114.564 63.0508C114.255 63.0645 113.986 63.085 113.758 63.1123L114.093 58.1973H118.632V59.209H115.063L114.865 62.0869C115.007 62.0778 115.159 62.071 115.323 62.0664C115.487 62.0573 115.633 62.0527 115.761 62.0527C116.804 62.0527 117.62 62.3193 118.208 62.8525C118.796 63.3857 119.09 64.1058 119.09 65.0127C119.09 65.9652 118.778 66.7308 118.153 67.3096C117.534 67.8838 116.741 68.1709 115.774 68.1709C115.2 68.1709 114.681 68.082 114.216 67.9043C113.751 67.722 113.318 67.4486 112.917 67.084Z" fill="black" fill-opacity="0.8956"/>
<path d="M166.11 64.876C166.11 65.8695 165.816 66.667 165.229 67.2686C164.645 67.8701 163.916 68.1709 163.041 68.1709C162.052 68.1709 161.277 67.7835 160.717 67.0088C160.161 66.2295 159.883 65.113 159.883 63.6592C159.883 62.9346 159.956 62.2077 160.102 61.4785C160.247 60.7448 160.532 60.084 160.956 59.4961C161.325 58.9902 161.742 58.6211 162.207 58.3887C162.676 58.1517 163.219 58.0332 163.834 58.0332C164.203 58.0332 164.561 58.097 164.907 58.2246C165.258 58.3522 165.586 58.5527 165.892 58.8262L165.276 59.5508C165.058 59.3639 164.825 59.2249 164.579 59.1338C164.338 59.0381 164.069 58.9902 163.772 58.9902C163.381 58.9902 163.027 59.0723 162.713 59.2363C162.403 59.3958 162.107 59.6647 161.824 60.043C161.574 60.3802 161.38 60.804 161.243 61.3145C161.111 61.8203 161.045 62.3786 161.045 62.9893H161.072C161.355 62.611 161.69 62.3307 162.077 62.1484C162.469 61.9616 162.879 61.8682 163.308 61.8682C164.16 61.8682 164.839 62.1507 165.345 62.7158C165.855 63.2764 166.11 63.9964 166.11 64.876ZM164.962 64.9648C164.962 64.263 164.796 63.7298 164.463 63.3652C164.135 63.0007 163.702 62.8184 163.164 62.8184C162.535 62.8184 162.036 63.012 161.667 63.3994C161.298 63.7868 161.113 64.2516 161.113 64.7939C161.113 65.5003 161.293 66.0791 161.653 66.5303C162.018 66.9814 162.492 67.207 163.075 67.207C163.64 67.207 164.096 67.0133 164.442 66.626C164.789 66.2386 164.962 65.6849 164.962 64.9648Z" fill="black" fill-opacity="0.8956"/>
<path d="M213.117 58.8467C212.324 60.2367 211.6 61.6745 210.943 63.1602C210.292 64.6458 209.834 66.2591 209.569 68H208.366C208.617 66.3594 209.086 64.7712 209.774 63.2354C210.463 61.6995 211.137 60.3574 211.798 59.209H206.883V58.1973H213.117V58.8467Z" fill="black" fill-opacity="0.8956"/>
<path d="M253.821 65.2656C253.821 64.7507 253.979 64.2471 254.293 63.7549C254.607 63.2581 255.054 62.9004 255.633 62.6816C255.209 62.4447 254.872 62.1416 254.621 61.7725C254.37 61.3988 254.245 60.9863 254.245 60.5352C254.245 59.8151 254.507 59.2181 255.031 58.7441C255.56 58.2702 256.216 58.0332 257 58.0332C257.793 58.0332 258.449 58.2725 258.969 58.751C259.493 59.2295 259.755 59.8242 259.755 60.5352C259.755 60.9863 259.63 61.3988 259.379 61.7725C259.128 62.1416 258.796 62.4447 258.381 62.6816C258.951 62.9004 259.393 63.2581 259.707 63.7549C260.021 64.2471 260.179 64.7507 260.179 65.2656C260.179 66.1133 259.885 66.8083 259.297 67.3506C258.714 67.8883 257.948 68.1572 257 68.1572C256.066 68.1572 255.302 67.8883 254.71 67.3506C254.118 66.8128 253.821 66.1178 253.821 65.2656ZM255.038 65.1699C255.038 65.7852 255.218 66.2728 255.578 66.6328C255.943 66.9883 256.419 67.166 257.007 67.166C257.576 67.166 258.048 66.986 258.422 66.626C258.796 66.2614 258.982 65.776 258.982 65.1699C258.982 64.623 258.802 64.1559 258.442 63.7686C258.087 63.3766 257.608 63.1807 257.007 63.1807C256.442 63.1807 255.972 63.3675 255.599 63.7412C255.225 64.1104 255.038 64.5866 255.038 65.1699ZM255.387 60.624C255.387 61.0889 255.544 61.4785 255.858 61.793C256.177 62.1074 256.56 62.2646 257.007 62.2646C257.449 62.2646 257.829 62.1074 258.148 61.793C258.472 61.474 258.634 61.0843 258.634 60.624C258.634 60.1501 258.477 59.7581 258.162 59.4482C257.848 59.1338 257.463 58.9766 257.007 58.9766C256.524 58.9766 256.132 59.1383 255.831 59.4619C255.535 59.7809 255.387 60.1683 255.387 60.624Z" fill="black" fill-opacity="0.8956"/>
<path d="M307.138 62.5107C307.138 64.3564 306.826 65.7624 306.201 66.7285C305.581 67.6901 304.615 68.1709 303.303 68.1709C302.811 68.1709 302.364 68.0866 301.963 67.918C301.566 67.7493 301.197 67.485 300.855 67.125L301.566 66.4346C301.808 66.6852 302.068 66.8743 302.346 67.002C302.628 67.125 302.97 67.1865 303.371 67.1865C304.219 67.1865 304.868 66.8561 305.319 66.1953C305.775 65.5345 306.003 64.5091 306.003 63.1191H305.976C305.766 63.5339 305.479 63.846 305.114 64.0557C304.75 64.2607 304.31 64.3633 303.795 64.3633C302.947 64.3633 302.255 64.0785 301.717 63.5088C301.184 62.9391 300.917 62.21 300.917 61.3213C300.917 60.3369 301.215 59.5439 301.812 58.9424C302.41 58.3363 303.161 58.0332 304.068 58.0332C305.057 58.0332 305.816 58.4229 306.345 59.2021C306.873 59.9814 307.138 61.0843 307.138 62.5107ZM305.928 61.5059C305.928 60.7539 305.743 60.1478 305.374 59.6875C305.009 59.2227 304.542 58.9902 303.973 58.9902C303.435 58.9902 302.981 59.1953 302.612 59.6055C302.248 60.0111 302.065 60.5329 302.065 61.1709C302.065 61.859 302.248 62.3968 302.612 62.7842C302.977 63.1715 303.451 63.3652 304.034 63.3652C304.558 63.3652 305.005 63.1852 305.374 62.8252C305.743 62.4652 305.928 62.0254 305.928 61.5059Z" fill="black" fill-opacity="0.8956"/>
<path d="M19.7178 111H18.5967V102.599C18.4053 102.758 18.0954 102.94 17.667 103.146C17.2432 103.346 16.8649 103.49 16.5322 103.576L16.2178 102.599C16.7373 102.462 17.2865 102.241 17.8652 101.936C18.444 101.626 18.9043 101.307 19.2461 100.979H19.7178V111ZM25.0566 111.171C24.0723 111.171 23.3089 110.749 22.7666 109.906C22.2288 109.059 21.96 107.855 21.96 106.297C21.96 104.588 22.2425 103.285 22.8076 102.387C23.3727 101.484 24.1908 101.033 25.2617 101.033C26.2917 101.033 27.0618 101.452 27.5723 102.291C28.0872 103.125 28.3447 104.381 28.3447 106.058C28.3447 107.707 28.0553 108.972 27.4766 109.852C26.8978 110.731 26.0911 111.171 25.0566 111.171ZM25.207 101.983C24.5098 101.983 23.9857 102.339 23.6348 103.05C23.2839 103.756 23.1084 104.82 23.1084 106.242C23.1084 107.564 23.2793 108.557 23.6211 109.223C23.9629 109.883 24.4779 110.214 25.166 110.214C25.8451 110.214 26.3532 109.877 26.6904 109.202C27.0277 108.528 27.1963 107.516 27.1963 106.167C27.1963 104.772 27.0299 103.727 26.6973 103.029C26.3646 102.332 25.8678 101.983 25.207 101.983Z" fill="black" fill-opacity="0.8956"/>
<path d="M67.8389 111H66.7178V102.599C66.5264 102.758 66.2165 102.94 65.7881 103.146C65.3643 103.346 64.986 103.49 64.6533 103.576L64.3389 102.599C64.8584 102.462 65.4076 102.241 65.9863 101.936C66.5651 101.626 67.0254 101.307 67.3672 100.979H67.8389V111ZM73.1436 111H72.0225V102.599C71.8311 102.758 71.5212 102.94 71.0928 103.146C70.6689 103.346 70.2907 103.49 69.958 103.576L69.6436 102.599C70.1631 102.462 70.7122 102.241 71.291 101.936C71.8698 101.626 72.3301 101.307 72.6719 100.979H73.1436V111Z" fill="black" fill-opacity="0.8956"/>
<path d="M113.718 111H112.597V102.599C112.405 102.758 112.095 102.94 111.667 103.146C111.243 103.346 110.865 103.49 110.532 103.576L110.218 102.599C110.737 102.462 111.286 102.241 111.865 101.936C112.444 101.626 112.904 101.307 113.246 100.979H113.718V111ZM116.227 111V110.515C116.227 110.095 116.272 109.726 116.363 109.407C116.454 109.088 116.605 108.785 116.814 108.498C117.024 108.211 117.298 107.924 117.635 107.637C117.977 107.35 118.394 107.026 118.886 106.666C119.241 106.411 119.537 106.167 119.774 105.935C120.016 105.702 120.21 105.47 120.355 105.237C120.488 105.041 120.588 104.818 120.656 104.567C120.725 104.317 120.759 104.062 120.759 103.802C120.759 103.255 120.604 102.817 120.294 102.489C119.984 102.157 119.562 101.99 119.029 101.99C118.578 101.99 118.163 102.079 117.785 102.257C117.407 102.435 117.058 102.706 116.739 103.07L116.021 102.441C116.436 101.967 116.892 101.614 117.389 101.382C117.89 101.149 118.457 101.033 119.091 101.033C119.989 101.033 120.681 101.298 121.169 101.826C121.657 102.355 121.9 102.986 121.9 103.72C121.9 104.071 121.853 104.412 121.757 104.745C121.661 105.078 121.524 105.374 121.347 105.634C121.164 105.921 120.941 106.194 120.677 106.454C120.412 106.714 120.098 106.978 119.733 107.247C119.273 107.571 118.893 107.846 118.592 108.074C118.296 108.298 118.061 108.507 117.888 108.703C117.71 108.904 117.585 109.104 117.512 109.305C117.443 109.505 117.409 109.735 117.409 109.995H122.276V111H116.227Z" fill="black" fill-opacity="0.8956"/>
<path d="M160.718 111H159.597V102.599C159.405 102.758 159.095 102.94 158.667 103.146C158.243 103.346 157.865 103.49 157.532 103.576L157.218 102.599C157.737 102.462 158.286 102.241 158.865 101.936C159.444 101.626 159.904 101.307 160.246 100.979H160.718V111ZM163.11 110.2L163.691 109.441C164.029 109.706 164.38 109.899 164.744 110.022C165.109 110.146 165.489 110.207 165.886 110.207C166.601 110.207 167.139 110.036 167.499 109.694C167.859 109.353 168.039 108.908 168.039 108.361C168.039 107.701 167.811 107.211 167.355 106.892C166.9 106.568 166.216 106.406 165.305 106.406H164.498V105.456H165.264C166.07 105.456 166.674 105.306 167.075 105.005C167.481 104.704 167.684 104.239 167.684 103.61C167.684 103.086 167.524 102.685 167.205 102.407C166.891 102.129 166.515 101.99 166.077 101.99C165.694 101.99 165.332 102.056 164.99 102.188C164.653 102.321 164.329 102.526 164.02 102.804L163.384 102.106C163.789 101.733 164.213 101.462 164.655 101.293C165.097 101.12 165.587 101.033 166.125 101.033C166.941 101.033 167.595 101.25 168.087 101.683C168.584 102.116 168.832 102.71 168.832 103.467C168.832 104.041 168.673 104.535 168.354 104.95C168.039 105.365 167.563 105.668 166.925 105.859V105.887C167.576 105.964 168.117 106.21 168.545 106.625C168.973 107.04 169.188 107.591 169.188 108.279C169.188 109.168 168.889 109.872 168.292 110.392C167.7 110.911 166.92 111.171 165.954 111.171C165.407 111.171 164.901 111.093 164.437 110.938C163.976 110.784 163.534 110.537 163.11 110.2Z" fill="black" fill-opacity="0.8956"/>
<path d="M207.718 111H206.597V102.599C206.405 102.758 206.095 102.94 205.667 103.146C205.243 103.346 204.865 103.49 204.532 103.576L204.218 102.599C204.737 102.462 205.286 102.241 205.865 101.936C206.444 101.626 206.904 101.307 207.246 100.979H207.718V111ZM215.504 101.115V107.705H216.557V108.751H215.504V111.096H214.39V108.751H209.734V107.76C210.167 107.268 210.605 106.743 211.047 106.188C211.489 105.627 211.913 105.06 212.318 104.485C212.719 103.911 213.091 103.337 213.433 102.763C213.774 102.188 214.064 101.639 214.301 101.115H215.504ZM211.013 107.705H214.39V102.824C214.043 103.43 213.715 103.973 213.405 104.451C213.1 104.93 212.808 105.363 212.53 105.75C212.248 106.142 211.979 106.495 211.724 106.81C211.473 107.124 211.236 107.423 211.013 107.705Z" fill="black" fill-opacity="0.8956"/>
<path d="M254.718 111H253.597V102.599C253.405 102.758 253.095 102.94 252.667 103.146C252.243 103.346 251.865 103.49 251.532 103.576L251.218 102.599C251.737 102.462 252.286 102.241 252.865 101.936C253.444 101.626 253.904 101.307 254.246 100.979H254.718V111ZM257.069 110.084L257.705 109.359C258.029 109.651 258.368 109.865 258.724 110.002C259.084 110.139 259.482 110.207 259.92 110.207C260.558 110.207 261.08 110.011 261.485 109.619C261.891 109.227 262.094 108.715 262.094 108.081C262.094 107.434 261.875 106.93 261.438 106.57C261 106.21 260.38 106.03 259.578 106.03C259.314 106.03 259.027 106.037 258.717 106.051C258.407 106.064 258.138 106.085 257.91 106.112L258.245 101.197H262.784V102.209H259.216L259.018 105.087C259.159 105.078 259.312 105.071 259.476 105.066C259.64 105.057 259.785 105.053 259.913 105.053C260.957 105.053 261.772 105.319 262.36 105.853C262.948 106.386 263.242 107.106 263.242 108.013C263.242 108.965 262.93 109.731 262.306 110.31C261.686 110.884 260.893 111.171 259.927 111.171C259.353 111.171 258.833 111.082 258.368 110.904C257.903 110.722 257.47 110.449 257.069 110.084Z" fill="black" fill-opacity="0.8956"/>
<path d="M301.718 111H300.597V102.599C300.405 102.758 300.095 102.94 299.667 103.146C299.243 103.346 298.865 103.49 298.532 103.576L298.218 102.599C298.737 102.462 299.286 102.241 299.865 101.936C300.444 101.626 300.904 101.307 301.246 100.979H301.718V111ZM310.263 107.876C310.263 108.869 309.969 109.667 309.381 110.269C308.798 110.87 308.068 111.171 307.193 111.171C306.204 111.171 305.43 110.784 304.869 110.009C304.313 109.229 304.035 108.113 304.035 106.659C304.035 105.935 304.108 105.208 304.254 104.479C304.4 103.745 304.685 103.084 305.108 102.496C305.478 101.99 305.895 101.621 306.359 101.389C306.829 101.152 307.371 101.033 307.986 101.033C308.355 101.033 308.713 101.097 309.06 101.225C309.41 101.352 309.739 101.553 310.044 101.826L309.429 102.551C309.21 102.364 308.978 102.225 308.731 102.134C308.49 102.038 308.221 101.99 307.925 101.99C307.533 101.99 307.18 102.072 306.865 102.236C306.555 102.396 306.259 102.665 305.977 103.043C305.726 103.38 305.532 103.804 305.396 104.314C305.263 104.82 305.197 105.379 305.197 105.989H305.225C305.507 105.611 305.842 105.331 306.229 105.148C306.621 104.962 307.032 104.868 307.46 104.868C308.312 104.868 308.991 105.151 309.497 105.716C310.007 106.276 310.263 106.996 310.263 107.876ZM309.114 107.965C309.114 107.263 308.948 106.73 308.615 106.365C308.287 106.001 307.854 105.818 307.316 105.818C306.688 105.818 306.188 106.012 305.819 106.399C305.45 106.787 305.266 107.252 305.266 107.794C305.266 108.5 305.446 109.079 305.806 109.53C306.17 109.981 306.644 110.207 307.228 110.207C307.793 110.207 308.248 110.013 308.595 109.626C308.941 109.239 309.114 108.685 309.114 107.965Z" fill="black" fill-opacity="0.8956"/>
<path d="M19.7178 154H18.5967V145.599C18.4053 145.758 18.0954 145.94 17.667 146.146C17.2432 146.346 16.8649 146.49 16.5322 146.576L16.2178 145.599C16.7373 145.462 17.2865 145.241 17.8652 144.936C18.444 144.626 18.9043 144.307 19.2461 143.979H19.7178V154ZM28.2695 144.847C27.4766 146.237 26.752 147.674 26.0957 149.16C25.444 150.646 24.986 152.259 24.7217 154H23.5186C23.7692 152.359 24.2386 150.771 24.9268 149.235C25.6149 147.7 26.2894 146.357 26.9502 145.209H22.0352V144.197H28.2695V144.847Z" fill="black" fill-opacity="0.8956"/>
<path d="M66.7178 154H65.5967V145.599C65.4053 145.758 65.0954 145.94 64.667 146.146C64.2432 146.346 63.8649 146.49 63.5322 146.576L63.2178 145.599C63.7373 145.462 64.2865 145.241 64.8652 144.936C65.444 144.626 65.9043 144.307 66.2461 143.979H66.7178V154ZM68.9736 151.266C68.9736 150.751 69.1309 150.247 69.4453 149.755C69.7598 149.258 70.2064 148.9 70.7852 148.682C70.3613 148.445 70.0241 148.142 69.7734 147.772C69.5228 147.399 69.3975 146.986 69.3975 146.535C69.3975 145.815 69.6595 145.218 70.1836 144.744C70.7122 144.27 71.3685 144.033 72.1523 144.033C72.9453 144.033 73.6016 144.272 74.1211 144.751C74.6452 145.229 74.9072 145.824 74.9072 146.535C74.9072 146.986 74.7819 147.399 74.5312 147.772C74.2806 148.142 73.9479 148.445 73.5332 148.682C74.1029 148.9 74.5449 149.258 74.8594 149.755C75.1738 150.247 75.3311 150.751 75.3311 151.266C75.3311 152.113 75.0371 152.808 74.4492 153.351C73.8659 153.888 73.1003 154.157 72.1523 154.157C71.2181 154.157 70.4548 153.888 69.8623 153.351C69.2699 152.813 68.9736 152.118 68.9736 151.266ZM70.1904 151.17C70.1904 151.785 70.3704 152.273 70.7305 152.633C71.0951 152.988 71.5713 153.166 72.1592 153.166C72.7288 153.166 73.2005 152.986 73.5742 152.626C73.9479 152.261 74.1348 151.776 74.1348 151.17C74.1348 150.623 73.9548 150.156 73.5947 149.769C73.2393 149.377 72.7607 149.181 72.1592 149.181C71.5941 149.181 71.1247 149.368 70.751 149.741C70.3773 150.11 70.1904 150.587 70.1904 151.17ZM70.5391 146.624C70.5391 147.089 70.6963 147.479 71.0107 147.793C71.3298 148.107 71.7126 148.265 72.1592 148.265C72.6012 148.265 72.9818 148.107 73.3008 147.793C73.6243 147.474 73.7861 147.084 73.7861 146.624C73.7861 146.15 73.6289 145.758 73.3145 145.448C73 145.134 72.6149 144.977 72.1592 144.977C71.6761 144.977 71.2842 145.138 70.9834 145.462C70.6872 145.781 70.5391 146.168 70.5391 146.624Z" fill="black" fill-opacity="0.8956"/>
<path d="M113.718 154H112.597V145.599C112.405 145.758 112.095 145.94 111.667 146.146C111.243 146.346 110.865 146.49 110.532 146.576L110.218 145.599C110.737 145.462 111.286 145.241 111.865 144.936C112.444 144.626 112.904 144.307 113.246 143.979H113.718V154ZM122.29 148.511C122.29 150.356 121.978 151.762 121.354 152.729C120.734 153.69 119.768 154.171 118.455 154.171C117.963 154.171 117.516 154.087 117.115 153.918C116.719 153.749 116.35 153.485 116.008 153.125L116.719 152.435C116.96 152.685 117.22 152.874 117.498 153.002C117.781 153.125 118.122 153.187 118.523 153.187C119.371 153.187 120.021 152.856 120.472 152.195C120.927 151.535 121.155 150.509 121.155 149.119H121.128C120.918 149.534 120.631 149.846 120.267 150.056C119.902 150.261 119.462 150.363 118.947 150.363C118.1 150.363 117.407 150.078 116.869 149.509C116.336 148.939 116.069 148.21 116.069 147.321C116.069 146.337 116.368 145.544 116.965 144.942C117.562 144.336 118.314 144.033 119.221 144.033C120.21 144.033 120.968 144.423 121.497 145.202C122.026 145.981 122.29 147.084 122.29 148.511ZM121.08 147.506C121.08 146.754 120.896 146.148 120.526 145.688C120.162 145.223 119.695 144.99 119.125 144.99C118.587 144.99 118.134 145.195 117.765 145.605C117.4 146.011 117.218 146.533 117.218 147.171C117.218 147.859 117.4 148.397 117.765 148.784C118.129 149.172 118.603 149.365 119.187 149.365C119.711 149.365 120.157 149.185 120.526 148.825C120.896 148.465 121.08 148.025 121.08 147.506Z" fill="black" fill-opacity="0.8956"/>
<path d="M156.301 154V153.515C156.301 153.095 156.346 152.726 156.438 152.407C156.529 152.088 156.679 151.785 156.889 151.498C157.098 151.211 157.372 150.924 157.709 150.637C158.051 150.35 158.468 150.026 158.96 149.666C159.315 149.411 159.612 149.167 159.849 148.935C160.09 148.702 160.284 148.47 160.43 148.237C160.562 148.041 160.662 147.818 160.73 147.567C160.799 147.317 160.833 147.062 160.833 146.802C160.833 146.255 160.678 145.817 160.368 145.489C160.058 145.157 159.637 144.99 159.104 144.99C158.652 144.99 158.238 145.079 157.859 145.257C157.481 145.435 157.132 145.706 156.813 146.07L156.096 145.441C156.51 144.967 156.966 144.614 157.463 144.382C157.964 144.149 158.532 144.033 159.165 144.033C160.063 144.033 160.756 144.298 161.243 144.826C161.731 145.355 161.975 145.986 161.975 146.72C161.975 147.071 161.927 147.412 161.831 147.745C161.735 148.078 161.599 148.374 161.421 148.634C161.239 148.921 161.015 149.194 160.751 149.454C160.487 149.714 160.172 149.978 159.808 150.247C159.347 150.571 158.967 150.846 158.666 151.074C158.37 151.298 158.135 151.507 157.962 151.703C157.784 151.904 157.659 152.104 157.586 152.305C157.518 152.505 157.483 152.735 157.483 152.995H162.351V154H156.301ZM166.678 154.171C165.693 154.171 164.93 153.749 164.388 152.906C163.85 152.059 163.581 150.855 163.581 149.297C163.581 147.588 163.864 146.285 164.429 145.387C164.994 144.484 165.812 144.033 166.883 144.033C167.913 144.033 168.683 144.452 169.193 145.291C169.708 146.125 169.966 147.381 169.966 149.058C169.966 150.707 169.676 151.972 169.098 152.852C168.519 153.731 167.712 154.171 166.678 154.171ZM166.828 144.983C166.131 144.983 165.607 145.339 165.256 146.05C164.905 146.756 164.729 147.82 164.729 149.242C164.729 150.564 164.9 151.557 165.242 152.223C165.584 152.883 166.099 153.214 166.787 153.214C167.466 153.214 167.974 152.877 168.312 152.202C168.649 151.528 168.817 150.516 168.817 149.167C168.817 147.772 168.651 146.727 168.318 146.029C167.986 145.332 167.489 144.983 166.828 144.983Z" fill="black" fill-opacity="0.8956"/>
<path d="M204.922 154V153.515C204.922 153.095 204.967 152.726 205.059 152.407C205.15 152.088 205.3 151.785 205.51 151.498C205.719 151.211 205.993 150.924 206.33 150.637C206.672 150.35 207.089 150.026 207.581 149.666C207.937 149.411 208.233 149.167 208.47 148.935C208.711 148.702 208.905 148.47 209.051 148.237C209.183 148.041 209.283 147.818 209.352 147.567C209.42 147.317 209.454 147.062 209.454 146.802C209.454 146.255 209.299 145.817 208.989 145.489C208.679 145.157 208.258 144.99 207.725 144.99C207.273 144.99 206.859 145.079 206.48 145.257C206.102 145.435 205.754 145.706 205.435 146.07L204.717 145.441C205.132 144.967 205.587 144.614 206.084 144.382C206.585 144.149 207.153 144.033 207.786 144.033C208.684 144.033 209.377 144.298 209.864 144.826C210.352 145.355 210.596 145.986 210.596 146.72C210.596 147.071 210.548 147.412 210.452 147.745C210.356 148.078 210.22 148.374 210.042 148.634C209.86 148.921 209.636 149.194 209.372 149.454C209.108 149.714 208.793 149.978 208.429 150.247C207.968 150.571 207.588 150.846 207.287 151.074C206.991 151.298 206.756 151.507 206.583 151.703C206.405 151.904 206.28 152.104 206.207 152.305C206.139 152.505 206.104 152.735 206.104 152.995H210.972V154H204.922ZM215.265 154H214.144V145.599C213.952 145.758 213.642 145.94 213.214 146.146C212.79 146.346 212.412 146.49 212.079 146.576L211.765 145.599C212.284 145.462 212.833 145.241 213.412 144.936C213.991 144.626 214.451 144.307 214.793 143.979H215.265V154Z" fill="black" fill-opacity="0.8956"/>
<path d="M250.301 154V153.515C250.301 153.095 250.346 152.726 250.438 152.407C250.529 152.088 250.679 151.785 250.889 151.498C251.098 151.211 251.372 150.924 251.709 150.637C252.051 150.35 252.468 150.026 252.96 149.666C253.315 149.411 253.612 149.167 253.849 148.935C254.09 148.702 254.284 148.47 254.43 148.237C254.562 148.041 254.662 147.818 254.73 147.567C254.799 147.317 254.833 147.062 254.833 146.802C254.833 146.255 254.678 145.817 254.368 145.489C254.058 145.157 253.637 144.99 253.104 144.99C252.652 144.99 252.238 145.079 251.859 145.257C251.481 145.435 251.132 145.706 250.813 146.07L250.096 145.441C250.51 144.967 250.966 144.614 251.463 144.382C251.964 144.149 252.532 144.033 253.165 144.033C254.063 144.033 254.756 144.298 255.243 144.826C255.731 145.355 255.975 145.986 255.975 146.72C255.975 147.071 255.927 147.412 255.831 147.745C255.735 148.078 255.599 148.374 255.421 148.634C255.239 148.921 255.015 149.194 254.751 149.454C254.487 149.714 254.172 149.978 253.808 150.247C253.347 150.571 252.967 150.846 252.666 151.074C252.37 151.298 252.135 151.507 251.962 151.703C251.784 151.904 251.659 152.104 251.586 152.305C251.518 152.505 251.483 152.735 251.483 152.995H256.351V154H250.301ZM257.848 154V153.515C257.848 153.095 257.893 152.726 257.984 152.407C258.076 152.088 258.226 151.785 258.436 151.498C258.645 151.211 258.919 150.924 259.256 150.637C259.598 150.35 260.015 150.026 260.507 149.666C260.862 149.411 261.159 149.167 261.396 148.935C261.637 148.702 261.831 148.47 261.977 148.237C262.109 148.041 262.209 147.818 262.277 147.567C262.346 147.317 262.38 147.062 262.38 146.802C262.38 146.255 262.225 145.817 261.915 145.489C261.605 145.157 261.184 144.99 260.65 144.99C260.199 144.99 259.785 145.079 259.406 145.257C259.028 145.435 258.679 145.706 258.36 146.07L257.643 145.441C258.057 144.967 258.513 144.614 259.01 144.382C259.511 144.149 260.078 144.033 260.712 144.033C261.61 144.033 262.302 144.298 262.79 144.826C263.278 145.355 263.521 145.986 263.521 146.72C263.521 147.071 263.474 147.412 263.378 147.745C263.282 148.078 263.146 148.374 262.968 148.634C262.785 148.921 262.562 149.194 262.298 149.454C262.034 149.714 261.719 149.978 261.354 150.247C260.894 150.571 260.514 150.846 260.213 151.074C259.917 151.298 259.682 151.507 259.509 151.703C259.331 151.904 259.206 152.104 259.133 152.305C259.064 152.505 259.03 152.735 259.03 152.995H263.897V154H257.848Z" fill="black" fill-opacity="0.8956"/>
<path d="M297.301 154V153.515C297.301 153.095 297.346 152.726 297.438 152.407C297.529 152.088 297.679 151.785 297.889 151.498C298.098 151.211 298.372 150.924 298.709 150.637C299.051 150.35 299.468 150.026 299.96 149.666C300.315 149.411 300.612 149.167 300.849 148.935C301.09 148.702 301.284 148.47 301.43 148.237C301.562 148.041 301.662 147.818 301.73 147.567C301.799 147.317 301.833 147.062 301.833 146.802C301.833 146.255 301.678 145.817 301.368 145.489C301.058 145.157 300.637 144.99 300.104 144.99C299.652 144.99 299.238 145.079 298.859 145.257C298.481 145.435 298.132 145.706 297.813 146.07L297.096 145.441C297.51 144.967 297.966 144.614 298.463 144.382C298.964 144.149 299.532 144.033 300.165 144.033C301.063 144.033 301.756 144.298 302.243 144.826C302.731 145.355 302.975 145.986 302.975 146.72C302.975 147.071 302.927 147.412 302.831 147.745C302.735 148.078 302.599 148.374 302.421 148.634C302.239 148.921 302.015 149.194 301.751 149.454C301.487 149.714 301.172 149.978 300.808 150.247C300.347 150.571 299.967 150.846 299.666 151.074C299.37 151.298 299.135 151.507 298.962 151.703C298.784 151.904 298.659 152.104 298.586 152.305C298.518 152.505 298.483 152.735 298.483 152.995H303.351V154H297.301ZM304.731 153.2L305.312 152.441C305.65 152.706 306.001 152.899 306.365 153.022C306.73 153.146 307.11 153.207 307.507 153.207C308.222 153.207 308.76 153.036 309.12 152.694C309.48 152.353 309.66 151.908 309.66 151.361C309.66 150.701 309.432 150.211 308.977 149.892C308.521 149.568 307.837 149.406 306.926 149.406H306.119V148.456H306.885C307.691 148.456 308.295 148.306 308.696 148.005C309.102 147.704 309.305 147.239 309.305 146.61C309.305 146.086 309.145 145.685 308.826 145.407C308.512 145.129 308.136 144.99 307.698 144.99C307.315 144.99 306.953 145.056 306.611 145.188C306.274 145.321 305.951 145.526 305.641 145.804L305.005 145.106C305.41 144.733 305.834 144.462 306.276 144.293C306.718 144.12 307.208 144.033 307.746 144.033C308.562 144.033 309.216 144.25 309.708 144.683C310.205 145.116 310.453 145.71 310.453 146.467C310.453 147.041 310.294 147.535 309.975 147.95C309.66 148.365 309.184 148.668 308.546 148.859V148.887C309.198 148.964 309.738 149.21 310.166 149.625C310.594 150.04 310.809 150.591 310.809 151.279C310.809 152.168 310.51 152.872 309.913 153.392C309.321 153.911 308.541 154.171 307.575 154.171C307.028 154.171 306.522 154.093 306.058 153.938C305.597 153.784 305.155 153.537 304.731 153.2Z" fill="black" fill-opacity="0.8956"/>
<path d="M15.3008 197V196.515C15.3008 196.095 15.3464 195.726 15.4375 195.407C15.5286 195.088 15.679 194.785 15.8887 194.498C16.0983 194.211 16.3717 193.924 16.709 193.637C17.0508 193.35 17.4678 193.026 17.96 192.666C18.3154 192.411 18.6117 192.167 18.8486 191.935C19.0902 191.702 19.2839 191.47 19.4297 191.237C19.5618 191.041 19.6621 190.818 19.7305 190.567C19.7988 190.317 19.833 190.062 19.833 189.802C19.833 189.255 19.6781 188.817 19.3682 188.489C19.0583 188.157 18.6367 187.99 18.1035 187.99C17.6523 187.99 17.2376 188.079 16.8594 188.257C16.4811 188.435 16.1325 188.706 15.8135 189.07L15.0957 188.441C15.5104 187.967 15.9661 187.614 16.4629 187.382C16.9642 187.149 17.5316 187.033 18.165 187.033C19.0628 187.033 19.7555 187.298 20.2432 187.826C20.7308 188.355 20.9746 188.986 20.9746 189.72C20.9746 190.071 20.9268 190.412 20.8311 190.745C20.7354 191.078 20.5986 191.374 20.4209 191.634C20.2386 191.921 20.0153 192.194 19.751 192.454C19.4867 192.714 19.1722 192.978 18.8076 193.247C18.3473 193.571 17.9668 193.846 17.666 194.074C17.3698 194.298 17.1351 194.507 16.9619 194.703C16.7842 194.904 16.6589 195.104 16.5859 195.305C16.5176 195.505 16.4834 195.735 16.4834 195.995H21.3506V197H15.3008ZM28.125 187.115V193.705H29.1777V194.751H28.125V197.096H27.0107V194.751H22.3555V193.76C22.7884 193.268 23.2259 192.743 23.668 192.188C24.11 191.627 24.5339 191.06 24.9395 190.485C25.3405 189.911 25.7119 189.337 26.0537 188.763C26.3955 188.188 26.6849 187.639 26.9219 187.115H28.125ZM23.6338 193.705H27.0107V188.824C26.6644 189.43 26.3363 189.973 26.0264 190.451C25.721 190.93 25.4294 191.363 25.1514 191.75C24.8688 192.142 24.5999 192.495 24.3447 192.81C24.0941 193.124 23.8571 193.423 23.6338 193.705Z" fill="black" fill-opacity="0.8956"/>
<path d="M62.3008 197V196.515C62.3008 196.095 62.3464 195.726 62.4375 195.407C62.5286 195.088 62.679 194.785 62.8887 194.498C63.0983 194.211 63.3717 193.924 63.709 193.637C64.0508 193.35 64.4678 193.026 64.96 192.666C65.3154 192.411 65.6117 192.167 65.8486 191.935C66.0902 191.702 66.2839 191.47 66.4297 191.237C66.5618 191.041 66.6621 190.818 66.7305 190.567C66.7988 190.317 66.833 190.062 66.833 189.802C66.833 189.255 66.6781 188.817 66.3682 188.489C66.0583 188.157 65.6367 187.99 65.1035 187.99C64.6523 187.99 64.2376 188.079 63.8594 188.257C63.4811 188.435 63.1325 188.706 62.8135 189.07L62.0957 188.441C62.5104 187.967 62.9661 187.614 63.4629 187.382C63.9642 187.149 64.5316 187.033 65.165 187.033C66.0628 187.033 66.7555 187.298 67.2432 187.826C67.7308 188.355 67.9746 188.986 67.9746 189.72C67.9746 190.071 67.9268 190.412 67.8311 190.745C67.7354 191.078 67.5986 191.374 67.4209 191.634C67.2386 191.921 67.0153 192.194 66.751 192.454C66.4867 192.714 66.1722 192.978 65.8076 193.247C65.3473 193.571 64.9668 193.846 64.666 194.074C64.3698 194.298 64.1351 194.507 63.9619 194.703C63.7842 194.904 63.6589 195.104 63.5859 195.305C63.5176 195.505 63.4834 195.735 63.4834 195.995H68.3506V197H62.3008ZM69.6904 196.084L70.3262 195.359C70.6497 195.651 70.9893 195.865 71.3447 196.002C71.7048 196.139 72.1035 196.207 72.541 196.207C73.179 196.207 73.7008 196.011 74.1064 195.619C74.512 195.227 74.7148 194.715 74.7148 194.081C74.7148 193.434 74.4961 192.93 74.0586 192.57C73.6211 192.21 73.0013 192.03 72.1992 192.03C71.9349 192.03 71.6478 192.037 71.3379 192.051C71.028 192.064 70.7591 192.085 70.5312 192.112L70.8662 187.197H75.4053V188.209H71.8369L71.6387 191.087C71.7799 191.078 71.9326 191.071 72.0967 191.066C72.2607 191.057 72.4066 191.053 72.5342 191.053C73.5778 191.053 74.3936 191.319 74.9814 191.853C75.5693 192.386 75.8633 193.106 75.8633 194.013C75.8633 194.965 75.5511 195.731 74.9268 196.31C74.307 196.884 73.514 197.171 72.5479 197.171C71.9736 197.171 71.4541 197.082 70.9893 196.904C70.5244 196.722 70.0915 196.449 69.6904 196.084Z" fill="black" fill-opacity="0.8956"/>
<rect x="96.5" y="172.5" width="39" height="39" rx="19.5" fill="#005FB8" stroke="#005FB8"/>
<path d="M109.301 197V196.515C109.301 196.095 109.346 195.726 109.438 195.407C109.529 195.088 109.679 194.785 109.889 194.498C110.098 194.211 110.372 193.924 110.709 193.637C111.051 193.35 111.468 193.026 111.96 192.666C112.315 192.411 112.612 192.167 112.849 191.935C113.09 191.702 113.284 191.47 113.43 191.237C113.562 191.041 113.662 190.818 113.73 190.567C113.799 190.317 113.833 190.062 113.833 189.802C113.833 189.255 113.678 188.817 113.368 188.489C113.058 188.157 112.637 187.99 112.104 187.99C111.652 187.99 111.238 188.079 110.859 188.257C110.481 188.435 110.132 188.706 109.813 189.07L109.096 188.441C109.51 187.967 109.966 187.614 110.463 187.382C110.964 187.149 111.532 187.033 112.165 187.033C113.063 187.033 113.756 187.298 114.243 187.826C114.731 188.355 114.975 188.986 114.975 189.72C114.975 190.071 114.927 190.412 114.831 190.745C114.735 191.078 114.599 191.374 114.421 191.634C114.239 191.921 114.015 192.194 113.751 192.454C113.487 192.714 113.172 192.978 112.808 193.247C112.347 193.571 111.967 193.846 111.666 194.074C111.37 194.298 111.135 194.507 110.962 194.703C110.784 194.904 110.659 195.104 110.586 195.305C110.518 195.505 110.483 195.735 110.483 195.995H115.351V197H109.301ZM122.884 193.876C122.884 194.869 122.59 195.667 122.002 196.269C121.419 196.87 120.689 197.171 119.814 197.171C118.826 197.171 118.051 196.784 117.49 196.009C116.934 195.229 116.656 194.113 116.656 192.659C116.656 191.935 116.729 191.208 116.875 190.479C117.021 189.745 117.306 189.084 117.729 188.496C118.099 187.99 118.516 187.621 118.98 187.389C119.45 187.152 119.992 187.033 120.607 187.033C120.977 187.033 121.334 187.097 121.681 187.225C122.032 187.352 122.36 187.553 122.665 187.826L122.05 188.551C121.831 188.364 121.599 188.225 121.353 188.134C121.111 188.038 120.842 187.99 120.546 187.99C120.154 187.99 119.801 188.072 119.486 188.236C119.176 188.396 118.88 188.665 118.598 189.043C118.347 189.38 118.153 189.804 118.017 190.314C117.884 190.82 117.818 191.379 117.818 191.989H117.846C118.128 191.611 118.463 191.331 118.851 191.148C119.243 190.962 119.653 190.868 120.081 190.868C120.933 190.868 121.612 191.151 122.118 191.716C122.629 192.276 122.884 192.996 122.884 193.876ZM121.735 193.965C121.735 193.263 121.569 192.73 121.236 192.365C120.908 192.001 120.475 191.818 119.938 191.818C119.309 191.818 118.81 192.012 118.44 192.399C118.071 192.787 117.887 193.252 117.887 193.794C117.887 194.5 118.067 195.079 118.427 195.53C118.791 195.981 119.265 196.207 119.849 196.207C120.414 196.207 120.869 196.013 121.216 195.626C121.562 195.239 121.735 194.685 121.735 193.965Z" fill="white"/>
<path d="M156.301 197V196.515C156.301 196.095 156.346 195.726 156.438 195.407C156.529 195.088 156.679 194.785 156.889 194.498C157.098 194.211 157.372 193.924 157.709 193.637C158.051 193.35 158.468 193.026 158.96 192.666C159.315 192.411 159.612 192.167 159.849 191.935C160.09 191.702 160.284 191.47 160.43 191.237C160.562 191.041 160.662 190.818 160.73 190.567C160.799 190.317 160.833 190.062 160.833 189.802C160.833 189.255 160.678 188.817 160.368 188.489C160.058 188.157 159.637 187.99 159.104 187.99C158.652 187.99 158.238 188.079 157.859 188.257C157.481 188.435 157.132 188.706 156.813 189.07L156.096 188.441C156.51 187.967 156.966 187.614 157.463 187.382C157.964 187.149 158.532 187.033 159.165 187.033C160.063 187.033 160.756 187.298 161.243 187.826C161.731 188.355 161.975 188.986 161.975 189.72C161.975 190.071 161.927 190.412 161.831 190.745C161.735 191.078 161.599 191.374 161.421 191.634C161.239 191.921 161.015 192.194 160.751 192.454C160.487 192.714 160.172 192.978 159.808 193.247C159.347 193.571 158.967 193.846 158.666 194.074C158.37 194.298 158.135 194.507 157.962 194.703C157.784 194.904 157.659 195.104 157.586 195.305C157.518 195.505 157.483 195.735 157.483 195.995H162.351V197H156.301ZM169.891 187.847C169.098 189.237 168.373 190.674 167.717 192.16C167.065 193.646 166.607 195.259 166.343 197H165.14C165.39 195.359 165.86 193.771 166.548 192.235C167.236 190.7 167.91 189.357 168.571 188.209H163.656V187.197H169.891V187.847Z" fill="black" fill-opacity="0.8956"/>
<path d="M203.301 197V196.515C203.301 196.095 203.346 195.726 203.438 195.407C203.529 195.088 203.679 194.785 203.889 194.498C204.098 194.211 204.372 193.924 204.709 193.637C205.051 193.35 205.468 193.026 205.96 192.666C206.315 192.411 206.612 192.167 206.849 191.935C207.09 191.702 207.284 191.47 207.43 191.237C207.562 191.041 207.662 190.818 207.73 190.567C207.799 190.317 207.833 190.062 207.833 189.802C207.833 189.255 207.678 188.817 207.368 188.489C207.058 188.157 206.637 187.99 206.104 187.99C205.652 187.99 205.238 188.079 204.859 188.257C204.481 188.435 204.132 188.706 203.813 189.07L203.096 188.441C203.51 187.967 203.966 187.614 204.463 187.382C204.964 187.149 205.532 187.033 206.165 187.033C207.063 187.033 207.756 187.298 208.243 187.826C208.731 188.355 208.975 188.986 208.975 189.72C208.975 190.071 208.927 190.412 208.831 190.745C208.735 191.078 208.599 191.374 208.421 191.634C208.239 191.921 208.015 192.194 207.751 192.454C207.487 192.714 207.172 192.978 206.808 193.247C206.347 193.571 205.967 193.846 205.666 194.074C205.37 194.298 205.135 194.507 204.962 194.703C204.784 194.904 204.659 195.104 204.586 195.305C204.518 195.505 204.483 195.735 204.483 195.995H209.351V197H203.301ZM210.595 194.266C210.595 193.751 210.752 193.247 211.066 192.755C211.381 192.258 211.827 191.9 212.406 191.682C211.982 191.445 211.645 191.142 211.395 190.772C211.144 190.399 211.019 189.986 211.019 189.535C211.019 188.815 211.281 188.218 211.805 187.744C212.333 187.27 212.99 187.033 213.773 187.033C214.566 187.033 215.223 187.272 215.742 187.751C216.266 188.229 216.528 188.824 216.528 189.535C216.528 189.986 216.403 190.399 216.152 190.772C215.902 191.142 215.569 191.445 215.154 191.682C215.724 191.9 216.166 192.258 216.48 192.755C216.795 193.247 216.952 193.751 216.952 194.266C216.952 195.113 216.658 195.808 216.07 196.351C215.487 196.888 214.721 197.157 213.773 197.157C212.839 197.157 212.076 196.888 211.483 196.351C210.891 195.813 210.595 195.118 210.595 194.266ZM211.812 194.17C211.812 194.785 211.992 195.273 212.352 195.633C212.716 195.988 213.192 196.166 213.78 196.166C214.35 196.166 214.822 195.986 215.195 195.626C215.569 195.261 215.756 194.776 215.756 194.17C215.756 193.623 215.576 193.156 215.216 192.769C214.86 192.377 214.382 192.181 213.78 192.181C213.215 192.181 212.746 192.368 212.372 192.741C211.998 193.11 211.812 193.587 211.812 194.17ZM212.16 189.624C212.16 190.089 212.317 190.479 212.632 190.793C212.951 191.107 213.334 191.265 213.78 191.265C214.222 191.265 214.603 191.107 214.922 190.793C215.245 190.474 215.407 190.084 215.407 189.624C215.407 189.15 215.25 188.758 214.936 188.448C214.621 188.134 214.236 187.977 213.78 187.977C213.297 187.977 212.905 188.138 212.604 188.462C212.308 188.781 212.16 189.168 212.16 189.624Z" fill="black" fill-opacity="0.8956"/>
<path d="M250.301 197V196.515C250.301 196.095 250.346 195.726 250.438 195.407C250.529 195.088 250.679 194.785 250.889 194.498C251.098 194.211 251.372 193.924 251.709 193.637C252.051 193.35 252.468 193.026 252.96 192.666C253.315 192.411 253.612 192.167 253.849 191.935C254.09 191.702 254.284 191.47 254.43 191.237C254.562 191.041 254.662 190.818 254.73 190.567C254.799 190.317 254.833 190.062 254.833 189.802C254.833 189.255 254.678 188.817 254.368 188.489C254.058 188.157 253.637 187.99 253.104 187.99C252.652 187.99 252.238 188.079 251.859 188.257C251.481 188.435 251.132 188.706 250.813 189.07L250.096 188.441C250.51 187.967 250.966 187.614 251.463 187.382C251.964 187.149 252.532 187.033 253.165 187.033C254.063 187.033 254.756 187.298 255.243 187.826C255.731 188.355 255.975 188.986 255.975 189.72C255.975 190.071 255.927 190.412 255.831 190.745C255.735 191.078 255.599 191.374 255.421 191.634C255.239 191.921 255.015 192.194 254.751 192.454C254.487 192.714 254.172 192.978 253.808 193.247C253.347 193.571 252.967 193.846 252.666 194.074C252.37 194.298 252.135 194.507 251.962 194.703C251.784 194.904 251.659 195.104 251.586 195.305C251.518 195.505 251.483 195.735 251.483 195.995H256.351V197H250.301ZM257.595 194.266C257.595 193.751 257.752 193.247 258.066 192.755C258.381 192.258 258.827 191.9 259.406 191.682C258.982 191.445 258.645 191.142 258.395 190.772C258.144 190.399 258.019 189.986 258.019 189.535C258.019 188.815 258.281 188.218 258.805 187.744C259.333 187.27 259.99 187.033 260.773 187.033C261.566 187.033 262.223 187.272 262.742 187.751C263.266 188.229 263.528 188.824 263.528 189.535C263.528 189.986 263.403 190.399 263.152 190.772C262.902 191.142 262.569 191.445 262.154 191.682C262.724 191.9 263.166 192.258 263.48 192.755C263.795 193.247 263.952 193.751 263.952 194.266C263.952 195.113 263.658 195.808 263.07 196.351C262.487 196.888 261.721 197.157 260.773 197.157C259.839 197.157 259.076 196.888 258.483 196.351C257.891 195.813 257.595 195.118 257.595 194.266ZM258.812 194.17C258.812 194.785 258.992 195.273 259.352 195.633C259.716 195.988 260.192 196.166 260.78 196.166C261.35 196.166 261.822 195.986 262.195 195.626C262.569 195.261 262.756 194.776 262.756 194.17C262.756 193.623 262.576 193.156 262.216 192.769C261.86 192.377 261.382 192.181 260.78 192.181C260.215 192.181 259.746 192.368 259.372 192.741C258.998 193.11 258.812 193.587 258.812 194.17ZM259.16 189.624C259.16 190.089 259.317 190.479 259.632 190.793C259.951 191.107 260.334 191.265 260.78 191.265C261.222 191.265 261.603 191.107 261.922 190.793C262.245 190.474 262.407 190.084 262.407 189.624C262.407 189.15 262.25 188.758 261.936 188.448C261.621 188.134 261.236 187.977 260.78 187.977C260.297 187.977 259.905 188.138 259.604 188.462C259.308 188.781 259.16 189.168 259.16 189.624Z" fill="black" fill-opacity="0.8956"/>
<path d="M297.185 196.2L297.766 195.441C298.103 195.706 298.454 195.899 298.818 196.022C299.183 196.146 299.563 196.207 299.96 196.207C300.675 196.207 301.213 196.036 301.573 195.694C301.933 195.353 302.113 194.908 302.113 194.361C302.113 193.701 301.885 193.211 301.43 192.892C300.974 192.568 300.29 192.406 299.379 192.406H298.572V191.456H299.338C300.145 191.456 300.748 191.306 301.149 191.005C301.555 190.704 301.758 190.239 301.758 189.61C301.758 189.086 301.598 188.685 301.279 188.407C300.965 188.129 300.589 187.99 300.151 187.99C299.769 187.99 299.406 188.056 299.064 188.188C298.727 188.321 298.404 188.526 298.094 188.804L297.458 188.106C297.864 187.733 298.287 187.462 298.729 187.293C299.172 187.12 299.661 187.033 300.199 187.033C301.015 187.033 301.669 187.25 302.161 187.683C302.658 188.116 302.906 188.71 302.906 189.467C302.906 190.041 302.747 190.535 302.428 190.95C302.113 191.365 301.637 191.668 300.999 191.859V191.887C301.651 191.964 302.191 192.21 302.619 192.625C303.048 193.04 303.262 193.591 303.262 194.279C303.262 195.168 302.963 195.872 302.366 196.392C301.774 196.911 300.994 197.171 300.028 197.171C299.481 197.171 298.976 197.093 298.511 196.938C298.05 196.784 297.608 196.537 297.185 196.2ZM307.678 197.171C306.693 197.171 305.93 196.749 305.388 195.906C304.85 195.059 304.581 193.855 304.581 192.297C304.581 190.588 304.864 189.285 305.429 188.387C305.994 187.484 306.812 187.033 307.883 187.033C308.913 187.033 309.683 187.452 310.193 188.291C310.708 189.125 310.966 190.381 310.966 192.058C310.966 193.707 310.676 194.972 310.098 195.852C309.519 196.731 308.712 197.171 307.678 197.171ZM307.828 187.983C307.131 187.983 306.607 188.339 306.256 189.05C305.905 189.756 305.729 190.82 305.729 192.242C305.729 193.564 305.9 194.557 306.242 195.223C306.584 195.883 307.099 196.214 307.787 196.214C308.466 196.214 308.974 195.877 309.312 195.202C309.649 194.528 309.817 193.516 309.817 192.167C309.817 190.772 309.651 189.727 309.318 189.029C308.986 188.332 308.489 187.983 307.828 187.983Z" fill="black" fill-opacity="0.8956"/>
<path d="M22.9912 240H21.8701V231.599C21.6787 231.758 21.3688 231.94 20.9404 232.146C20.5166 232.346 20.1383 232.49 19.8057 232.576L19.4912 231.599C20.0107 231.462 20.5599 231.241 21.1387 230.936C21.7174 230.626 22.1777 230.307 22.5195 229.979H22.9912V240Z" fill="black" fill-opacity="0.6063"/>
<path d="M66.0742 240V239.515C66.0742 239.095 66.1198 238.726 66.2109 238.407C66.3021 238.088 66.4525 237.785 66.6621 237.498C66.8717 237.211 67.1452 236.924 67.4824 236.637C67.8242 236.35 68.2412 236.026 68.7334 235.666C69.0889 235.411 69.3851 235.167 69.6221 234.935C69.8636 234.702 70.0573 234.47 70.2031 234.237C70.3353 234.041 70.4355 233.818 70.5039 233.567C70.5723 233.317 70.6064 233.062 70.6064 232.802C70.6064 232.255 70.4515 231.817 70.1416 231.489C69.8317 231.157 69.4102 230.99 68.877 230.99C68.4258 230.99 68.0111 231.079 67.6328 231.257C67.2546 231.435 66.9059 231.706 66.5869 232.07L65.8691 231.441C66.2839 230.967 66.7396 230.614 67.2363 230.382C67.7376 230.149 68.305 230.033 68.9385 230.033C69.8363 230.033 70.529 230.298 71.0166 230.826C71.5042 231.355 71.748 231.986 71.748 232.72C71.748 233.071 71.7002 233.412 71.6045 233.745C71.5088 234.078 71.3721 234.374 71.1943 234.634C71.012 234.921 70.7887 235.194 70.5244 235.454C70.2601 235.714 69.9456 235.978 69.5811 236.247C69.1208 236.571 68.7402 236.846 68.4395 237.074C68.1432 237.298 67.9085 237.507 67.7354 237.703C67.5576 237.904 67.4323 238.104 67.3594 238.305C67.291 238.505 67.2568 238.735 67.2568 238.995H72.124V240H66.0742Z" fill="black" fill-opacity="0.6063"/>
<path d="M112.958 239.2L113.539 238.441C113.876 238.706 114.227 238.899 114.592 239.022C114.956 239.146 115.337 239.207 115.733 239.207C116.449 239.207 116.987 239.036 117.347 238.694C117.707 238.353 117.887 237.908 117.887 237.361C117.887 236.701 117.659 236.211 117.203 235.892C116.747 235.568 116.064 235.406 115.152 235.406H114.346V234.456H115.111C115.918 234.456 116.522 234.306 116.923 234.005C117.328 233.704 117.531 233.239 117.531 232.61C117.531 232.086 117.372 231.685 117.053 231.407C116.738 231.129 116.362 230.99 115.925 230.99C115.542 230.99 115.18 231.056 114.838 231.188C114.501 231.321 114.177 231.526 113.867 231.804L113.231 231.106C113.637 230.733 114.061 230.462 114.503 230.293C114.945 230.12 115.435 230.033 115.973 230.033C116.788 230.033 117.442 230.25 117.935 230.683C118.431 231.116 118.68 231.71 118.68 232.467C118.68 233.041 118.52 233.535 118.201 233.95C117.887 234.365 117.41 234.668 116.772 234.859V234.887C117.424 234.964 117.964 235.21 118.393 235.625C118.821 236.04 119.035 236.591 119.035 237.279C119.035 238.168 118.737 238.872 118.14 239.392C117.547 239.911 116.768 240.171 115.802 240.171C115.255 240.171 114.749 240.093 114.284 239.938C113.824 239.784 113.382 239.537 112.958 239.2Z" fill="black" fill-opacity="0.6063"/>
<path d="M165.352 230.115V236.705H166.404V237.751H165.352V240.096H164.237V237.751H159.582V236.76C160.015 236.268 160.452 235.743 160.895 235.188C161.337 234.627 161.76 234.06 162.166 233.485C162.567 232.911 162.938 232.337 163.28 231.763C163.622 231.188 163.911 230.639 164.148 230.115H165.352ZM160.86 236.705H164.237V231.824C163.891 232.43 163.563 232.973 163.253 233.451C162.948 233.93 162.656 234.363 162.378 234.75C162.095 235.142 161.826 235.495 161.571 235.81C161.321 236.124 161.084 236.423 160.86 236.705Z" fill="black" fill-opacity="0.6063"/>
<path d="M206.917 239.084L207.553 238.359C207.876 238.651 208.216 238.865 208.571 239.002C208.931 239.139 209.33 239.207 209.768 239.207C210.406 239.207 210.927 239.011 211.333 238.619C211.739 238.227 211.941 237.715 211.941 237.081C211.941 236.434 211.723 235.93 211.285 235.57C210.848 235.21 210.228 235.03 209.426 235.03C209.161 235.03 208.874 235.037 208.564 235.051C208.255 235.064 207.986 235.085 207.758 235.112L208.093 230.197H212.632V231.209H209.063L208.865 234.087C209.007 234.078 209.159 234.071 209.323 234.066C209.487 234.057 209.633 234.053 209.761 234.053C210.804 234.053 211.62 234.319 212.208 234.853C212.796 235.386 213.09 236.106 213.09 237.013C213.09 237.965 212.778 238.731 212.153 239.31C211.534 239.884 210.741 240.171 209.774 240.171C209.2 240.171 208.681 240.082 208.216 239.904C207.751 239.722 207.318 239.449 206.917 239.084Z" fill="black" fill-opacity="0.6063"/>
<path d="M260.11 236.876C260.11 237.869 259.816 238.667 259.229 239.269C258.645 239.87 257.916 240.171 257.041 240.171C256.052 240.171 255.277 239.784 254.717 239.009C254.161 238.229 253.883 237.113 253.883 235.659C253.883 234.935 253.956 234.208 254.102 233.479C254.247 232.745 254.532 232.084 254.956 231.496C255.325 230.99 255.742 230.621 256.207 230.389C256.676 230.152 257.219 230.033 257.834 230.033C258.203 230.033 258.561 230.097 258.907 230.225C259.258 230.352 259.586 230.553 259.892 230.826L259.276 231.551C259.058 231.364 258.825 231.225 258.579 231.134C258.338 231.038 258.069 230.99 257.772 230.99C257.381 230.99 257.027 231.072 256.713 231.236C256.403 231.396 256.107 231.665 255.824 232.043C255.574 232.38 255.38 232.804 255.243 233.314C255.111 233.82 255.045 234.379 255.045 234.989H255.072C255.355 234.611 255.69 234.331 256.077 234.148C256.469 233.962 256.879 233.868 257.308 233.868C258.16 233.868 258.839 234.151 259.345 234.716C259.855 235.276 260.11 235.996 260.11 236.876ZM258.962 236.965C258.962 236.263 258.796 235.73 258.463 235.365C258.135 235.001 257.702 234.818 257.164 234.818C256.535 234.818 256.036 235.012 255.667 235.399C255.298 235.787 255.113 236.252 255.113 236.794C255.113 237.5 255.293 238.079 255.653 238.53C256.018 238.981 256.492 239.207 257.075 239.207C257.64 239.207 258.096 239.013 258.442 238.626C258.789 238.239 258.962 237.685 258.962 236.965Z" fill="black" fill-opacity="0.6063"/>
<path d="M307.117 230.847C306.324 232.237 305.6 233.674 304.943 235.16C304.292 236.646 303.834 238.259 303.569 240H302.366C302.617 238.359 303.086 236.771 303.774 235.235C304.463 233.7 305.137 232.357 305.798 231.209H300.883V230.197H307.117V230.847Z" fill="black" fill-opacity="0.6063"/>
</svg>
