<svg width="326" height="40" viewBox="0 0 326 40" fill="none" xmlns="http://www.w3.org/2000/svg">
<path d="M14.9364 25.1387L15.7567 23.9629C16.1623 24.2591 16.5542 24.471 16.9325 24.5986C17.3153 24.7217 17.7437 24.7832 18.2176 24.7832C18.7827 24.7832 19.2271 24.6624 19.5506 24.4209C19.8742 24.1748 20.036 23.8262 20.036 23.375C20.036 22.9557 19.897 22.6253 19.619 22.3838C19.3456 22.1423 18.8853 21.9258 18.2381 21.7344C17.2355 21.4427 16.4995 21.0781 16.0301 20.6406C15.5653 20.2031 15.3329 19.6107 15.3329 18.8633C15.3329 18.0384 15.6359 17.3617 16.242 16.833C16.8527 16.2998 17.6685 16.0332 18.6893 16.0332C19.1769 16.0332 19.6486 16.097 20.1044 16.2246C20.5601 16.3522 20.9953 16.5482 21.41 16.8125L20.6991 18.0225C20.3436 17.8037 19.9973 17.6465 19.66 17.5508C19.3228 17.4551 18.9741 17.4072 18.6141 17.4072C18.0946 17.4072 17.6867 17.5234 17.3905 17.7559C17.0943 17.9837 16.9461 18.3027 16.9461 18.7129C16.9461 19.082 17.0806 19.3737 17.3495 19.5879C17.6229 19.7975 18.0923 20.0026 18.7577 20.2031C19.7831 20.4993 20.5213 20.8776 20.9725 21.3379C21.4282 21.7936 21.6561 22.4225 21.6561 23.2246C21.6561 24.0814 21.3531 24.7855 20.7469 25.3369C20.1408 25.8883 19.2749 26.1641 18.1493 26.1641C17.5523 26.1641 16.9781 26.0798 16.4266 25.9111C15.8797 25.738 15.383 25.4805 14.9364 25.1387ZM29.3329 26H27.7401V24.9336H27.7128C27.4667 25.3392 27.1613 25.6468 26.7967 25.8564C26.4367 26.0615 26.0243 26.1641 25.5594 26.1641C24.7391 26.1641 24.1216 25.918 23.7069 25.4258C23.2967 24.9336 23.0917 24.1976 23.0917 23.2178V19H24.6708V23.0332C24.6708 23.653 24.7915 24.1178 25.0331 24.4277C25.2746 24.7376 25.6392 24.8926 26.1268 24.8926C26.6008 24.8926 26.9881 24.7217 27.2889 24.3799C27.5897 24.0381 27.7401 23.5824 27.7401 23.0127V19H29.3329V26Z" fill="black" fill-opacity="0.8956"/>
<path d="M70.3793 26H68.766V19.7451C68.766 19.4671 68.7728 19.1663 68.7865 18.8428C68.8002 18.5192 68.8207 18.1751 68.848 17.8105H68.807C68.7523 18.0521 68.7022 18.2594 68.6566 18.4326C68.611 18.6058 68.5655 18.7471 68.5199 18.8564L65.642 26H64.5209L61.6293 18.918C61.5928 18.8177 61.5495 18.6764 61.4994 18.4941C61.4492 18.3073 61.3946 18.0794 61.3353 17.8105H61.2943C61.3171 18.1296 61.333 18.4668 61.3421 18.8223C61.3513 19.1777 61.3558 19.5537 61.3558 19.9502V26H59.8451V16.1973H62.1488L64.6986 22.5684C64.7989 22.8099 64.8809 23.0286 64.9447 23.2246C65.0085 23.4206 65.0609 23.6074 65.1019 23.7852H65.1429C65.225 23.5299 65.3002 23.2998 65.3685 23.0947C65.4414 22.8896 65.5121 22.7074 65.5804 22.5479L68.1644 16.1973H70.3793V26ZM75.7181 26.1641C74.6198 26.1641 73.7494 25.8382 73.1068 25.1865C72.4688 24.5303 72.1498 23.653 72.1498 22.5547C72.1543 21.3971 72.487 20.488 73.1478 19.8271C73.8132 19.1663 74.7132 18.8359 75.848 18.8359C76.9463 18.8314 77.8054 19.1549 78.4252 19.8066C79.0449 20.4583 79.3548 21.3356 79.3548 22.4385C79.3548 23.5687 79.0267 24.4733 78.3705 25.1523C77.7142 25.8268 76.8301 26.1641 75.7181 26.1641ZM75.7865 24.8926C76.4199 24.8926 76.903 24.6852 77.2357 24.2705C77.5684 23.8512 77.7347 23.2542 77.7347 22.4795C77.7347 21.7139 77.5661 21.1283 77.2289 20.7227C76.8962 20.3125 76.4154 20.1074 75.7865 20.1074C75.1621 20.1074 74.6699 20.3239 74.3099 20.7568C73.9499 21.1852 73.7699 21.7731 73.7699 22.5205C73.7699 23.277 73.9476 23.8626 74.3031 24.2773C74.6586 24.6875 75.153 24.8926 75.7865 24.8926Z" fill="black" fill-opacity="0.8956"/>
<path d="M115.671 17.5781H112.869V26H111.235V17.5781H108.446V16.1973H115.671V17.5781ZM123.061 26H121.468V24.9336H121.441C121.195 25.3392 120.889 25.6468 120.525 25.8564C120.165 26.0615 119.752 26.1641 119.287 26.1641C118.467 26.1641 117.85 25.918 117.435 25.4258C117.025 24.9336 116.82 24.1976 116.82 23.2178V19H118.399V23.0332C118.399 23.653 118.52 24.1178 118.761 24.4277C119.003 24.7376 119.367 24.8926 119.855 24.8926C120.329 24.8926 120.716 24.7217 121.017 24.3799C121.318 24.0381 121.468 23.5824 121.468 23.0127V19H123.061V26Z" fill="black" fill-opacity="0.8956"/>
<path d="M166.144 16.1973L163.465 26H161.626L159.787 19.2461C159.746 19.0911 159.712 18.9316 159.684 18.7676C159.657 18.599 159.639 18.4258 159.63 18.248H159.602C159.584 18.4303 159.561 18.6035 159.534 18.7676C159.507 18.9316 159.47 19.0889 159.425 19.2393L157.558 26H155.679L152.937 16.1973H154.722L156.492 23.2588C156.529 23.4046 156.558 23.5596 156.581 23.7236C156.608 23.8831 156.629 24.0609 156.642 24.2568H156.683C156.697 24.1064 156.72 23.9492 156.752 23.7852C156.784 23.6211 156.827 23.4411 156.882 23.2451L158.871 16.1973H160.539L162.398 23.3066C162.435 23.4297 162.467 23.5687 162.494 23.7236C162.521 23.8786 162.544 24.054 162.562 24.25H162.59C162.603 24.0951 162.624 23.9401 162.651 23.7852C162.679 23.6302 162.713 23.4593 162.754 23.2725L164.47 16.1973H166.144ZM172.714 22.9102H167.929C167.951 23.5755 168.14 24.0814 168.496 24.4277C168.851 24.7695 169.341 24.9404 169.966 24.9404C170.239 24.9404 170.538 24.8835 170.861 24.7695C171.189 24.6556 171.506 24.4733 171.811 24.2227L172.598 25.1729C172.178 25.5146 171.743 25.7653 171.292 25.9248C170.841 26.0843 170.337 26.1641 169.781 26.1641C168.696 26.1641 167.849 25.8519 167.238 25.2275C166.632 24.5986 166.329 23.7191 166.329 22.5889C166.329 21.4723 166.641 20.5677 167.265 19.875C167.894 19.1823 168.696 18.8359 169.672 18.8359C170.62 18.8359 171.362 19.1322 171.9 19.7246C172.443 20.3125 172.714 21.1488 172.714 22.2334V22.9102ZM171.176 21.8096C171.176 21.2126 171.043 20.7637 170.779 20.4629C170.515 20.1621 170.143 20.0117 169.665 20.0117C169.209 20.0117 168.822 20.1758 168.503 20.5039C168.188 20.8275 167.997 21.2627 167.929 21.8096H171.176Z" fill="black" fill-opacity="0.8956"/>
<path d="M209.392 17.5781H206.59V26H204.956V17.5781H202.167V16.1973H209.392V17.5781ZM216.891 26H215.306V21.9805C215.306 21.3561 215.187 20.889 214.95 20.5791C214.718 20.2646 214.369 20.1074 213.904 20.1074C213.43 20.1074 213.038 20.2874 212.728 20.6475C212.418 21.0029 212.264 21.4609 212.264 22.0215V26H210.671V15.6367H212.264V20.0869H212.291C212.551 19.6676 212.867 19.3555 213.241 19.1504C213.619 18.9408 214.045 18.8359 214.519 18.8359C215.303 18.8359 215.893 19.0752 216.29 19.5537C216.691 20.0277 216.891 20.7409 216.891 21.6934V26Z" fill="black" fill-opacity="0.8956"/>
<path d="M257.09 17.5781H253.426V20.5244H256.803V21.8984H253.426V26H251.799V16.1973H257.09V17.5781ZM262.545 20.3467C262.45 20.3193 262.358 20.2988 262.272 20.2852C262.185 20.2715 262.087 20.2646 261.978 20.2646C261.422 20.2646 260.991 20.4743 260.686 20.8936C260.381 21.3128 260.228 21.8597 260.228 22.5342V26H258.635V19H260.228V20.333H260.255C260.419 19.8545 260.661 19.4922 260.98 19.2461C261.299 19 261.675 18.877 262.108 18.877C262.24 18.877 262.358 18.8861 262.463 18.9043C262.568 18.918 262.671 18.9408 262.771 18.9727L262.545 20.3467Z" fill="black" fill-opacity="0.8956"/>
<path d="M296.51 25.1387L297.33 23.9629C297.736 24.2591 298.128 24.471 298.506 24.5986C298.889 24.7217 299.317 24.7832 299.791 24.7832C300.356 24.7832 300.801 24.6624 301.124 24.4209C301.448 24.1748 301.61 23.8262 301.61 23.375C301.61 22.9557 301.471 22.6253 301.193 22.3838C300.919 22.1423 300.459 21.9258 299.812 21.7344C298.809 21.4427 298.073 21.0781 297.604 20.6406C297.139 20.2031 296.907 19.6107 296.907 18.8633C296.907 18.0384 297.21 17.3617 297.816 16.833C298.426 16.2998 299.242 16.0332 300.263 16.0332C300.751 16.0332 301.222 16.097 301.678 16.2246C302.134 16.3522 302.569 16.5482 302.984 16.8125L302.273 18.0225C301.917 17.8037 301.571 17.6465 301.234 17.5508C300.897 17.4551 300.548 17.4072 300.188 17.4072C299.668 17.4072 299.26 17.5234 298.964 17.7559C298.668 17.9837 298.52 18.3027 298.52 18.7129C298.52 19.082 298.654 19.3737 298.923 19.5879C299.197 19.7975 299.666 20.0026 300.331 20.2031C301.357 20.4993 302.095 20.8776 302.546 21.3379C303.002 21.7936 303.23 22.4225 303.23 23.2246C303.23 24.0814 302.927 24.7855 302.321 25.3369C301.715 25.8883 300.849 26.1641 299.723 26.1641C299.126 26.1641 298.552 26.0798 298 25.9111C297.453 25.738 296.957 25.4805 296.51 25.1387ZM310.141 26H308.603V24.9746H308.576C308.334 25.3711 308.038 25.6696 307.687 25.8701C307.336 26.0661 306.935 26.1641 306.484 26.1641C305.846 26.1641 305.317 25.9772 304.898 25.6035C304.483 25.2253 304.276 24.7148 304.276 24.0723C304.276 23.4479 304.483 22.9375 304.898 22.541C305.317 22.1445 305.937 21.8893 306.757 21.7754L308.61 21.5293V21.3652C308.61 20.8958 308.487 20.554 308.241 20.3398C307.994 20.1257 307.664 20.0186 307.249 20.0186C306.908 20.0186 306.57 20.0824 306.238 20.21C305.905 20.333 305.586 20.5244 305.281 20.7842L304.522 19.8818C304.927 19.5355 305.36 19.2757 305.821 19.1025C306.286 18.9248 306.803 18.8359 307.372 18.8359C308.302 18.8359 308.995 19.0684 309.451 19.5332C309.911 19.9935 310.141 20.6839 310.141 21.6045V26ZM308.61 23.1562V22.5889L307.085 22.7871C306.648 22.8464 306.322 22.9648 306.108 23.1426C305.894 23.3158 305.786 23.5687 305.786 23.9014C305.786 24.234 305.891 24.4961 306.101 24.6875C306.311 24.8789 306.577 24.9746 306.901 24.9746C307.416 24.9746 307.828 24.8037 308.138 24.4619C308.452 24.1156 308.61 23.6803 308.61 23.1562Z" fill="black" fill-opacity="0.8956"/>
</svg>
