<svg width="9" height="10" viewBox="0 0 9 10" fill="none" xmlns="http://www.w3.org/2000/svg">
<path d="M1.19238 9.4043C1.06217 9.4043 0.940104 9.37988 0.826172 9.33105C0.71224 9.28223 0.611328 9.21549 0.523438 9.13086C0.438802 9.04622 0.37207 8.94694 0.323242 8.83301C0.274414 8.71908 0.25 8.59701 0.25 8.4668V1.5332C0.25 1.40299 0.274414 1.28092 0.323242 1.16699C0.37207 1.05306 0.438802 0.953776 0.523438 0.869141C0.608073 0.784505 0.707357 0.717773 0.821289 0.668945C0.935221 0.620117 1.05729 0.595703 1.1875 0.595703C1.26562 0.595703 1.34375 0.605469 1.42188 0.625C1.5 0.644531 1.57324 0.673828 1.6416 0.712891L7.8623 4.17969C8.01204 4.26432 8.12923 4.37988 8.21387 4.52637C8.2985 4.6696 8.34082 4.82747 8.34082 5C8.34082 5.17578 8.2985 5.33529 8.21387 5.47852C8.13249 5.62174 8.0153 5.73568 7.8623 5.82031L1.64648 9.28711C1.57812 9.32617 1.50488 9.35547 1.42676 9.375C1.34863 9.39453 1.27051 9.4043 1.19238 9.4043Z" fill="black" fill-opacity="0.8956"/>
</svg>
