<svg width="11" height="11" viewBox="0 0 11 11" fill="none" xmlns="http://www.w3.org/2000/svg">
<path d="M10.5 5.625C10.5 5.72656 10.4629 5.81445 10.3887 5.88867C10.3145 5.96289 10.2266 6 10.125 6H6V10.125C6 10.2266 5.96289 10.3145 5.88867 10.3887C5.81445 10.4629 5.72656 10.5 5.625 10.5C5.52344 10.5 5.43555 10.4629 5.36133 10.3887C5.28711 10.3145 5.25 10.2266 5.25 10.125V6H1.125C1.02344 6 0.935547 5.96289 0.861328 5.88867C0.787109 5.81445 0.75 5.72656 0.75 5.625C0.75 5.52344 0.787109 5.43555 0.861328 5.36133C0.935547 5.28711 1.02344 5.25 1.125 5.25H5.25V1.125C5.25 1.02344 5.28711 0.935547 5.36133 0.861328C5.43555 0.787109 5.52344 0.75 5.625 0.75C5.72656 0.75 5.81445 0.787109 5.88867 0.861328C5.96289 0.935547 6 1.02344 6 1.125V5.25H10.125C10.2266 5.25 10.3145 5.28711 10.3887 5.36133C10.4629 5.43555 10.5 5.52344 10.5 5.625Z" fill="black" fill-opacity="0.8956"/>
</svg>
