<svg width="14" height="16" viewBox="0 0 14 16" fill="none" xmlns="http://www.w3.org/2000/svg">
<path d="M14 4.00781C14 4.1849 13.9714 4.35938 13.9141 4.53125C13.862 4.69792 13.7865 4.85417 13.6875 5C13.5885 5.14062 13.4688 5.26562 13.3281 5.375C13.1927 5.48438 13.0417 5.57031 12.875 5.63281L10 6.72656V9.125C10 9.14062 10.0365 9.25 10.1094 9.45312C10.1823 9.65625 10.2734 9.91146 10.3828 10.2188C10.4974 10.5208 10.6198 10.8542 10.75 11.2188C10.8854 11.5781 11.013 11.9245 11.1328 12.2578C11.2578 12.5859 11.3646 12.8776 11.4531 13.1328C11.5469 13.388 11.6094 13.5599 11.6406 13.6484C11.6719 13.7474 11.6979 13.8464 11.7188 13.9453C11.7396 14.0443 11.75 14.1458 11.75 14.25C11.75 14.4948 11.7031 14.724 11.6094 14.9375C11.5208 15.1458 11.3958 15.3307 11.2344 15.4922C11.0729 15.6484 10.8854 15.7734 10.6719 15.8672C10.4583 15.9557 10.2318 16 9.99219 16C9.8099 16 9.63281 15.974 9.46094 15.9219C9.29427 15.8646 9.13802 15.7865 8.99219 15.6875C8.84635 15.5833 8.71875 15.4609 8.60938 15.3203C8.5 15.1745 8.41406 15.0156 8.35156 14.8438L7 11.1172L5.64062 14.8438C5.57812 15.0208 5.49219 15.1797 5.38281 15.3203C5.27344 15.4609 5.14583 15.5833 5 15.6875C4.85938 15.7865 4.70312 15.8646 4.53125 15.9219C4.36458 15.974 4.1875 16 4 16C3.76042 16 3.53385 15.9557 3.32031 15.8672C3.10677 15.7734 2.91927 15.6484 2.75781 15.4922C2.60156 15.3307 2.47656 15.1432 2.38281 14.9297C2.29427 14.7161 2.25 14.4896 2.25 14.25C2.25 14.1458 2.26042 14.0443 2.28125 13.9453C2.30208 13.8464 2.32812 13.7474 2.35938 13.6484C2.38021 13.5807 2.41927 13.4661 2.47656 13.3047C2.53906 13.1432 2.60938 12.9531 2.6875 12.7344C2.77083 12.5104 2.85938 12.2682 2.95312 12.0078C3.05208 11.7474 3.14844 11.487 3.24219 11.2266C3.34115 10.9609 3.4349 10.7057 3.52344 10.4609C3.61719 10.2109 3.69792 9.98958 3.76562 9.79688C3.83854 9.60417 3.89583 9.44792 3.9375 9.32812C3.97917 9.20833 4 9.14323 4 9.13281V6.72656L1.125 5.63281C0.953125 5.57031 0.796875 5.48438 0.65625 5.375C0.520833 5.26042 0.403646 5.13281 0.304688 4.99219C0.210938 4.85156 0.135417 4.69792 0.078125 4.53125C0.0260417 4.35938 0 4.18229 0 4C0 3.76042 0.0442708 3.53385 0.132812 3.32031C0.226562 3.10677 0.351562 2.92188 0.507812 2.76562C0.669271 2.60417 0.854167 2.47917 1.0625 2.39062C1.27604 2.29688 1.50521 2.25 1.75 2.25C1.96354 2.25 2.17188 2.28906 2.375 2.36719L4.60156 3.21875C4.5651 3.09375 4.53906 2.96615 4.52344 2.83594C4.50781 2.70573 4.5 2.57552 4.5 2.44531C4.5 2.10677 4.56771 1.78906 4.70312 1.49219C4.83854 1.19531 5.02083 0.9375 5.25 0.71875C5.47917 0.494792 5.74479 0.320312 6.04688 0.195312C6.34896 0.0651042 6.66667 0 7 0C7.33333 0 7.65104 0.0651042 7.95312 0.195312C8.25521 0.320312 8.52083 0.494792 8.75 0.71875C8.97917 0.9375 9.16146 1.19531 9.29688 1.49219C9.43229 1.78906 9.5 2.10677 9.5 2.44531C9.5 2.57552 9.49219 2.70573 9.47656 2.83594C9.46094 2.96615 9.43229 3.09375 9.39062 3.21875L11.625 2.36719C11.8281 2.28906 12.0365 2.25 12.25 2.25C12.4896 2.25 12.7161 2.29688 12.9297 2.39062C13.1432 2.47917 13.3281 2.60417 13.4844 2.76562C13.6458 2.92708 13.7708 3.11458 13.8594 3.32812C13.9531 3.54167 14 3.76823 14 4.00781ZM5.5 2.5C5.5 2.70312 5.53906 2.89583 5.61719 3.07812C5.69531 3.26042 5.80208 3.42188 5.9375 3.5625C6.07812 3.69792 6.23958 3.80469 6.42188 3.88281C6.60417 3.96094 6.79688 4 7 4C7.20312 4 7.39583 3.96094 7.57812 3.88281C7.76042 3.80469 7.91927 3.69792 8.05469 3.5625C8.19531 3.42188 8.30469 3.26042 8.38281 3.07812C8.46094 2.89583 8.5 2.70312 8.5 2.5C8.5 2.29688 8.46094 2.10417 8.38281 1.92188C8.30469 1.73958 8.19531 1.58073 8.05469 1.44531C7.91927 1.30469 7.76042 1.19531 7.57812 1.11719C7.39583 1.03906 7.20312 1 7 1C6.79688 1 6.60417 1.03906 6.42188 1.11719C6.23958 1.19531 6.07812 1.30469 5.9375 1.44531C5.80208 1.58073 5.69531 1.73958 5.61719 1.92188C5.53906 2.10417 5.5 2.29688 5.5 2.5ZM13 3.99219C13 3.89323 12.9792 3.79948 12.9375 3.71094C12.901 3.61719 12.8464 3.53646 12.7734 3.46875C12.7057 3.40104 12.625 3.34896 12.5312 3.3125C12.4427 3.27083 12.349 3.25 12.25 3.25C12.1562 3.25 12.0677 3.26562 11.9844 3.29688L7.79688 4.89062C7.67188 4.9375 7.54167 4.97396 7.40625 5C7.27083 5.02604 7.13542 5.03906 7 5.03906C6.73438 5.03906 6.46615 4.98958 6.19531 4.89062L2.01562 3.29688C1.92708 3.26562 1.83854 3.25 1.75 3.25C1.53646 3.25 1.35677 3.32292 1.21094 3.46875C1.07031 3.60938 1 3.78646 1 4C1 4.15625 1.04167 4.29948 1.125 4.42969C1.21354 4.55469 1.33333 4.64583 1.48438 4.70312L4.67969 5.91406C4.77865 5.95052 4.85677 6.01302 4.91406 6.10156C4.97135 6.1849 5 6.27865 5 6.38281V9.21875C5 9.28646 4.98958 9.34375 4.96875 9.39062L3.29688 13.9922C3.26562 14.0807 3.25 14.1667 3.25 14.25C3.25 14.4583 3.32292 14.6354 3.46875 14.7812C3.61458 14.9271 3.79167 15 4 15C4.15625 15 4.29688 14.9557 4.42188 14.8672C4.55208 14.7786 4.64583 14.6589 4.70312 14.5078L6.0625 10.7812C6.13542 10.5729 6.2526 10.4115 6.41406 10.2969C6.58073 10.1771 6.77604 10.1172 7 10.1172C7.22396 10.1172 7.41667 10.1771 7.57812 10.2969C7.74479 10.4115 7.86458 10.5729 7.9375 10.7812L9.29688 14.5078C9.35417 14.6589 9.44531 14.7786 9.57031 14.8672C9.69531 14.9557 9.83854 15 10 15C10.2083 15 10.3854 14.9271 10.5312 14.7812C10.6771 14.6354 10.75 14.4583 10.75 14.25C10.75 14.1667 10.7344 14.0807 10.7031 13.9922L9.03125 9.39062C9.01042 9.34375 9 9.28646 9 9.21875V6.38281C9 6.27865 9.02865 6.1849 9.08594 6.10156C9.14323 6.01302 9.22135 5.95052 9.32031 5.91406L12.5156 4.70312C12.6667 4.64583 12.7839 4.55469 12.8672 4.42969C12.9557 4.29948 13 4.15365 13 3.99219Z" fill="black" fill-opacity="0.8956"/>
</svg>
