<svg width="16" height="16" viewBox="0 0 16 16" fill="none" xmlns="http://www.w3.org/2000/svg">
<path d="M15 8C15 7.875 14.974 7.75521 14.9219 7.64062C14.875 7.52083 14.8099 7.41927 14.7266 7.33594C14.6432 7.2474 14.5443 7.17708 14.4297 7.125C14.3203 7.07292 14.2005 7.04688 14.0703 7.04688H14.0156L10.3438 7.17188L6.41406 1.27344C6.3776 1.22135 6.32552 1.19531 6.25781 1.19531C6.21094 1.19531 6.17188 1.21354 6.14062 1.25C6.10938 1.28646 6.09375 1.32812 6.09375 1.375V1.40625L7.35156 7.27344L2.47656 7.4375L1.5 5.15625C1.45833 5.05208 1.38021 5 1.26562 5C1.19271 5 1.13021 5.02604 1.07812 5.07812C1.03125 5.125 1.00781 5.1849 1.00781 5.25781C1.00781 5.27865 1.02083 5.33854 1.04688 5.4375C1.07292 5.53646 1.10417 5.65625 1.14062 5.79688C1.18229 5.9375 1.22656 6.09115 1.27344 6.25781C1.32552 6.42448 1.3724 6.58073 1.41406 6.72656C1.45573 6.8724 1.49219 7.0026 1.52344 7.11719C1.5599 7.23177 1.58333 7.30729 1.59375 7.34375C1.52083 7.38542 1.44792 7.42708 1.375 7.46875C1.30729 7.50521 1.24479 7.54688 1.1875 7.59375C1.13542 7.64062 1.09115 7.69792 1.05469 7.76562C1.01823 7.82812 1 7.90625 1 8C1 8.09375 1.01823 8.17448 1.05469 8.24219C1.09115 8.30469 1.13542 8.35938 1.1875 8.40625C1.24479 8.45312 1.30729 8.4974 1.375 8.53906C1.44792 8.57552 1.52083 8.61458 1.59375 8.65625C1.58333 8.69271 1.5599 8.76823 1.52344 8.88281C1.49219 8.99219 1.45573 9.1224 1.41406 9.27344C1.3724 9.42448 1.32552 9.58333 1.27344 9.75C1.22656 9.91146 1.18229 10.0625 1.14062 10.2031C1.10417 10.3438 1.07292 10.4661 1.04688 10.5703C1.02083 10.6693 1.00781 10.7266 1.00781 10.7422C1.00781 10.8151 1.03125 10.8776 1.07812 10.9297C1.13021 10.9766 1.19271 11 1.26562 11C1.38021 11 1.45833 10.9479 1.5 10.8438L2.47656 8.5625L7.35156 8.72656L6.09375 14.5938V14.625C6.09375 14.6719 6.10938 14.7135 6.14062 14.75C6.17188 14.7865 6.21094 14.8047 6.25781 14.8047C6.32552 14.8047 6.3776 14.7786 6.41406 14.7266L10.3438 8.82812L14.0156 8.95312H14.0703C14.2005 8.95312 14.3203 8.92708 14.4297 8.875C14.5443 8.82292 14.6432 8.75521 14.7266 8.67188C14.8099 8.58333 14.875 8.48177 14.9219 8.36719C14.974 8.2474 15 8.125 15 8ZM14.0547 6.05469C14.3203 6.05469 14.5703 6.10677 14.8047 6.21094C15.0443 6.3099 15.2526 6.44792 15.4297 6.625C15.6068 6.80208 15.7448 7.01042 15.8438 7.25C15.9479 7.48438 16 7.73438 16 8C16 8.27083 15.9479 8.52604 15.8438 8.76562C15.7396 9 15.599 9.20573 15.4219 9.38281C15.2448 9.5599 15.0365 9.70052 14.7969 9.80469C14.5625 9.90365 14.3099 9.95312 14.0391 9.95312C13.513 9.95312 12.9844 9.9401 12.4531 9.91406C11.9271 9.88802 11.3984 9.86458 10.8672 9.84375L7.24219 15.2812C7.13281 15.4427 6.99219 15.5703 6.82031 15.6641C6.64844 15.7578 6.46354 15.8047 6.26562 15.8047C6.10417 15.8047 5.95052 15.7734 5.80469 15.7109C5.66406 15.6484 5.54167 15.5651 5.4375 15.4609C5.33333 15.3516 5.25 15.2266 5.1875 15.0859C5.125 14.9401 5.09375 14.7865 5.09375 14.625C5.09375 14.5417 5.10156 14.4609 5.11719 14.3828L6.125 9.6875L3.125 9.58594L2.41406 11.2422C2.3151 11.4766 2.16146 11.6615 1.95312 11.7969C1.74479 11.9323 1.51562 12 1.26562 12C1.09375 12 0.929688 11.9688 0.773438 11.9062C0.622396 11.8385 0.489583 11.7474 0.375 11.6328C0.260417 11.5182 0.169271 11.3854 0.101562 11.2344C0.0390625 11.0781 0.0078125 10.9141 0.0078125 10.7422C0.0078125 10.6484 0.0234375 10.5286 0.0546875 10.3828C0.0911458 10.2318 0.132812 10.0755 0.179688 9.91406C0.226562 9.7526 0.273438 9.59635 0.320312 9.44531C0.367188 9.29427 0.40625 9.16927 0.4375 9.07031C0.296875 8.92969 0.1875 8.76562 0.109375 8.57812C0.0364583 8.39062 0 8.19792 0 8C0 7.80208 0.0364583 7.60938 0.109375 7.42188C0.1875 7.23438 0.296875 7.07031 0.4375 6.92969C0.40625 6.83073 0.367188 6.70573 0.320312 6.55469C0.273438 6.40365 0.226562 6.25 0.179688 6.09375C0.132812 5.93229 0.0911458 5.77604 0.0546875 5.625C0.0234375 5.47396 0.0078125 5.35156 0.0078125 5.25781C0.0078125 5.08594 0.0390625 4.92448 0.101562 4.77344C0.169271 4.61719 0.260417 4.48177 0.375 4.36719C0.489583 4.2526 0.622396 4.16406 0.773438 4.10156C0.929688 4.03385 1.09375 4 1.26562 4C1.51562 4 1.74479 4.06771 1.95312 4.20312C2.16146 4.33854 2.3151 4.52344 2.41406 4.75781L3.125 6.41406L6.125 6.3125L5.11719 1.61719C5.10156 1.53906 5.09375 1.45833 5.09375 1.375C5.09375 1.21354 5.125 1.0625 5.1875 0.921875C5.25 0.776042 5.33333 0.651042 5.4375 0.546875C5.54167 0.4375 5.66406 0.351562 5.80469 0.289062C5.95052 0.226562 6.10417 0.195312 6.26562 0.195312C6.46354 0.195312 6.64844 0.242188 6.82031 0.335938C6.99219 0.429688 7.13281 0.557292 7.24219 0.71875L10.8672 6.15625C11.3984 6.14062 11.9297 6.11979 12.4609 6.09375C12.9922 6.06771 13.5234 6.05469 14.0547 6.05469Z" fill="black" fill-opacity="0.8956"/>
</svg>
