<svg width="16" height="13" viewBox="0 0 16 13" fill="none" xmlns="http://www.w3.org/2000/svg">
<path d="M0.5 11C0.364583 11 0.247396 10.9505 0.148438 10.8516C0.0494792 10.7526 0 10.6354 0 10.5C0 10.3802 0.03125 10.2812 0.09375 10.2031C0.161458 10.125 0.247396 10.0651 0.351562 10.0234C0.742188 9.8776 1.08854 9.70312 1.39062 9.5C1.69271 9.29688 1.97656 9.02865 2.24219 8.69531C1.84115 8.53385 1.4974 8.34896 1.21094 8.14062C0.929688 7.92708 0.697917 7.6849 0.515625 7.41406C0.338542 7.14323 0.208333 6.83854 0.125 6.5C0.0416667 6.15625 0 5.76823 0 5.33594C0 5.07552 0.0520833 4.8151 0.15625 4.55469C0.260417 4.29427 0.395833 4.04688 0.5625 3.8125C0.734375 3.57292 0.924479 3.35677 1.13281 3.16406C1.34115 2.96615 1.54688 2.79948 1.75 2.66406C2.26042 2.33073 2.71615 1.95833 3.11719 1.54688C3.52344 1.13021 3.91667 0.684896 4.29688 0.210938C4.35417 0.143229 4.41406 0.0911458 4.47656 0.0546875C4.54427 0.0182292 4.6224 0 4.71094 0C4.80469 0 4.89323 0.0286458 4.97656 0.0859375C5.0599 0.138021 5.1224 0.208333 5.16406 0.296875L6.61719 3.55469C6.74219 3.84115 6.83854 4.14062 6.90625 4.45312C6.97396 4.76562 7.00781 5.07812 7.00781 5.39062C7.00781 5.98958 6.8776 6.53906 6.61719 7.03906C6.36198 7.53906 6.01042 7.98177 5.5625 8.36719C5.53646 8.38802 5.50781 8.40625 5.47656 8.42188C5.45052 8.4375 5.42188 8.44531 5.39062 8.44531C5.32812 8.44531 5.27604 8.41927 5.23438 8.36719C5.19271 8.3151 5.17188 8.26042 5.17188 8.20312C5.17188 8.16667 5.17969 8.13281 5.19531 8.10156C5.41406 7.5651 5.58854 7.00521 5.71875 6.42188C5.84896 5.83333 5.91406 5.2474 5.91406 4.66406C5.91406 4.4974 5.85156 4.35417 5.72656 4.23438C5.60156 4.11458 5.45573 4.05469 5.28906 4.05469C5.11198 4.05469 4.96615 4.11198 4.85156 4.22656C4.73698 4.33594 4.67448 4.47656 4.66406 4.64844C4.63802 5.0026 4.59896 5.35938 4.54688 5.71875C4.5 6.07292 4.42969 6.42448 4.33594 6.77344C4.2474 7.1224 4.13021 7.46354 3.98438 7.79688C3.84375 8.125 3.66927 8.4349 3.46094 8.72656C3.27344 8.98698 3.08073 9.23177 2.88281 9.46094C2.6849 9.6901 2.47135 9.90104 2.24219 10.0938C2.01823 10.2865 1.77344 10.4583 1.50781 10.6094C1.2474 10.7552 0.960938 10.8776 0.648438 10.9766C0.601562 10.9922 0.552083 11 0.5 11ZM0.703125 12.2422C0.885417 12.2161 1.07812 12.1641 1.28125 12.0859C1.48438 12.0078 1.66927 11.9271 1.83594 11.8438C2.05469 11.9479 2.27604 12 2.5 12H11.5C11.7031 12 11.8958 11.9609 12.0781 11.8828C12.2604 11.8047 12.4193 11.6979 12.5547 11.5625C12.6953 11.4219 12.8047 11.2604 12.8828 11.0781C12.9609 10.8958 13 10.7031 13 10.5V5.5C13 5.29688 12.9609 5.10417 12.8828 4.92188C12.8047 4.73958 12.6953 4.58073 12.5547 4.44531C12.4193 4.30469 12.2604 4.19531 12.0781 4.11719C11.8958 4.03906 11.7031 4 11.5 4H8.08594C8.04427 3.82292 7.99219 3.65365 7.92969 3.49219C7.86719 3.33073 7.80469 3.16667 7.74219 3H11.5547C11.888 3 12.2005 3.06771 12.4922 3.20312C12.7891 3.33333 13.0469 3.51042 13.2656 3.73438C13.4896 3.95312 13.6667 4.21094 13.7969 4.50781C13.9271 4.80469 13.9948 5.11719 14 5.44531V5.79688V6.5H15C15.1354 6.5 15.263 6.52604 15.3828 6.57812C15.5026 6.63021 15.6094 6.70312 15.7031 6.79688C15.7969 6.89062 15.8698 6.9974 15.9219 7.11719C15.974 7.23698 16 7.36458 16 7.5V8.5C16 8.77604 15.901 9.01302 15.7031 9.21094C15.5104 9.40365 15.276 9.5 15 9.5H14V10.5547C14 10.8828 13.9323 11.1953 13.7969 11.4922C13.6667 11.7891 13.4896 12.0495 13.2656 12.2734C13.0469 12.4922 12.7891 12.6693 12.4922 12.8047C12.1953 12.9349 11.8828 13 11.5547 13H2.5C2.16146 13 1.83594 12.9349 1.52344 12.8047C1.21094 12.6745 0.9375 12.487 0.703125 12.2422ZM3.125 11C3.26042 10.8854 3.38802 10.7656 3.50781 10.6406C3.63281 10.5156 3.75521 10.3854 3.875 10.25C4.25521 10.2448 4.6224 10.1849 4.97656 10.0703C5.33073 9.95573 5.66406 9.79948 5.97656 9.60156C6.28906 9.39844 6.57552 9.16146 6.83594 8.89062C7.09635 8.61458 7.32292 8.31771 7.51562 8C7.71354 7.67708 7.875 7.33854 8 6.98438C8.125 6.63021 8.20573 6.27083 8.24219 5.90625C8.25781 5.72917 8.26562 5.55208 8.26562 5.375C8.26562 5.3125 8.26562 5.25 8.26562 5.1875C8.26562 5.125 8.26302 5.0625 8.25781 5H11.25C11.4583 5 11.6354 5.07292 11.7812 5.21875C11.9271 5.36458 12 5.54167 12 5.75V10.25C12 10.4583 11.9271 10.6354 11.7812 10.7812C11.6354 10.9271 11.4583 11 11.25 11H3.125Z" fill="black" fill-opacity="0.8956"/>
</svg>
