<svg width="9" height="16" viewBox="0 0 9 16" fill="none" xmlns="http://www.w3.org/2000/svg">
<path d="M4 9.10156L0.828125 11.875C0.739583 11.9583 0.630208 12 0.5 12C0.359375 12 0.239583 11.9505 0.140625 11.8516C0.046875 11.7526 0 11.6328 0 11.4922C0 11.3464 0.0572917 11.224 0.171875 11.125L3.74219 8L0.171875 4.875C0.0572917 4.77604 0 4.65104 0 4.5C0 4.35938 0.046875 4.24219 0.140625 4.14844C0.239583 4.04948 0.359375 4 0.5 4C0.630208 4 0.739583 4.04167 0.828125 4.125L4 6.89844V0.5C4 0.364583 4.04948 0.247396 4.14844 0.148438C4.2526 0.0494792 4.3724 0 4.50781 0C4.63802 0 4.7526 0.0494792 4.85156 0.148438L8.85156 4.14844C8.95052 4.2474 9 4.36198 9 4.49219C9 4.64844 8.94271 4.77604 8.82812 4.875L5.25781 8L8.82812 11.125C8.89062 11.1823 8.9349 11.2396 8.96094 11.2969C8.98698 11.3542 9 11.4245 9 11.5078C9 11.638 8.95052 11.7526 8.85156 11.8516L4.85156 15.8516C4.7526 15.9505 4.63542 16 4.5 16C4.36458 16 4.2474 15.9505 4.14844 15.8516C4.04948 15.7526 4 15.6354 4 15.5V9.10156ZM5 1.70312V6.89844L7.76562 4.47656L5 1.70312ZM5 9.10156V14.2891L7.76562 11.5234L5 9.10156Z" fill="white"/>
</svg>
