<svg width="14" height="14" viewBox="0 0 14 14" fill="none" xmlns="http://www.w3.org/2000/svg">
<path d="M6 8V9H5V10H6V11H3.5C3.36458 11 3.2474 10.9505 3.14844 10.8516C3.04948 10.7526 3 10.6354 3 10.5C3 10.3854 3.02083 10.2969 3.0625 10.2344C3.10938 10.1667 3.16667 10.1172 3.23438 10.0859C3.30729 10.0495 3.38542 10.026 3.46875 10.0156C3.55729 10.0052 3.64583 10 3.73438 10H4V9H1.5C1.29688 9 1.10417 8.96094 0.921875 8.88281C0.739583 8.80469 0.578125 8.69792 0.4375 8.5625C0.302083 8.42188 0.195312 8.26042 0.117188 8.07812C0.0390625 7.89583 0 7.70312 0 7.5V1.5C0 1.29688 0.0390625 1.10417 0.117188 0.921875C0.195312 0.739583 0.302083 0.580729 0.4375 0.445312C0.578125 0.304688 0.739583 0.195312 0.921875 0.117188C1.10417 0.0390625 1.29688 0 1.5 0H10.5C10.7031 0 10.8958 0.0390625 11.0781 0.117188C11.2604 0.195312 11.4193 0.304688 11.5547 0.445312C11.6953 0.580729 11.8047 0.739583 11.8828 0.921875C11.9609 1.10417 12 1.29688 12 1.5V3H11V1.5C11 1.36458 10.9505 1.2474 10.8516 1.14844C10.7526 1.04948 10.6354 1 10.5 1H1.5C1.36458 1 1.2474 1.04948 1.14844 1.14844C1.04948 1.2474 1 1.36458 1 1.5V7.5C1 7.63542 1.04948 7.7526 1.14844 7.85156C1.2474 7.95052 1.36458 8 1.5 8H6ZM12.5 4C12.7031 4 12.8958 4.03906 13.0781 4.11719C13.2604 4.19531 13.4193 4.30469 13.5547 4.44531C13.6953 4.58073 13.8047 4.73958 13.8828 4.92188C13.9609 5.10417 14 5.29688 14 5.5V12.5C14 12.7031 13.9609 12.8958 13.8828 13.0781C13.8047 13.2604 13.6953 13.4219 13.5547 13.5625C13.4193 13.6979 13.2604 13.8047 13.0781 13.8828C12.8958 13.9609 12.7031 14 12.5 14H8.5C8.29688 14 8.10417 13.9609 7.92188 13.8828C7.73958 13.8047 7.57812 13.6979 7.4375 13.5625C7.30208 13.4219 7.19531 13.2604 7.11719 13.0781C7.03906 12.8958 7 12.7031 7 12.5V5.5C7 5.29688 7.03906 5.10417 7.11719 4.92188C7.19531 4.73958 7.30208 4.58073 7.4375 4.44531C7.57812 4.30469 7.73958 4.19531 7.92188 4.11719C8.10417 4.03906 8.29688 4 8.5 4H12.5ZM13 5.5C13 5.36458 12.9505 5.2474 12.8516 5.14844C12.7526 5.04948 12.6354 5 12.5 5H8.5C8.36458 5 8.2474 5.04948 8.14844 5.14844C8.04948 5.2474 8 5.36458 8 5.5V12.5C8 12.6354 8.04948 12.7526 8.14844 12.8516C8.2474 12.9505 8.36458 13 8.5 13H12.5C12.6354 13 12.7526 12.9505 12.8516 12.8516C12.9505 12.7526 13 12.6354 13 12.5V5.5ZM12 7.5C12 7.70312 11.9609 7.89583 11.8828 8.07812C11.8047 8.26042 11.6953 8.42188 11.5547 8.5625C11.4193 8.69792 11.2604 8.80469 11.0781 8.88281C10.8958 8.96094 10.7031 9 10.5 9C10.2969 9 10.1042 8.96094 9.92188 8.88281C9.73958 8.80469 9.57812 8.69792 9.4375 8.5625C9.30208 8.42188 9.19531 8.26042 9.11719 8.07812C9.03906 7.89583 9 7.70312 9 7.5C9 7.29688 9.03906 7.10417 9.11719 6.92188C9.19531 6.73958 9.30208 6.58073 9.4375 6.44531C9.57812 6.30469 9.73958 6.19531 9.92188 6.11719C10.1042 6.03906 10.2969 6 10.5 6C10.7031 6 10.8958 6.03906 11.0781 6.11719C11.2604 6.19531 11.4193 6.30469 11.5547 6.44531C11.6953 6.58073 11.8047 6.73958 11.8828 6.92188C11.9609 7.10417 12 7.29688 12 7.5ZM11 7.5C11 7.36458 10.9505 7.2474 10.8516 7.14844C10.7526 7.04948 10.6354 7 10.5 7C10.3646 7 10.2474 7.04948 10.1484 7.14844C10.0495 7.2474 10 7.36458 10 7.5C10 7.63542 10.0495 7.7526 10.1484 7.85156C10.2474 7.95052 10.3646 8 10.5 8C10.6354 8 10.7526 7.95052 10.8516 7.85156C10.9505 7.7526 11 7.63542 11 7.5ZM11.5 11C11.5 11.1406 11.474 11.2708 11.4219 11.3906C11.3698 11.5104 11.2969 11.6172 11.2031 11.7109C11.1146 11.7995 11.0104 11.8698 10.8906 11.9219C10.7708 11.974 10.6406 12 10.5 12C10.3594 12 10.2266 11.974 10.1016 11.9219C9.98177 11.8698 9.8776 11.7995 9.78906 11.7109C9.70052 11.6224 9.63021 11.5182 9.57812 11.3984C9.52604 11.2734 9.5 11.1406 9.5 11C9.5 10.8594 9.52604 10.7292 9.57812 10.6094C9.63021 10.4896 9.70052 10.3854 9.78906 10.2969C9.88281 10.2031 9.98958 10.1302 10.1094 10.0781C10.2292 10.026 10.3594 10 10.5 10C10.6354 10 10.763 10.026 10.8828 10.0781C11.0078 10.1302 11.1146 10.2031 11.2031 10.2969C11.2969 10.3854 11.3698 10.4922 11.4219 10.6172C11.474 10.737 11.5 10.8646 11.5 11Z" fill="black" fill-opacity="0.8956"/>
</svg>
