<svg width="6" height="10" viewBox="0 0 6 10" fill="none" xmlns="http://www.w3.org/2000/svg">
<path d="M0.75 9.125C0.75 9.02344 0.787109 8.93555 0.861328 8.86133L4.7168 5L0.861328 1.13867C0.787109 1.06445 0.75 0.976562 0.75 0.875C0.75 0.773438 0.787109 0.685547 0.861328 0.611328C0.935547 0.537109 1.02344 0.5 1.125 0.5C1.22656 0.5 1.31445 0.537109 1.38867 0.611328L5.51367 4.73633C5.58789 4.81055 5.625 4.89844 5.625 5C5.625 5.10156 5.58789 5.18945 5.51367 5.26367L1.38867 9.38867C1.31445 9.46289 1.22656 9.5 1.125 9.5C1.02344 9.5 0.935547 9.46289 0.861328 9.38867C0.787109 9.31445 0.75 9.22656 0.75 9.125Z" fill="black" fill-opacity="0.8956"/>
</svg>
