<svg width="13" height="14" viewBox="0 0 13 14" fill="none" xmlns="http://www.w3.org/2000/svg">
<path d="M0.359375 10.8359C0.359375 10.5807 0.4375 10.3672 0.59375 10.1953C0.75 10.0182 0.945312 9.90104 1.17969 9.84375C1.66927 9.71875 2.1224 9.5599 2.53906 9.36719C2.96094 9.17448 3.3724 8.91927 3.77344 8.60156C4.16406 8.29427 4.51302 7.95052 4.82031 7.57031C5.1276 7.1849 5.38542 6.77344 5.59375 6.33594C5.80729 5.89844 5.96875 5.44271 6.07812 4.96875C6.19271 4.48958 6.25 4 6.25 3.5C6.25 3.13542 6.21875 2.78385 6.15625 2.44531C6.09375 2.10156 6.01042 1.75521 5.90625 1.40625C5.89062 1.34896 5.875 1.29167 5.85938 1.23438C5.84896 1.17708 5.84375 1.11979 5.84375 1.0625C5.84375 0.927083 5.86719 0.799479 5.91406 0.679688C5.96615 0.554688 6.03385 0.447917 6.11719 0.359375C6.20573 0.265625 6.3099 0.192708 6.42969 0.140625C6.54948 0.0833333 6.67708 0.0546875 6.8125 0.0546875C6.83854 0.0546875 6.85938 0.0546875 6.875 0.0546875C6.89583 0.0546875 6.91927 0.0572917 6.94531 0.0625C7.52344 0.145833 8.0599 0.283854 8.55469 0.476562C9.04948 0.669271 9.53646 0.934896 10.0156 1.27344C10.4844 1.60677 10.9036 1.98438 11.2734 2.40625C11.6432 2.82812 11.9557 3.28385 12.2109 3.77344C12.4661 4.25781 12.6615 4.77344 12.7969 5.32031C12.9323 5.86198 13 6.42188 13 7C13 7.64583 12.9167 8.26823 12.75 8.86719C12.5833 9.46094 12.3464 10.0182 12.0391 10.5391C11.737 11.0547 11.3724 11.526 10.9453 11.9531C10.5234 12.375 10.0521 12.7396 9.53125 13.0469C9.01562 13.349 8.45833 13.5833 7.85938 13.75C7.26562 13.9167 6.64583 14 6 14C5.49479 14 4.98438 13.9427 4.46875 13.8281C3.95833 13.7135 3.46615 13.5469 2.99219 13.3281C2.52344 13.1094 2.08073 12.8411 1.66406 12.5234C1.2526 12.2057 0.890625 11.8411 0.578125 11.4297C0.505208 11.3359 0.450521 11.2448 0.414062 11.1562C0.377604 11.0625 0.359375 10.9557 0.359375 10.8359ZM12 7C12 6.26042 11.8698 5.55469 11.6094 4.88281C11.349 4.20573 10.987 3.60156 10.5234 3.07031C10.0651 2.53906 9.52083 2.09896 8.89062 1.75C8.26562 1.39583 7.58594 1.16667 6.85156 1.0625V1.07812C6.85156 1.09375 6.86198 1.13802 6.88281 1.21094C6.90365 1.27865 6.92708 1.35677 6.95312 1.44531C6.97917 1.53385 7.0026 1.61979 7.02344 1.70312C7.04948 1.78646 7.0651 1.84375 7.07031 1.875C7.1901 2.41667 7.25 2.95833 7.25 3.5C7.25 4.07812 7.1849 4.64323 7.05469 5.19531C6.92969 5.7474 6.74479 6.27604 6.5 6.78125C6.26042 7.28125 5.96354 7.7526 5.60938 8.19531C5.25521 8.63281 4.85156 9.03125 4.39844 9.39062C3.9401 9.75521 3.46615 10.0495 2.97656 10.2734C2.49219 10.4974 1.96615 10.6797 1.39844 10.8203L1.375 10.8281C1.66146 11.1719 1.97917 11.4792 2.32812 11.75C2.67708 12.0208 3.04948 12.25 3.44531 12.4375C3.84115 12.6198 4.2526 12.7604 4.67969 12.8594C5.11198 12.9531 5.55208 13 6 13C6.55208 13 7.08333 12.9297 7.59375 12.7891C8.10417 12.6432 8.58073 12.4401 9.02344 12.1797C9.47135 11.9193 9.8776 11.6068 10.2422 11.2422C10.6068 10.8776 10.9193 10.474 11.1797 10.0312C11.4401 9.58333 11.6406 9.10417 11.7812 8.59375C11.9271 8.08333 12 7.55208 12 7Z" fill="black" fill-opacity="0.8956"/>
</svg>
