<svg width="15" height="14" viewBox="0 0 15 14" fill="none" xmlns="http://www.w3.org/2000/svg">
<path d="M1 5.5C1 6.21354 1.11458 6.91146 1.34375 7.59375C1.57292 8.27083 1.90885 8.89323 2.35156 9.46094C2.4401 9.57031 2.53125 9.67708 2.625 9.78125C2.72396 9.88021 2.81771 9.98438 2.90625 10.0938C2.95833 10.1562 2.99479 10.2083 3.01562 10.25C3.04167 10.2917 3.05469 10.3568 3.05469 10.4453C3.05469 10.5859 3.00521 10.7057 2.90625 10.8047C2.80729 10.8984 2.6875 10.9453 2.54688 10.9453C2.46875 10.9453 2.40365 10.9349 2.35156 10.9141C2.30469 10.888 2.2526 10.8516 2.19531 10.8047C2.04948 10.6953 1.89583 10.5391 1.73438 10.3359C1.57292 10.1276 1.41667 9.90625 1.26562 9.67188C1.11458 9.4375 0.976562 9.20312 0.851562 8.96875C0.726562 8.72917 0.630208 8.52344 0.5625 8.35156C0.380208 7.89323 0.242188 7.42708 0.148438 6.95312C0.0546875 6.47396 0.0078125 5.98958 0.0078125 5.5C0.0078125 5.01042 0.0546875 4.52865 0.148438 4.05469C0.242188 3.58073 0.380208 3.11458 0.5625 2.65625C0.640625 2.46354 0.739583 2.2526 0.859375 2.02344C0.979167 1.78906 1.10938 1.5599 1.25 1.33594C1.39583 1.10677 1.54948 0.893229 1.71094 0.695312C1.8724 0.492188 2.03385 0.325521 2.19531 0.195312C2.25781 0.143229 2.3099 0.106771 2.35156 0.0859375C2.39844 0.0598958 2.46615 0.046875 2.55469 0.046875C2.6901 0.046875 2.80729 0.0963542 2.90625 0.195312C3.00521 0.294271 3.05469 0.411458 3.05469 0.546875C3.05469 0.635417 3.04167 0.703125 3.01562 0.75C2.99479 0.791667 2.95833 0.84375 2.90625 0.90625C2.80208 1.04167 2.69271 1.16927 2.57812 1.28906C2.46354 1.40885 2.35417 1.53646 2.25 1.67188C1.84375 2.21875 1.53385 2.82292 1.32031 3.48438C1.10677 4.14583 1 4.81771 1 5.5ZM15 5.5C15 6.35417 14.8672 7.15885 14.6016 7.91406C14.3359 8.66927 13.9505 9.38802 13.4453 10.0703C13.3932 10.138 13.3281 10.2214 13.25 10.3203C13.1771 10.4193 13.0964 10.5156 13.0078 10.6094C12.9193 10.7031 12.8281 10.7839 12.7344 10.8516C12.6406 10.9141 12.5469 10.9453 12.4531 10.9453C12.3125 10.9453 12.1927 10.8984 12.0938 10.8047C11.9948 10.7057 11.9453 10.5859 11.9453 10.4453C11.9453 10.3724 11.9583 10.3099 11.9844 10.2578C12.0104 10.2057 12.0469 10.151 12.0938 10.0938C12.151 10.0208 12.2109 9.95312 12.2734 9.89062C12.3411 9.82812 12.4062 9.76302 12.4688 9.69531C12.7188 9.41927 12.9375 9.11458 13.125 8.78125C13.3177 8.44792 13.4766 8.10156 13.6016 7.74219C13.7318 7.3776 13.8307 7.00521 13.8984 6.625C13.9661 6.24479 14 5.86979 14 5.5C14 5.125 13.9661 4.75 13.8984 4.375C13.8307 3.99479 13.7318 3.625 13.6016 3.26562C13.4766 2.90625 13.3177 2.5599 13.125 2.22656C12.9375 1.89323 12.7188 1.58594 12.4688 1.30469C12.4115 1.23698 12.349 1.17188 12.2812 1.10938C12.2135 1.04688 12.151 0.979167 12.0938 0.90625C12.0469 0.848958 12.0104 0.794271 11.9844 0.742188C11.9583 0.684896 11.9453 0.619792 11.9453 0.546875C11.9453 0.40625 11.9948 0.289062 12.0938 0.195312C12.1979 0.0963542 12.3177 0.046875 12.4531 0.046875C12.5365 0.046875 12.599 0.0598958 12.6406 0.0859375C12.6875 0.106771 12.7422 0.143229 12.8047 0.195312C12.9714 0.330729 13.1354 0.5 13.2969 0.703125C13.4583 0.901042 13.6094 1.11198 13.75 1.33594C13.8958 1.55469 14.026 1.78125 14.1406 2.01562C14.2604 2.24479 14.3594 2.45833 14.4375 2.65625C14.6198 3.10938 14.7578 3.57552 14.8516 4.05469C14.9505 4.52865 15 5.01042 15 5.5ZM5.17188 2.67188C5.17188 2.75 5.15885 2.8151 5.13281 2.86719C5.10677 2.91406 5.07031 2.96615 5.02344 3.02344C4.86198 3.23177 4.71615 3.42708 4.58594 3.60938C4.46094 3.78646 4.35417 3.97135 4.26562 4.16406C4.18229 4.35156 4.11719 4.55469 4.07031 4.77344C4.02344 4.98698 4 5.22917 4 5.5C4 5.77083 4.02083 6.01562 4.0625 6.23438C4.10938 6.44792 4.17708 6.65104 4.26562 6.84375C4.35417 7.03125 4.46094 7.21615 4.58594 7.39844C4.71094 7.58073 4.85677 7.77344 5.02344 7.97656C5.07552 8.03906 5.11198 8.09375 5.13281 8.14062C5.15885 8.18229 5.17188 8.24479 5.17188 8.32812C5.17188 8.46354 5.1224 8.58073 5.02344 8.67969C4.92448 8.77865 4.80729 8.82812 4.67188 8.82812C4.59375 8.82812 4.52865 8.81771 4.47656 8.79688C4.42969 8.77083 4.3776 8.73177 4.32031 8.67969C4.11198 8.5026 3.92448 8.28906 3.75781 8.03906C3.59635 7.78385 3.45833 7.51302 3.34375 7.22656C3.23438 6.9401 3.14844 6.64844 3.08594 6.35156C3.02865 6.05469 3 5.77083 3 5.5C3 5.23438 3.02865 4.95312 3.08594 4.65625C3.14323 4.35417 3.22917 4.0599 3.34375 3.77344C3.45833 3.48177 3.59635 3.21094 3.75781 2.96094C3.91927 2.70573 4.10677 2.49219 4.32031 2.32031C4.3776 2.27344 4.42708 2.23698 4.46875 2.21094C4.51562 2.1849 4.58333 2.17188 4.67188 2.17188C4.80729 2.17188 4.92448 2.22135 5.02344 2.32031C5.1224 2.41927 5.17188 2.53646 5.17188 2.67188ZM12 5.5C12 5.77083 11.9688 6.05469 11.9062 6.35156C11.849 6.64844 11.763 6.9401 11.6484 7.22656C11.5391 7.51302 11.401 7.78385 11.2344 8.03906C11.0729 8.28906 10.888 8.5026 10.6797 8.67969C10.6224 8.73177 10.5677 8.77083 10.5156 8.79688C10.4688 8.81771 10.4062 8.82812 10.3281 8.82812C10.1927 8.82812 10.0755 8.77865 9.97656 8.67969C9.8776 8.58073 9.82812 8.46354 9.82812 8.32812C9.82812 8.25 9.84115 8.1875 9.86719 8.14062C9.89323 8.08854 9.92969 8.03385 9.97656 7.97656C10.138 7.77344 10.2812 7.58073 10.4062 7.39844C10.5312 7.21615 10.638 7.03125 10.7266 6.84375C10.8151 6.65104 10.8828 6.44792 10.9297 6.23438C10.9766 6.01562 11 5.77083 11 5.5C11 5.22917 10.9766 4.98698 10.9297 4.77344C10.8828 4.55469 10.8151 4.35156 10.7266 4.16406C10.6432 3.97135 10.5365 3.78646 10.4062 3.60938C10.2812 3.42708 10.138 3.23177 9.97656 3.02344C9.92969 2.96615 9.89323 2.91406 9.86719 2.86719C9.84115 2.8151 9.82812 2.75 9.82812 2.67188C9.82812 2.53646 9.8776 2.41927 9.97656 2.32031C10.0755 2.22135 10.1927 2.17188 10.3281 2.17188C10.4062 2.17188 10.4688 2.1849 10.5156 2.21094C10.5677 2.23177 10.6224 2.26823 10.6797 2.32031C10.8932 2.5026 11.0807 2.71875 11.2422 2.96875C11.4089 3.21875 11.5469 3.48698 11.6562 3.77344C11.7708 4.0599 11.8568 4.35156 11.9141 4.64844C11.9714 4.94531 12 5.22917 12 5.5ZM9 5.5C9 5.66146 8.97656 5.8151 8.92969 5.96094C8.88281 6.10677 8.8151 6.24219 8.72656 6.36719C8.63802 6.49219 8.53125 6.60156 8.40625 6.69531C8.28646 6.78906 8.15104 6.86198 8 6.91406V13.5C8 13.6354 7.95052 13.7526 7.85156 13.8516C7.7526 13.9505 7.63542 14 7.5 14C7.36458 14 7.2474 13.9505 7.14844 13.8516C7.04948 13.7526 7 13.6354 7 13.5V6.91406C6.84896 6.86198 6.71094 6.78906 6.58594 6.69531C6.46615 6.60156 6.36198 6.49219 6.27344 6.36719C6.1849 6.24219 6.11719 6.10677 6.07031 5.96094C6.02344 5.8151 6 5.66146 6 5.5C6 5.29688 6.03906 5.10417 6.11719 4.92188C6.19531 4.73958 6.30208 4.58073 6.4375 4.44531C6.57812 4.30469 6.73958 4.19531 6.92188 4.11719C7.10417 4.03906 7.29688 4 7.5 4C7.70312 4 7.89583 4.03906 8.07812 4.11719C8.26042 4.19531 8.41927 4.30469 8.55469 4.44531C8.69531 4.58073 8.80469 4.73958 8.88281 4.92188C8.96094 5.10417 9 5.29688 9 5.5ZM8 5.5C8 5.36458 7.95052 5.2474 7.85156 5.14844C7.7526 5.04948 7.63542 5 7.5 5C7.36458 5 7.2474 5.04948 7.14844 5.14844C7.04948 5.2474 7 5.36458 7 5.5C7 5.63542 7.04948 5.7526 7.14844 5.85156C7.2474 5.95052 7.36458 6 7.5 6C7.63542 6 7.7526 5.95052 7.85156 5.85156C7.95052 5.7526 8 5.63542 8 5.5Z" fill="black" fill-opacity="0.8956"/>
</svg>
