<svg width="16" height="11" viewBox="0 0 16 11" fill="none" xmlns="http://www.w3.org/2000/svg">
<path d="M1.96094 11C1.70052 11 1.45052 10.9479 1.21094 10.8438C0.976562 10.7344 0.768229 10.5911 0.585938 10.4141C0.408854 10.2318 0.265625 10.0234 0.15625 9.78906C0.0520833 9.54948 0 9.29948 0 9.03906V1.96094C0 1.70052 0.0520833 1.45312 0.15625 1.21875C0.265625 0.979167 0.408854 0.770833 0.585938 0.59375C0.768229 0.411458 0.976562 0.268229 1.21094 0.164062C1.45052 0.0546875 1.70052 0 1.96094 0H14.0391C14.2995 0 14.5469 0.0546875 14.7812 0.164062C15.0208 0.268229 15.2292 0.411458 15.4062 0.59375C15.5885 0.770833 15.7318 0.979167 15.8359 1.21875C15.9453 1.45312 16 1.70052 16 1.96094V9.03906C16 9.29948 15.9453 9.54948 15.8359 9.78906C15.7318 10.0234 15.5885 10.2318 15.4062 10.4141C15.2292 10.5911 15.0208 10.7344 14.7812 10.8438C14.5469 10.9479 14.2995 11 14.0391 11H1.96094ZM14 10C14.1406 10 14.2708 9.97396 14.3906 9.92188C14.5104 9.86979 14.6146 9.79948 14.7031 9.71094C14.7969 9.61719 14.8698 9.51042 14.9219 9.39062C14.974 9.27083 15 9.14062 15 9V2C15 1.86458 14.974 1.73698 14.9219 1.61719C14.8698 1.49219 14.7969 1.38542 14.7031 1.29688C14.6146 1.20312 14.5078 1.13021 14.3828 1.07812C14.263 1.02604 14.1354 1 14 1H2C1.85938 1 1.72917 1.02604 1.60938 1.07812C1.48958 1.13021 1.38281 1.20312 1.28906 1.29688C1.20052 1.38542 1.13021 1.48958 1.07812 1.60938C1.02604 1.72917 1 1.85938 1 2V9C1 9.14062 1.02604 9.27344 1.07812 9.39844C1.13021 9.51823 1.20052 9.6224 1.28906 9.71094C1.3776 9.79948 1.48177 9.86979 1.60156 9.92188C1.72656 9.97396 1.85938 10 2 10H14ZM2.5 3.25C2.5 3.04167 2.57292 2.86458 2.71875 2.71875C2.86458 2.57292 3.04167 2.5 3.25 2.5C3.45833 2.5 3.63542 2.57292 3.78125 2.71875C3.92708 2.86458 4 3.04167 4 3.25C4 3.45833 3.92708 3.63542 3.78125 3.78125C3.63542 3.92708 3.45833 4 3.25 4C3.04167 4 2.86458 3.92708 2.71875 3.78125C2.57292 3.63542 2.5 3.45833 2.5 3.25ZM5.5 3.25C5.5 3.04167 5.57292 2.86458 5.71875 2.71875C5.86458 2.57292 6.04167 2.5 6.25 2.5C6.45833 2.5 6.63542 2.57292 6.78125 2.71875C6.92708 2.86458 7 3.04167 7 3.25C7 3.45833 6.92708 3.63542 6.78125 3.78125C6.63542 3.92708 6.45833 4 6.25 4C6.04167 4 5.86458 3.92708 5.71875 3.78125C5.57292 3.63542 5.5 3.45833 5.5 3.25ZM8.5 3.25C8.5 3.04167 8.57292 2.86458 8.71875 2.71875C8.86458 2.57292 9.04167 2.5 9.25 2.5C9.45833 2.5 9.63542 2.57292 9.78125 2.71875C9.92708 2.86458 10 3.04167 10 3.25C10 3.45833 9.92708 3.63542 9.78125 3.78125C9.63542 3.92708 9.45833 4 9.25 4C9.04167 4 8.86458 3.92708 8.71875 3.78125C8.57292 3.63542 8.5 3.45833 8.5 3.25ZM11.5 3.25C11.5 3.04167 11.5729 2.86458 11.7188 2.71875C11.8646 2.57292 12.0417 2.5 12.25 2.5C12.4583 2.5 12.6354 2.57292 12.7812 2.71875C12.9271 2.86458 13 3.04167 13 3.25C13 3.45833 12.9271 3.63542 12.7812 3.78125C12.6354 3.92708 12.4583 4 12.25 4C12.0417 4 11.8646 3.92708 11.7188 3.78125C11.5729 3.63542 11.5 3.45833 11.5 3.25ZM4.5 6.25C4.5 6.04167 4.57292 5.86458 4.71875 5.71875C4.86458 5.57292 5.04167 5.5 5.25 5.5C5.45833 5.5 5.63542 5.57292 5.78125 5.71875C5.92708 5.86458 6 6.04167 6 6.25C6 6.45833 5.92708 6.63542 5.78125 6.78125C5.63542 6.92708 5.45833 7 5.25 7C5.04167 7 4.86458 6.92708 4.71875 6.78125C4.57292 6.63542 4.5 6.45833 4.5 6.25ZM7.5 6.25C7.5 6.04167 7.57292 5.86458 7.71875 5.71875C7.86458 5.57292 8.04167 5.5 8.25 5.5C8.45833 5.5 8.63542 5.57292 8.78125 5.71875C8.92708 5.86458 9 6.04167 9 6.25C9 6.45833 8.92708 6.63542 8.78125 6.78125C8.63542 6.92708 8.45833 7 8.25 7C8.04167 7 7.86458 6.92708 7.71875 6.78125C7.57292 6.63542 7.5 6.45833 7.5 6.25ZM10.5 6.25C10.5 6.04167 10.5729 5.86458 10.7188 5.71875C10.8646 5.57292 11.0417 5.5 11.25 5.5C11.4583 5.5 11.6354 5.57292 11.7812 5.71875C11.9271 5.86458 12 6.04167 12 6.25C12 6.45833 11.9271 6.63542 11.7812 6.78125C11.6354 6.92708 11.4583 7 11.25 7C11.0417 7 10.8646 6.92708 10.7188 6.78125C10.5729 6.63542 10.5 6.45833 10.5 6.25ZM3.5 9C3.36458 9 3.2474 8.95052 3.14844 8.85156C3.04948 8.7526 3 8.63542 3 8.5C3 8.36458 3.04948 8.2474 3.14844 8.14844C3.2474 8.04948 3.36458 8 3.5 8H12.5C12.6354 8 12.7526 8.04948 12.8516 8.14844C12.9505 8.2474 13 8.36458 13 8.5C13 8.63542 12.9505 8.7526 12.8516 8.85156C12.7526 8.95052 12.6354 9 12.5 9H3.5Z" fill="black" fill-opacity="0.8956"/>
</svg>
