<svg width="16" height="16" viewBox="0 0 16 16" fill="none" xmlns="http://www.w3.org/2000/svg">
<path d="M7.5 1.5V0.5C7.5 0.364583 7.54948 0.247396 7.64844 0.148438C7.7474 0.0494792 7.86458 0 8 0C8.13542 0 8.2526 0.0494792 8.35156 0.148438C8.45052 0.247396 8.5 0.364583 8.5 0.5V1.5C8.5 1.63542 8.45052 1.7526 8.35156 1.85156C8.2526 1.95052 8.13542 2 8 2C7.86458 2 7.7474 1.95052 7.64844 1.85156C7.54948 1.7526 7.5 1.63542 7.5 1.5ZM4 3.5C4 3.63542 3.95052 3.7526 3.85156 3.85156C3.7526 3.95052 3.63542 4 3.5 4C3.36458 4 3.2474 3.95052 3.14844 3.85156L2.14844 2.85156C2.04948 2.7526 2 2.63542 2 2.5C2 2.36458 2.04948 2.2474 2.14844 2.14844C2.2474 2.04948 2.36458 2 2.5 2C2.63542 2 2.7526 2.04948 2.85156 2.14844L3.85156 3.14844C3.95052 3.2474 4 3.36458 4 3.5ZM13.5 2C13.6354 2 13.7526 2.04948 13.8516 2.14844C13.9505 2.2474 14 2.36458 14 2.5C14 2.63542 13.9505 2.7526 13.8516 2.85156L12.8516 3.85156C12.7526 3.95052 12.6354 4 12.5 4C12.3646 4 12.2474 3.95052 12.1484 3.85156C12.0495 3.7526 12 3.63542 12 3.5C12 3.36458 12.0495 3.2474 12.1484 3.14844L13.1484 2.14844C13.2474 2.04948 13.3646 2 13.5 2ZM12 8V8.07812C12 8.61979 11.8906 9.13021 11.6719 9.60938C11.4583 10.0833 11.1667 10.4974 10.7969 10.8516C10.4323 11.2057 10.0078 11.487 9.52344 11.6953C9.04427 11.8984 8.53646 12 8 12C7.44792 12 6.92708 11.8958 6.4375 11.6875C5.95312 11.4792 5.52865 11.1953 5.16406 10.8359C4.80469 10.4714 4.52083 10.0469 4.3125 9.5625C4.10417 9.07292 4 8.55208 4 8C4 7.44792 4.10417 6.92969 4.3125 6.44531C4.52083 5.95573 4.80469 5.53125 5.16406 5.17188C5.52865 4.80729 5.95312 4.52083 6.4375 4.3125C6.92708 4.10417 7.44792 4 8 4C8.55208 4 9.07031 4.10417 9.55469 4.3125C10.0443 4.52083 10.4688 4.80729 10.8281 5.17188C11.1927 5.53125 11.4792 5.95573 11.6875 6.44531C11.8958 6.92969 12 7.44792 12 8ZM5.36719 9.44531C5.48698 9.46615 5.60156 9.48177 5.71094 9.49219C5.82552 9.4974 5.94271 9.5 6.0625 9.5C6.52083 9.5 6.95573 9.40625 7.36719 9.21875C7.78385 9.03125 8.14844 8.78125 8.46094 8.46875C8.77865 8.15104 9.03125 7.78646 9.21875 7.375C9.40625 6.95833 9.5 6.52083 9.5 6.0625C9.5 5.94271 9.49479 5.82812 9.48438 5.71875C9.47917 5.60417 9.46615 5.48698 9.44531 5.36719C9.20052 5.23177 8.95573 5.13802 8.71094 5.08594C8.47135 5.02865 8.21354 5 7.9375 5C7.54688 5 7.17188 5.08073 6.8125 5.24219C6.45833 5.39844 6.14583 5.61198 5.875 5.88281C5.60938 6.14844 5.39583 6.46094 5.23438 6.82031C5.07812 7.17448 5 7.54688 5 7.9375C5 8.21354 5.02604 8.47396 5.07812 8.71875C5.13542 8.95833 5.23177 9.20052 5.36719 9.44531ZM1.5 7.5C1.63542 7.5 1.7526 7.54948 1.85156 7.64844C1.95052 7.7474 2 7.86458 2 8C2 8.13542 1.95052 8.2526 1.85156 8.35156C1.7526 8.45052 1.63542 8.5 1.5 8.5H0.5C0.364583 8.5 0.247396 8.45052 0.148438 8.35156C0.0494792 8.2526 0 8.13542 0 8C0 7.86458 0.0494792 7.7474 0.148438 7.64844C0.247396 7.54948 0.364583 7.5 0.5 7.5H1.5ZM15.5 7.5C15.6354 7.5 15.7526 7.54948 15.8516 7.64844C15.9505 7.7474 16 7.86458 16 8C16 8.13542 15.9505 8.2526 15.8516 8.35156C15.7526 8.45052 15.6354 8.5 15.5 8.5H14.5C14.3646 8.5 14.2474 8.45052 14.1484 8.35156C14.0495 8.2526 14 8.13542 14 8C14 7.86458 14.0495 7.7474 14.1484 7.64844C14.2474 7.54948 14.3646 7.5 14.5 7.5H15.5ZM3.5 12C3.63542 12 3.7526 12.0495 3.85156 12.1484C3.95052 12.2474 4 12.3646 4 12.5C4 12.6354 3.95052 12.7526 3.85156 12.8516L2.85156 13.8516C2.7526 13.9505 2.63542 14 2.5 14C2.36458 14 2.2474 13.9505 2.14844 13.8516C2.04948 13.7526 2 13.6354 2 13.5C2 13.3646 2.04948 13.2474 2.14844 13.1484L3.14844 12.1484C3.2474 12.0495 3.36458 12 3.5 12ZM14 13.5C14 13.6354 13.9505 13.7526 13.8516 13.8516C13.7526 13.9505 13.6354 14 13.5 14C13.3646 14 13.2474 13.9505 13.1484 13.8516L12.1484 12.8516C12.0495 12.7526 12 12.6354 12 12.5C12 12.3646 12.0495 12.2474 12.1484 12.1484C12.2474 12.0495 12.3646 12 12.5 12C12.6354 12 12.7526 12.0495 12.8516 12.1484L13.8516 13.1484C13.9505 13.2474 14 13.3646 14 13.5ZM8.5 14.5V15.5C8.5 15.6354 8.45052 15.7526 8.35156 15.8516C8.2526 15.9505 8.13542 16 8 16C7.86458 16 7.7474 15.9505 7.64844 15.8516C7.54948 15.7526 7.5 15.6354 7.5 15.5V14.5C7.5 14.3646 7.54948 14.2474 7.64844 14.1484C7.7474 14.0495 7.86458 14 8 14C8.13542 14 8.2526 14.0495 8.35156 14.1484C8.45052 14.2474 8.5 14.3646 8.5 14.5Z" fill="black" fill-opacity="0.8956"/>
</svg>
