<svg xmlns="http://www.w3.org/2000/svg" width="14" height="16" viewBox="0 0 14 16" fill="none">
  <path d="M6.99766 0C10.1466 0 12.7416 2.33488 12.9821 5.3554L12.9955 5.57762L13 5.80214L12.999 9.398L13.9244 11.6202C13.947 11.6743 13.9647 11.7302 13.9774 11.7871L13.9926 11.8733L14.0013 12.0046C14.0013 12.4526 13.7048 12.8387 13.2521 12.9677L13.1358 12.9945L13.0013 13.0046L9.49961 13.004L9.49464 13.1653C9.40952 14.469 8.32518 15.5 7.00002 15.5C5.67453 15.5 4.58998 14.4685 4.50533 13.1644L4.49962 13.004L0.998909 13.0046C0.910957 13.0046 0.823585 12.993 0.739022 12.9702L0.614563 12.9277C0.203781 12.7567 -0.038188 12.3392 0.012213 11.8757L0.0333004 11.7483L0.0757196 11.6202L0.999016 9.401L1.0001 5.79281L1.0044 5.56824C1.12702 2.45115 3.77104 0 6.99766 0ZM8.49961 13.004H5.49962L5.50697 13.1454C5.57552 13.8581 6.14275 14.425 6.85556 14.4931L7.00002 14.5C7.77971 14.5 8.42046 13.9051 8.49315 13.1445L8.49961 13.004ZM6.99766 1C4.37511 1 2.22717 2.92372 2.01715 5.38498L2.00393 5.59723L2.00002 5.80214V9.5L1.96161 9.69217L0.998898 12.0046L12.9566 12.0066L13.0019 12.0045L12.0384 9.6922L12 9.5L12.0001 5.81241L11.996 5.60831C11.8909 3.0349 9.69466 1 6.99766 1Z" fill="black" fill-opacity="0.8956"/>
</svg>