<svg width="16" height="12" viewBox="0 0 16 12" fill="none" xmlns="http://www.w3.org/2000/svg">
<path d="M14.0391 0C14.2995 0 14.5469 0.0546875 14.7812 0.164062C15.0208 0.268229 15.2292 0.411458 15.4062 0.59375C15.5885 0.770833 15.7318 0.979167 15.8359 1.21875C15.9453 1.45312 16 1.70052 16 1.96094V7.03906C16 7.3099 15.9453 7.5651 15.8359 7.80469C15.7266 8.03906 15.5807 8.24479 15.3984 8.42188C15.2161 8.59896 15.0026 8.73958 14.7578 8.84375C14.5182 8.94792 14.2656 9 14 9H10.9141C10.862 9.15104 10.7891 9.28906 10.6953 9.41406C10.6016 9.53385 10.4922 9.63802 10.3672 9.72656C10.2422 9.8151 10.1068 9.88281 9.96094 9.92969C9.8151 9.97656 9.66146 10 9.5 10H2.5C2.29688 10 2.10417 9.96094 1.92188 9.88281C1.73958 9.80469 1.57812 9.69792 1.4375 9.5625C1.30208 9.42188 1.19531 9.26042 1.11719 9.07812C1.03906 8.89583 1 8.70312 1 8.5V4.5C1 4.29688 1.03906 4.10417 1.11719 3.92188C1.19531 3.73958 1.30208 3.58073 1.4375 3.44531C1.57812 3.30469 1.73958 3.19531 1.92188 3.11719C2.10417 3.03906 2.29688 3 2.5 3H4V1.96094C4 1.70052 4.05208 1.45312 4.15625 1.21875C4.26562 0.979167 4.40885 0.770833 4.58594 0.59375C4.76823 0.411458 4.97656 0.268229 5.21094 0.164062C5.45052 0.0546875 5.70052 0 5.96094 0H14.0391ZM15 2C15 1.86458 14.974 1.73698 14.9219 1.61719C14.8698 1.49219 14.7969 1.38542 14.7031 1.29688C14.6146 1.20312 14.5078 1.13021 14.3828 1.07812C14.263 1.02604 14.1354 1 14 1H6C5.85938 1 5.72917 1.02604 5.60938 1.07812C5.48958 1.13021 5.38281 1.20312 5.28906 1.29688C5.20052 1.38542 5.13021 1.48958 5.07812 1.60938C5.02604 1.72917 5 1.85938 5 2V3H9.5C9.70312 3 9.89583 3.03906 10.0781 3.11719C10.2604 3.19531 10.4193 3.30469 10.5547 3.44531C10.6953 3.58073 10.8047 3.73958 10.8828 3.92188C10.9609 4.10417 11 4.29688 11 4.5V8H14C14.1406 8 14.2708 7.97396 14.3906 7.92188C14.5104 7.86979 14.6146 7.79948 14.7031 7.71094C14.7969 7.61719 14.8698 7.51042 14.9219 7.39062C14.974 7.27083 15 7.14062 15 7V2ZM10 4.5C10 4.36458 9.95052 4.2474 9.85156 4.14844C9.7526 4.04948 9.63542 4 9.5 4H2.5C2.36458 4 2.2474 4.04948 2.14844 4.14844C2.04948 4.2474 2 4.36458 2 4.5V8.5C2 8.63542 2.04948 8.7526 2.14844 8.85156C2.2474 8.95052 2.36458 9 2.5 9H9.5C9.63542 9 9.7526 8.95052 9.85156 8.85156C9.95052 8.7526 10 8.63542 10 8.5V4.5ZM11.5 11C11.6354 11 11.7526 11.0495 11.8516 11.1484C11.9505 11.2474 12 11.3646 12 11.5C12 11.6354 11.9505 11.7526 11.8516 11.8516C11.7526 11.9505 11.6354 12 11.5 12H0.5C0.364583 12 0.247396 11.9505 0.148438 11.8516C0.0494792 11.7526 0 11.6354 0 11.5C0 11.3646 0.0494792 11.2474 0.148438 11.1484C0.247396 11.0495 0.364583 11 0.5 11H11.5Z" fill="black" fill-opacity="0.8956"/>
</svg>
