<svg width="15" height="14" viewBox="0 0 15 14" fill="none" xmlns="http://www.w3.org/2000/svg">
<path d="M9.5625 10C9.40104 10 9.26562 9.94271 9.15625 9.82812C9.05208 9.71354 9 9.57812 9 9.42188V7.32812C8.83333 7.34375 8.66667 7.36198 8.5 7.38281C8.33333 7.39844 8.16667 7.42708 8 7.46875C7.55729 7.57292 7.14062 7.69792 6.75 7.84375C6.36458 7.98958 5.99219 8.16146 5.63281 8.35938C5.27865 8.55208 4.93229 8.77083 4.59375 9.01562C4.25521 9.26042 3.91927 9.53125 3.58594 9.82812C3.52865 9.875 3.46875 9.91406 3.40625 9.94531C3.34375 9.97135 3.27604 9.98438 3.20312 9.98438C3.03646 9.98438 2.89844 9.92708 2.78906 9.8125C2.67969 9.69271 2.625 9.55208 2.625 9.39062V9.34375C2.74479 8.40104 2.95312 7.53385 3.25 6.74219C3.55208 5.95052 3.96094 5.26562 4.47656 4.6875C4.99219 4.10938 5.6224 3.64844 6.36719 3.30469C7.11198 2.96094 7.98958 2.76302 9 2.71094V0.578125C9 0.421875 9.05208 0.289062 9.15625 0.179688C9.26042 0.0651042 9.39323 0.0078125 9.55469 0.0078125C9.71615 0.0078125 9.84896 0.0598958 9.95312 0.164062L14.4531 4.58594C14.5104 4.64323 14.5521 4.71094 14.5781 4.78906C14.6042 4.86198 14.6172 4.9375 14.6172 5.01562C14.6172 5.17188 14.5625 5.30469 14.4531 5.41406L9.95312 9.83594C9.84375 9.94531 9.71354 10 9.5625 10ZM2.44531 14C2.11719 14 1.80469 13.9349 1.50781 13.8047C1.21094 13.6693 0.950521 13.4922 0.726562 13.2734C0.507812 13.0495 0.330729 12.7891 0.195312 12.4922C0.0651042 12.1953 0 11.8828 0 11.5547V3.44531C0 3.11719 0.0651042 2.80469 0.195312 2.50781C0.330729 2.21094 0.507812 1.95312 0.726562 1.73438C0.950521 1.51042 1.21094 1.33333 1.50781 1.20312C1.80469 1.06771 2.11719 1 2.44531 1H5.5C5.63542 1 5.7526 1.04948 5.85156 1.14844C5.95052 1.2474 6 1.36458 6 1.5C6 1.63542 5.95052 1.7526 5.85156 1.85156C5.7526 1.95052 5.63542 2 5.5 2H2.5C2.29688 2 2.10417 2.03906 1.92188 2.11719C1.73958 2.19531 1.57812 2.30469 1.4375 2.44531C1.30208 2.58073 1.19531 2.73958 1.11719 2.92188C1.03906 3.10417 1 3.29688 1 3.5V11.5C1 11.7031 1.03906 11.8958 1.11719 12.0781C1.19531 12.2604 1.30208 12.4219 1.4375 12.5625C1.57812 12.6979 1.73958 12.8047 1.92188 12.8828C2.10417 12.9609 2.29688 13 2.5 13H10.5C10.7031 13 10.8958 12.9609 11.0781 12.8828C11.2604 12.8047 11.4193 12.6979 11.5547 12.5625C11.6953 12.4219 11.8047 12.2604 11.8828 12.0781C11.9609 11.8958 12 11.7031 12 11.5V10.5C12 10.3646 12.0495 10.2474 12.1484 10.1484C12.2474 10.0495 12.3646 10 12.5 10C12.6354 10 12.7526 10.0495 12.8516 10.1484C12.9505 10.2474 13 10.3646 13 10.5V11.5C13 11.8333 12.9349 12.151 12.8047 12.4531C12.6797 12.7552 12.5052 13.0208 12.2812 13.25C12.0625 13.4792 11.8047 13.6615 11.5078 13.7969C11.2109 13.9323 10.8932 14 10.5547 14H2.44531ZM10 8.39062L13.4453 5L10 1.60938V3.64062L8.85156 3.71875C8.17448 3.76042 7.52865 3.90625 6.91406 4.15625C6.29948 4.40625 5.75781 4.78385 5.28906 5.28906C5.10156 5.49219 4.92708 5.71615 4.76562 5.96094C4.60938 6.20052 4.46875 6.45312 4.34375 6.71875C4.21875 6.98438 4.10938 7.25781 4.01562 7.53906C3.92708 7.8151 3.85938 8.08854 3.8125 8.35938C4.52083 7.79688 5.27865 7.35156 6.08594 7.02344C6.89323 6.69531 7.74219 6.47135 8.63281 6.35156C8.85677 6.32031 9.08333 6.29948 9.3125 6.28906C9.54167 6.27344 9.77083 6.25521 10 6.23438V8.39062Z" fill="white"/>
</svg>
