<svg width="16" height="16" viewBox="0 0 16 16" fill="none" xmlns="http://www.w3.org/2000/svg">
<path d="M7.5 1.5V0.5C7.5 0.364583 7.54948 0.247396 7.64844 0.148438C7.7474 0.0494792 7.86458 0 8 0C8.13542 0 8.2526 0.0494792 8.35156 0.148438C8.45052 0.247396 8.5 0.364583 8.5 0.5V1.5C8.5 1.63542 8.45052 1.7526 8.35156 1.85156C8.2526 1.95052 8.13542 2 8 2C7.86458 2 7.7474 1.95052 7.64844 1.85156C7.54948 1.7526 7.5 1.63542 7.5 1.5ZM2 2.5C2 2.36458 2.04948 2.2474 2.14844 2.14844C2.2474 2.04948 2.36458 2 2.5 2C2.63542 2 2.7526 2.04948 2.85156 2.14844L3.85156 3.14844C3.95052 3.2474 4 3.36458 4 3.5C4 3.63542 3.95052 3.7526 3.85156 3.85156C3.7526 3.95052 3.63542 4 3.5 4C3.36458 4 3.2474 3.95052 3.14844 3.85156L2.14844 2.85156C2.04948 2.7526 2 2.63542 2 2.5ZM12 3.5C12 3.36458 12.0495 3.2474 12.1484 3.14844L13.1484 2.14844C13.2474 2.04948 13.3646 2 13.5 2C13.6354 2 13.7526 2.04948 13.8516 2.14844C13.9505 2.2474 14 2.36458 14 2.5C14 2.63542 13.9505 2.7526 13.8516 2.85156L12.8516 3.85156C12.7526 3.95052 12.6354 4 12.5 4C12.3646 4 12.2474 3.95052 12.1484 3.85156C12.0495 3.7526 12 3.63542 12 3.5ZM4 8V7.92188C4 7.38021 4.10677 6.8724 4.32031 6.39844C4.53906 5.91927 4.83073 5.5026 5.19531 5.14844C5.5651 4.79427 5.98958 4.51562 6.46875 4.3125C6.95312 4.10417 7.46354 4 8 4C8.55208 4 9.07031 4.10417 9.55469 4.3125C10.0443 4.52083 10.4688 4.80729 10.8281 5.17188C11.1927 5.53125 11.4792 5.95573 11.6875 6.44531C11.8958 6.92969 12 7.44792 12 8C12 8.55208 11.8958 9.07292 11.6875 9.5625C11.4792 10.0469 11.1927 10.4714 10.8281 10.8359C10.4688 11.1953 10.0443 11.4792 9.55469 11.6875C9.07031 11.8958 8.55208 12 8 12C7.44792 12 6.92708 11.8958 6.4375 11.6875C5.95312 11.4792 5.52865 11.1953 5.16406 10.8359C4.80469 10.4714 4.52083 10.0469 4.3125 9.5625C4.10417 9.07292 4 8.55208 4 8ZM11 8V7.9375C11 7.53125 10.9193 7.15104 10.7578 6.79688C10.5964 6.4375 10.3776 6.125 10.1016 5.85938C9.82552 5.59375 9.50521 5.38542 9.14062 5.23438C8.78125 5.07812 8.40104 5 8 5C7.58333 5 7.19271 5.07812 6.82812 5.23438C6.46354 5.39062 6.14583 5.60417 5.875 5.875C5.60417 6.14583 5.39062 6.46354 5.23438 6.82812C5.07812 7.19271 5 7.58333 5 8C5 8.41667 5.07812 8.80729 5.23438 9.17188C5.39062 9.53646 5.60417 9.85417 5.875 10.125C6.14583 10.3958 6.46354 10.6094 6.82812 10.7656C7.19271 10.9219 7.58333 11 8 11C8.41667 11 8.80729 10.9219 9.17188 10.7656C9.53646 10.6094 9.85417 10.3958 10.125 10.125C10.3958 9.85417 10.6094 9.53646 10.7656 9.17188C10.9219 8.80729 11 8.41667 11 8ZM0.5 8.5C0.364583 8.5 0.247396 8.45052 0.148438 8.35156C0.0494792 8.2526 0 8.13542 0 8C0 7.86458 0.0494792 7.7474 0.148438 7.64844C0.247396 7.54948 0.364583 7.5 0.5 7.5H1.5C1.63542 7.5 1.7526 7.54948 1.85156 7.64844C1.95052 7.7474 2 7.86458 2 8C2 8.13542 1.95052 8.2526 1.85156 8.35156C1.7526 8.45052 1.63542 8.5 1.5 8.5H0.5ZM14.5 8.5C14.3646 8.5 14.2474 8.45052 14.1484 8.35156C14.0495 8.2526 14 8.13542 14 8C14 7.86458 14.0495 7.7474 14.1484 7.64844C14.2474 7.54948 14.3646 7.5 14.5 7.5H15.5C15.6354 7.5 15.7526 7.54948 15.8516 7.64844C15.9505 7.7474 16 7.86458 16 8C16 8.13542 15.9505 8.2526 15.8516 8.35156C15.7526 8.45052 15.6354 8.5 15.5 8.5H14.5ZM2 13.5C2 13.3646 2.04948 13.2474 2.14844 13.1484L3.14844 12.1484C3.2474 12.0495 3.36458 12 3.5 12C3.63542 12 3.7526 12.0495 3.85156 12.1484C3.95052 12.2474 4 12.3646 4 12.5C4 12.6354 3.95052 12.7526 3.85156 12.8516L2.85156 13.8516C2.7526 13.9505 2.63542 14 2.5 14C2.36458 14 2.2474 13.9505 2.14844 13.8516C2.04948 13.7526 2 13.6354 2 13.5ZM12 12.5C12 12.3646 12.0495 12.2474 12.1484 12.1484C12.2474 12.0495 12.3646 12 12.5 12C12.6354 12 12.7526 12.0495 12.8516 12.1484L13.8516 13.1484C13.9505 13.2474 14 13.3646 14 13.5C14 13.6354 13.9505 13.7526 13.8516 13.8516C13.7526 13.9505 13.6354 14 13.5 14C13.3646 14 13.2474 13.9505 13.1484 13.8516L12.1484 12.8516C12.0495 12.7526 12 12.6354 12 12.5ZM7.5 15.5V14.5C7.5 14.3646 7.54948 14.2474 7.64844 14.1484C7.7474 14.0495 7.86458 14 8 14C8.13542 14 8.2526 14.0495 8.35156 14.1484C8.45052 14.2474 8.5 14.3646 8.5 14.5V15.5C8.5 15.6354 8.45052 15.7526 8.35156 15.8516C8.2526 15.9505 8.13542 16 8 16C7.86458 16 7.7474 15.9505 7.64844 15.8516C7.54948 15.7526 7.5 15.6354 7.5 15.5Z" fill="black" fill-opacity="0.8956"/>
</svg>
