<svg width="302" height="240" viewBox="0 0 302 240" fill="none" xmlns="http://www.w3.org/2000/svg">
<rect x="1" y="1" width="300" height="308" rx="7" fill="url(#paint0_linear_2361_5489)"/>
<rect x="0.5" y="0.5" width="301" height="309" rx="7.5" stroke="black" stroke-opacity="0.0305"/>
<path d="M25.5 66.1406C24.3008 66.1406 23.332 65.75 22.5938 64.9688C21.8594 64.1836 21.4922 63.1621 21.4922 61.9043C21.4922 60.5645 21.8672 59.4883 22.6172 58.6758C23.3672 57.8633 24.373 57.457 25.6348 57.457C26.8145 57.457 27.7656 57.8496 28.4883 58.6348C29.2109 59.416 29.5723 60.4434 29.5723 61.7168C29.5723 63.0645 29.1992 64.1387 28.4531 64.9395C27.7109 65.7402 26.7266 66.1406 25.5 66.1406ZM25.5176 64.9219C26.3145 64.9219 26.9453 64.6504 27.4102 64.1074C27.875 63.5605 28.1074 62.8027 28.1074 61.834C28.1074 60.8379 27.8809 60.0645 27.4277 59.5137C26.9785 58.959 26.3613 58.6816 25.5762 58.6816C24.791 58.6816 24.1582 58.9688 23.6777 59.543C23.1973 60.1172 22.957 60.873 22.957 61.8105C22.957 62.7559 23.1934 63.5117 23.666 64.0781C24.1387 64.6406 24.7559 64.9219 25.5176 64.9219ZM35.4844 65.584C35.1875 65.7793 34.8887 65.9199 34.5879 66.0059C34.2871 66.0957 33.9609 66.1406 33.6094 66.1406C32.6836 66.1406 31.9434 65.8711 31.3887 65.332C30.8379 64.7891 30.5625 64.0566 30.5625 63.1348C30.5625 62.1387 30.8496 61.3438 31.4238 60.75C31.998 60.1562 32.7695 59.8594 33.7383 59.8594C34.0859 59.8594 34.4043 59.9004 34.6934 59.9824C34.9824 60.0605 35.2695 60.1895 35.5547 60.3691L34.9863 61.2949C34.7832 61.1738 34.584 61.0859 34.3887 61.0312C34.1934 60.9727 33.9785 60.9434 33.7441 60.9434C33.1738 60.9434 32.7324 61.1328 32.4199 61.5117C32.1074 61.8906 31.9512 62.3926 31.9512 63.0176C31.9512 63.6738 32.1191 64.1777 32.4551 64.5293C32.7949 64.8809 33.2207 65.0566 33.7324 65.0566C33.8926 65.0566 34.0742 65.0273 34.2773 64.9688C34.4844 64.9062 34.6914 64.8086 34.8984 64.6758L35.4844 65.584ZM39.9199 65.9004C39.7441 65.9785 39.5586 66.0371 39.3633 66.0762C39.1719 66.1152 38.9629 66.1348 38.7363 66.1348C38.1816 66.1348 37.7539 65.9883 37.4531 65.6953C37.1562 65.3984 37.0078 64.959 37.0078 64.377V61.0664H36V60H37.0078V58.541L38.3672 58.1426V60H39.8086V61.0664H38.3672V64.2656C38.3672 64.5586 38.4199 64.7695 38.5254 64.8984C38.6348 65.0234 38.8027 65.0859 39.0293 65.0859C39.1348 65.0859 39.2363 65.0742 39.334 65.0508C39.4355 65.0234 39.5273 64.9883 39.6094 64.9453L39.9199 65.9004ZM43.6523 66.1406C42.7148 66.1406 41.9707 65.8613 41.4199 65.3027C40.8691 64.7402 40.5938 63.9883 40.5938 63.0469C40.5977 62.0547 40.8828 61.2754 41.4492 60.709C42.0195 60.1426 42.793 59.8594 43.7695 59.8594C44.7109 59.8555 45.4453 60.1328 45.9727 60.6914C46.5039 61.25 46.7695 62.002 46.7695 62.9473C46.7695 63.9199 46.4883 64.6953 45.9258 65.2734C45.3672 65.8516 44.6094 66.1406 43.6523 66.1406ZM43.7168 65.0566C44.2598 65.0566 44.6719 64.8789 44.9531 64.5234C45.2383 64.1641 45.3809 63.6504 45.3809 62.9824C45.3809 62.3223 45.2383 61.8184 44.9531 61.4707C44.668 61.1191 44.2539 60.9434 43.7109 60.9434C43.1758 60.9434 42.7539 61.1289 42.4453 61.5C42.1367 61.8672 41.9824 62.373 41.9824 63.0176C41.9824 63.6699 42.1348 64.1738 42.4395 64.5293C42.748 64.8809 43.1738 65.0566 43.7168 65.0566ZM49.541 65.2676H49.5176V66H48.1523V57.1172H49.5176V60.9727H49.541C49.7715 60.6016 50.0547 60.3242 50.3906 60.1406C50.7266 59.9531 51.1152 59.8594 51.5566 59.8594C52.334 59.8594 52.9355 60.127 53.3613 60.6621C53.791 61.1934 54.0059 61.9141 54.0059 62.8242C54.0059 63.8281 53.7598 64.6328 53.2676 65.2383C52.7793 65.8398 52.1191 66.1406 51.2871 66.1406C50.9043 66.1406 50.5664 66.0684 50.2734 65.9238C49.9805 65.7754 49.7363 65.5566 49.541 65.2676ZM49.5 62.7422V63.4746C49.5 63.9238 49.6387 64.3008 49.916 64.6055C50.1973 64.9062 50.5527 65.0566 50.9824 65.0566C51.4941 65.0566 51.8926 64.8613 52.1777 64.4707C52.4629 64.0801 52.6055 63.5352 52.6055 62.8359C52.6055 62.2383 52.4727 61.7734 52.207 61.4414C51.9414 61.1094 51.5762 60.9434 51.1113 60.9434C50.6348 60.9434 50.2461 61.1133 49.9453 61.4531C49.6484 61.7891 49.5 62.2188 49.5 62.7422ZM60.4688 63.3574H56.3672C56.3906 63.9238 56.5547 64.3555 56.8594 64.6523C57.1641 64.9453 57.5879 65.0918 58.1309 65.0918C58.3574 65.0918 58.6113 65.0449 58.8926 64.9512C59.1777 64.8574 59.4551 64.709 59.7246 64.5059L60.3633 65.3379C60 65.6152 59.625 65.8184 59.2383 65.9473C58.8555 66.0762 58.4297 66.1406 57.9609 66.1406C57.0312 66.1406 56.3047 65.873 55.7812 65.3379C55.2617 64.7988 55 64.0469 54.9961 63.082C54.9961 62.1211 55.2656 61.3438 55.8047 60.75C56.3438 60.1562 57.0312 59.8594 57.8672 59.8594C58.6758 59.8594 59.3105 60.1133 59.7715 60.6211C60.2363 61.125 60.4688 61.8398 60.4688 62.7656V63.3574ZM59.1504 62.4082C59.1504 61.8965 59.0371 61.5117 58.8105 61.2539C58.5879 60.9922 58.2715 60.8613 57.8613 60.8613C57.4707 60.8613 57.1387 61.002 56.8652 61.2832C56.5957 61.5605 56.4297 61.9355 56.3672 62.4082H59.1504ZM65.1035 61.1484C65.0293 61.125 64.9551 61.1094 64.8809 61.1016C64.8105 61.0898 64.7305 61.084 64.6406 61.084C64.1562 61.084 63.7832 61.2637 63.5215 61.623C63.2598 61.9824 63.1289 62.4512 63.1289 63.0293V66H61.7637V60H63.1289V61.1484H63.1523C63.293 60.7383 63.5 60.4277 63.7734 60.2168C64.0469 60.002 64.3691 59.8945 64.7402 59.8945C64.8496 59.8945 64.9473 59.9004 65.0332 59.9121C65.1191 59.9238 65.2031 59.9434 65.2852 59.9707L65.1035 61.1484Z" fill="black" fill-opacity="0.6063"/>
<rect x="173.5" y="49.5" width="23" height="23" rx="11.5" fill="#005FB7" stroke="#005FB7"/>
<path d="M179.152 66V65.5605C179.152 65.1973 179.195 64.875 179.281 64.5938C179.367 64.3125 179.502 64.0488 179.686 63.8027C179.865 63.5527 180.1 63.3066 180.389 63.0645C180.678 62.8223 181.025 62.5527 181.432 62.2559C181.729 62.0449 181.979 61.8418 182.182 61.6465C182.385 61.4512 182.549 61.2559 182.674 61.0605C182.787 60.8965 182.873 60.709 182.932 60.498C182.994 60.2871 183.025 60.0684 183.025 59.8418C183.025 59.3965 182.896 59.0332 182.639 58.752C182.381 58.4707 182.025 58.3301 181.572 58.3301C181.209 58.3301 180.861 58.4043 180.529 58.5527C180.201 58.6973 179.895 58.918 179.609 59.2148L178.977 58.5996C179.352 58.2129 179.756 57.9258 180.189 57.7383C180.627 57.5508 181.113 57.457 181.648 57.457C182.438 57.457 183.041 57.6875 183.459 58.1484C183.877 58.6055 184.086 59.1367 184.086 59.7422C184.086 60.0703 184.041 60.3789 183.951 60.668C183.865 60.9531 183.746 61.209 183.594 61.4355C183.434 61.6777 183.238 61.9102 183.008 62.1328C182.777 62.3516 182.508 62.5742 182.199 62.8008C181.824 63.0625 181.512 63.2871 181.262 63.4746C181.016 63.6621 180.818 63.8379 180.67 64.002C180.521 64.1738 180.414 64.3438 180.348 64.5117C180.285 64.6758 180.254 64.8633 180.254 65.0742H184.379V66H179.152ZM190.994 63.3281C190.994 64.1758 190.742 64.8574 190.238 65.373C189.734 65.8887 189.102 66.1465 188.34 66.1465C187.492 66.1465 186.826 65.8145 186.342 65.1504C185.861 64.4863 185.621 63.5352 185.621 62.2969C185.621 61.6836 185.68 61.0684 185.797 60.4512C185.918 59.8301 186.158 59.2676 186.518 58.7637C186.842 58.3105 187.209 57.9805 187.619 57.7734C188.029 57.5625 188.514 57.457 189.072 57.457C189.369 57.457 189.66 57.5039 189.945 57.5977C190.23 57.6875 190.514 57.834 190.795 58.0371L190.262 58.7461C190.066 58.6016 189.869 58.4961 189.67 58.4297C189.475 58.3633 189.256 58.3301 189.014 58.3301C188.67 58.3301 188.363 58.4023 188.094 58.5469C187.824 58.6875 187.568 58.9199 187.326 59.2441C187.119 59.5293 186.961 59.8789 186.852 60.293C186.742 60.707 186.688 61.1641 186.688 61.6641H186.711C186.949 61.3516 187.234 61.1191 187.566 60.9668C187.902 60.8105 188.252 60.7324 188.615 60.7324C189.334 60.7324 189.91 60.9746 190.344 61.459C190.777 61.9395 190.994 62.5625 190.994 63.3281ZM189.945 63.3984C189.945 62.8008 189.807 62.3516 189.529 62.0508C189.256 61.7461 188.898 61.5938 188.457 61.5938C187.934 61.5938 187.518 61.7578 187.209 62.0859C186.9 62.4102 186.746 62.8008 186.746 63.2578C186.746 63.8477 186.896 64.3301 187.197 64.7051C187.498 65.0801 187.891 65.2676 188.375 65.2676C188.848 65.2676 189.227 65.1074 189.512 64.7871C189.801 64.4668 189.945 64.0039 189.945 63.3984Z" fill="white"/>
<path d="M207.152 66V65.5605C207.152 65.1973 207.195 64.875 207.281 64.5938C207.367 64.3125 207.502 64.0488 207.686 63.8027C207.865 63.5527 208.1 63.3066 208.389 63.0645C208.678 62.8223 209.025 62.5527 209.432 62.2559C209.729 62.0449 209.979 61.8418 210.182 61.6465C210.385 61.4512 210.549 61.2559 210.674 61.0605C210.787 60.8965 210.873 60.709 210.932 60.498C210.994 60.2871 211.025 60.0684 211.025 59.8418C211.025 59.3965 210.896 59.0332 210.639 58.752C210.381 58.4707 210.025 58.3301 209.572 58.3301C209.209 58.3301 208.861 58.4043 208.529 58.5527C208.201 58.6973 207.895 58.918 207.609 59.2148L206.977 58.5996C207.352 58.2129 207.756 57.9258 208.189 57.7383C208.627 57.5508 209.113 57.457 209.648 57.457C210.438 57.457 211.041 57.6875 211.459 58.1484C211.877 58.6055 212.086 59.1367 212.086 59.7422C212.086 60.0703 212.041 60.3789 211.951 60.668C211.865 60.9531 211.746 61.209 211.594 61.4355C211.434 61.6777 211.238 61.9102 211.008 62.1328C210.777 62.3516 210.508 62.5742 210.199 62.8008C209.824 63.0625 209.512 63.2871 209.262 63.4746C209.016 63.6621 208.818 63.8379 208.67 64.002C208.521 64.1738 208.414 64.3438 208.348 64.5117C208.285 64.6758 208.254 64.8633 208.254 65.0742H212.379V66H207.152ZM219.012 58.2012C218.324 59.4082 217.705 60.6406 217.154 61.8984C216.604 63.1523 216.217 64.5195 215.994 66H214.875C215.09 64.6016 215.488 63.2539 216.07 61.957C216.652 60.6562 217.23 59.5117 217.805 58.5234H213.615V57.5977H219.012V58.2012Z" fill="black" fill-opacity="0.6063"/>
<path d="M235.152 66V65.5605C235.152 65.1973 235.195 64.875 235.281 64.5938C235.367 64.3125 235.502 64.0488 235.686 63.8027C235.865 63.5527 236.1 63.3066 236.389 63.0645C236.678 62.8223 237.025 62.5527 237.432 62.2559C237.729 62.0449 237.979 61.8418 238.182 61.6465C238.385 61.4512 238.549 61.2559 238.674 61.0605C238.787 60.8965 238.873 60.709 238.932 60.498C238.994 60.2871 239.025 60.0684 239.025 59.8418C239.025 59.3965 238.896 59.0332 238.639 58.752C238.381 58.4707 238.025 58.3301 237.572 58.3301C237.209 58.3301 236.861 58.4043 236.529 58.5527C236.201 58.6973 235.895 58.918 235.609 59.2148L234.977 58.5996C235.352 58.2129 235.756 57.9258 236.189 57.7383C236.627 57.5508 237.113 57.457 237.648 57.457C238.438 57.457 239.041 57.6875 239.459 58.1484C239.877 58.6055 240.086 59.1367 240.086 59.7422C240.086 60.0703 240.041 60.3789 239.951 60.668C239.865 60.9531 239.746 61.209 239.594 61.4355C239.434 61.6777 239.238 61.9102 239.008 62.1328C238.777 62.3516 238.508 62.5742 238.199 62.8008C237.824 63.0625 237.512 63.2871 237.262 63.4746C237.016 63.6621 236.818 63.8379 236.67 64.002C236.521 64.1738 236.414 64.3438 236.348 64.5117C236.285 64.6758 236.254 64.8633 236.254 65.0742H240.379V66H235.152ZM241.568 63.6621C241.568 63.2168 241.701 62.7852 241.967 62.3672C242.236 61.9492 242.619 61.6465 243.115 61.459C242.752 61.252 242.463 60.9902 242.248 60.6738C242.033 60.3535 241.926 59.998 241.926 59.6074C241.926 58.9902 242.152 58.4785 242.605 58.0723C243.062 57.6621 243.633 57.457 244.316 57.457C245.004 57.457 245.574 57.6641 246.027 58.0781C246.48 58.4883 246.707 58.998 246.707 59.6074C246.707 59.9941 246.6 60.3477 246.385 60.668C246.17 60.9844 245.883 61.2461 245.523 61.4531C246.012 61.6406 246.389 61.9453 246.654 62.3672C246.924 62.7852 247.059 63.2168 247.059 63.6621C247.059 64.3887 246.805 64.9824 246.297 65.4434C245.793 65.9043 245.131 66.1348 244.311 66.1348C243.506 66.1348 242.848 65.9062 242.336 65.4492C241.824 64.9883 241.568 64.3926 241.568 63.6621ZM242.67 63.5742C242.67 64.0898 242.822 64.4961 243.127 64.793C243.432 65.0898 243.828 65.2383 244.316 65.2383C244.793 65.2383 245.188 65.0879 245.5 64.7871C245.812 64.4863 245.969 64.082 245.969 63.5742C245.969 63.1172 245.818 62.7266 245.518 62.4023C245.221 62.0781 244.822 61.916 244.322 61.916C243.85 61.916 243.455 62.0723 243.139 62.3848C242.826 62.6934 242.67 63.0898 242.67 63.5742ZM242.969 59.6953C242.969 60.0859 243.1 60.4121 243.361 60.6738C243.627 60.9355 243.947 61.0664 244.322 61.0664C244.689 61.0664 245.008 60.9355 245.277 60.6738C245.547 60.4082 245.682 60.082 245.682 59.6953C245.682 59.2969 245.549 58.9668 245.283 58.7051C245.021 58.4434 244.701 58.3125 244.322 58.3125C243.92 58.3125 243.594 58.4473 243.344 58.7168C243.094 58.9824 242.969 59.3086 242.969 59.6953Z" fill="black" fill-opacity="0.6063"/>
<path d="M264.5 59.125C264.5 59.0234 264.537 58.9355 264.611 58.8613C264.686 58.7871 264.773 58.75 264.875 58.75C264.977 58.75 265.064 58.7871 265.139 58.8613L269 62.7168L272.861 58.8613C272.936 58.7871 273.023 58.75 273.125 58.75C273.227 58.75 273.314 58.7871 273.389 58.8613C273.463 58.9355 273.5 59.0234 273.5 59.125C273.5 59.2266 273.463 59.3145 273.389 59.3887L269.264 63.5137C269.189 63.5879 269.102 63.625 269 63.625C268.898 63.625 268.811 63.5879 268.736 63.5137L264.611 59.3887C264.537 59.3145 264.5 59.2266 264.5 59.125Z" fill="black" fill-opacity="0.6063"/>
<rect x="21" y="89" width="260" height="48" rx="4" fill="white" fill-opacity="0.5"/>
<path d="M48.1816 118L51.3867 109.598H52.5234L55.7344 118H54.5508L53.7305 115.797H50.1445L49.3652 118H48.1816ZM50.4785 114.859H53.3965L52.0781 111.244C52.0508 111.182 52.0273 111.104 52.0078 111.01C51.9883 110.916 51.9668 110.805 51.9434 110.676H51.9199C51.9004 110.793 51.8789 110.898 51.8555 110.992C51.8359 111.086 51.8125 111.168 51.7852 111.238L50.4785 114.859ZM56.9355 118V109.117H57.9785V118H56.9355ZM60.0059 118V109.117H61.0488V118H60.0059ZM66.5039 118V109.598H68.8828C70.3672 109.598 71.4785 109.939 72.2168 110.623C72.959 111.303 73.3301 112.326 73.3301 113.693C73.3301 114.99 72.918 116.033 72.0938 116.822C71.2734 117.607 70.1758 118 68.8008 118H66.5039ZM67.5703 110.547V117.051H68.7949C69.8691 117.051 70.7051 116.762 71.3027 116.184C71.9043 115.602 72.2051 114.779 72.2051 113.717C72.2051 112.666 71.9238 111.875 71.3613 111.344C70.8027 110.812 69.9648 110.547 68.8477 110.547H67.5703ZM79.3711 118H78.334V117.033H78.3105C78.0996 117.4 77.8379 117.678 77.5254 117.865C77.2129 118.053 76.8496 118.146 76.4355 118.146C75.8574 118.146 75.3906 117.979 75.0352 117.643C74.6797 117.307 74.502 116.863 74.502 116.312C74.502 115.777 74.6816 115.338 75.041 114.994C75.4004 114.65 75.918 114.43 76.5938 114.332L78.3398 114.098V113.957C78.3398 113.461 78.2207 113.104 77.9824 112.885C77.748 112.666 77.4316 112.557 77.0332 112.557C76.7168 112.557 76.4082 112.617 76.1074 112.738C75.8066 112.859 75.5215 113.041 75.252 113.283L74.6836 112.65C75.0312 112.33 75.4023 112.094 75.7969 111.941C76.1953 111.785 76.6309 111.707 77.1035 111.707C77.8535 111.707 78.418 111.9 78.7969 112.287C79.1797 112.674 79.3711 113.254 79.3711 114.027V118ZM78.3398 115.492V114.9L76.875 115.1C76.4258 115.162 76.0898 115.275 75.8672 115.439C75.6445 115.604 75.5332 115.861 75.5332 116.213C75.5332 116.561 75.6367 116.83 75.8438 117.021C76.0547 117.213 76.3164 117.309 76.6289 117.309C77.1445 117.309 77.5586 117.139 77.8711 116.799C78.1836 116.455 78.3398 116.02 78.3398 115.492ZM86.291 111.854L83.4258 119.102C83.1992 119.68 82.9102 120.113 82.5586 120.402C82.207 120.691 81.791 120.836 81.3105 120.836C81.1816 120.836 81.0605 120.828 80.9473 120.812C80.8379 120.797 80.7344 120.775 80.6367 120.748L80.8359 119.875C80.9141 119.902 80.9863 119.922 81.0527 119.934C81.123 119.945 81.1934 119.951 81.2637 119.951C81.5215 119.951 81.7383 119.883 81.9141 119.746C82.0898 119.609 82.2324 119.416 82.3418 119.166L82.8398 117.988L80.4316 111.854H81.5859L83.2148 116.512C83.2266 116.551 83.2422 116.613 83.2617 116.699C83.2852 116.781 83.3125 116.885 83.3438 117.01H83.3789C83.3906 116.955 83.4062 116.889 83.4258 116.811C83.4492 116.729 83.4766 116.633 83.5078 116.523L85.2188 111.854H86.291Z" fill="black" fill-opacity="0.6063"/>
<path d="M119.162 118H117.633L113.701 111.941C113.623 111.824 113.557 111.717 113.502 111.619C113.451 111.521 113.406 111.43 113.367 111.344H113.338C113.354 111.461 113.363 111.623 113.367 111.83C113.375 112.037 113.379 112.289 113.379 112.586V118H112.031V109.598H113.654L117.469 115.521C117.551 115.643 117.623 115.756 117.686 115.861C117.748 115.963 117.801 116.055 117.844 116.137H117.867C117.848 116.023 117.834 115.867 117.826 115.668C117.818 115.469 117.814 115.227 117.814 114.941V109.598H119.162V118ZM125.66 118H124.342V117.109H124.318C124.115 117.453 123.863 117.711 123.562 117.883C123.262 118.055 122.916 118.141 122.525 118.141C121.982 118.141 121.531 117.98 121.172 117.66C120.812 117.336 120.633 116.896 120.633 116.342C120.633 115.811 120.812 115.375 121.172 115.035C121.531 114.691 122.064 114.469 122.771 114.367L124.348 114.156V114.027C124.348 113.621 124.242 113.326 124.031 113.143C123.824 112.959 123.541 112.867 123.182 112.867C122.893 112.867 122.602 112.92 122.309 113.025C122.02 113.131 121.74 113.293 121.471 113.512L120.855 112.715C121.211 112.426 121.586 112.211 121.98 112.07C122.375 111.93 122.811 111.859 123.287 111.859C124.088 111.859 124.684 112.059 125.074 112.457C125.465 112.852 125.66 113.443 125.66 114.232V118ZM124.348 115.562V115.064L123.059 115.234C122.68 115.285 122.396 115.387 122.209 115.539C122.025 115.688 121.934 115.906 121.934 116.195C121.934 116.484 122.021 116.711 122.197 116.875C122.377 117.039 122.607 117.121 122.889 117.121C123.33 117.121 123.684 116.975 123.949 116.682C124.215 116.385 124.348 116.012 124.348 115.562ZM130.623 117.9C130.447 117.979 130.262 118.037 130.066 118.076C129.875 118.115 129.666 118.135 129.439 118.135C128.885 118.135 128.457 117.988 128.156 117.695C127.859 117.398 127.711 116.959 127.711 116.377V113.066H126.703V112H127.711V110.541L129.07 110.143V112H130.512V113.066H129.07V116.266C129.07 116.559 129.123 116.77 129.229 116.898C129.338 117.023 129.506 117.086 129.732 117.086C129.838 117.086 129.939 117.074 130.037 117.051C130.139 117.023 130.23 116.988 130.312 116.945L130.623 117.9ZM132.375 110.846C132.125 110.846 131.918 110.766 131.754 110.605C131.59 110.441 131.508 110.242 131.508 110.008C131.508 109.77 131.59 109.572 131.754 109.416C131.918 109.256 132.125 109.176 132.375 109.176C132.629 109.176 132.838 109.256 133.002 109.416C133.166 109.572 133.248 109.77 133.248 110.008C133.248 110.25 133.166 110.451 133.002 110.611C132.838 110.768 132.629 110.846 132.375 110.846ZM133.049 118H131.684V112H133.049V118ZM137.484 118.141C136.547 118.141 135.803 117.861 135.252 117.303C134.701 116.74 134.426 115.988 134.426 115.047C134.43 114.055 134.715 113.275 135.281 112.709C135.852 112.143 136.625 111.859 137.602 111.859C138.543 111.855 139.277 112.133 139.805 112.691C140.336 113.25 140.602 114.002 140.602 114.947C140.602 115.92 140.32 116.695 139.758 117.273C139.199 117.852 138.441 118.141 137.484 118.141ZM137.549 117.057C138.092 117.057 138.504 116.879 138.785 116.523C139.07 116.164 139.213 115.65 139.213 114.982C139.213 114.322 139.07 113.818 138.785 113.471C138.5 113.119 138.086 112.943 137.543 112.943C137.008 112.943 136.586 113.129 136.277 113.5C135.969 113.867 135.814 114.373 135.814 115.018C135.814 115.67 135.967 116.174 136.271 116.529C136.58 116.881 137.006 117.057 137.549 117.057ZM147.334 118H145.975V114.613C145.975 114.059 145.873 113.643 145.67 113.365C145.471 113.084 145.168 112.943 144.762 112.943C144.355 112.943 144.018 113.098 143.748 113.406C143.482 113.715 143.35 114.105 143.35 114.578V118H141.984V112H143.35V112.961H143.373C143.596 112.594 143.869 112.318 144.193 112.135C144.521 111.951 144.898 111.859 145.324 111.859C145.98 111.859 146.479 112.068 146.818 112.486C147.162 112.904 147.334 113.52 147.334 114.332V118ZM153.562 118H152.244V117.109H152.221C152.018 117.453 151.766 117.711 151.465 117.883C151.164 118.055 150.818 118.141 150.428 118.141C149.885 118.141 149.434 117.98 149.074 117.66C148.715 117.336 148.535 116.896 148.535 116.342C148.535 115.811 148.715 115.375 149.074 115.035C149.434 114.691 149.967 114.469 150.674 114.367L152.25 114.156V114.027C152.25 113.621 152.145 113.326 151.934 113.143C151.727 112.959 151.443 112.867 151.084 112.867C150.795 112.867 150.504 112.92 150.211 113.025C149.922 113.131 149.643 113.293 149.373 113.512L148.758 112.715C149.113 112.426 149.488 112.211 149.883 112.07C150.277 111.93 150.713 111.859 151.189 111.859C151.99 111.859 152.586 112.059 152.977 112.457C153.367 112.852 153.562 113.443 153.562 114.232V118ZM152.25 115.562V115.064L150.961 115.234C150.582 115.285 150.299 115.387 150.111 115.539C149.928 115.688 149.836 115.906 149.836 116.195C149.836 116.484 149.924 116.711 150.1 116.875C150.279 117.039 150.51 117.121 150.791 117.121C151.232 117.121 151.586 116.975 151.852 116.682C152.117 116.385 152.25 116.012 152.25 115.562ZM155.238 118V109.117H156.604V118H155.238ZM160.857 118L164.004 109.598H165.574L168.697 118H167.168L166.447 115.973H163.078L162.381 118H160.857ZM163.441 114.824H166.072L164.906 111.484C164.879 111.398 164.855 111.312 164.836 111.227C164.816 111.141 164.797 111.033 164.777 110.904H164.742C164.723 111.021 164.701 111.125 164.678 111.215C164.658 111.301 164.633 111.387 164.602 111.473L163.441 114.824ZM174.223 117.584C173.926 117.779 173.627 117.92 173.326 118.006C173.025 118.096 172.699 118.141 172.348 118.141C171.422 118.141 170.682 117.871 170.127 117.332C169.576 116.789 169.301 116.057 169.301 115.135C169.301 114.139 169.588 113.344 170.162 112.75C170.736 112.156 171.508 111.859 172.477 111.859C172.824 111.859 173.143 111.9 173.432 111.982C173.721 112.061 174.008 112.189 174.293 112.369L173.725 113.295C173.521 113.174 173.322 113.086 173.127 113.031C172.932 112.973 172.717 112.943 172.482 112.943C171.912 112.943 171.471 113.133 171.158 113.512C170.846 113.891 170.689 114.393 170.689 115.018C170.689 115.674 170.857 116.178 171.193 116.529C171.533 116.881 171.959 117.057 172.471 117.057C172.631 117.057 172.812 117.027 173.016 116.969C173.223 116.906 173.43 116.809 173.637 116.676L174.223 117.584ZM178.717 113.148C178.643 113.125 178.568 113.109 178.494 113.102C178.424 113.09 178.344 113.084 178.254 113.084C177.77 113.084 177.396 113.264 177.135 113.623C176.873 113.982 176.742 114.451 176.742 115.029V118H175.377V112H176.742V113.148H176.766C176.906 112.738 177.113 112.428 177.387 112.217C177.66 112.002 177.982 111.895 178.354 111.895C178.463 111.895 178.561 111.9 178.646 111.912C178.732 111.924 178.816 111.943 178.898 111.971L178.717 113.148ZM185.039 112L182.279 119.137C182.064 119.684 181.771 120.102 181.4 120.391C181.033 120.68 180.596 120.824 180.088 120.824C179.932 120.824 179.785 120.814 179.648 120.795C179.516 120.775 179.385 120.748 179.256 120.713L179.514 119.658C179.6 119.686 179.678 119.705 179.748 119.717C179.822 119.732 179.9 119.74 179.982 119.74C180.201 119.74 180.389 119.684 180.545 119.57C180.701 119.461 180.826 119.293 180.92 119.066L181.377 117.994L178.992 112H180.504L181.898 116.166C181.918 116.236 181.939 116.324 181.963 116.43C181.986 116.531 182.012 116.65 182.039 116.787H182.068C182.084 116.705 182.104 116.615 182.127 116.518C182.15 116.416 182.182 116.303 182.221 116.178L183.668 112H185.039ZM185.941 118V109.117H187.307V118H185.941ZM189.762 110.846C189.512 110.846 189.305 110.766 189.141 110.605C188.977 110.441 188.895 110.242 188.895 110.008C188.895 109.77 188.977 109.572 189.141 109.416C189.305 109.256 189.512 109.176 189.762 109.176C190.016 109.176 190.225 109.256 190.389 109.416C190.553 109.572 190.635 109.77 190.635 110.008C190.635 110.25 190.553 110.451 190.389 110.611C190.225 110.768 190.016 110.846 189.762 110.846ZM190.436 118H189.07V112H190.436V118ZM196.734 117.584C196.438 117.779 196.139 117.92 195.838 118.006C195.537 118.096 195.211 118.141 194.859 118.141C193.934 118.141 193.193 117.871 192.639 117.332C192.088 116.789 191.812 116.057 191.812 115.135C191.812 114.139 192.1 113.344 192.674 112.75C193.248 112.156 194.02 111.859 194.988 111.859C195.336 111.859 195.654 111.9 195.943 111.982C196.232 112.061 196.52 112.189 196.805 112.369L196.236 113.295C196.033 113.174 195.834 113.086 195.639 113.031C195.443 112.973 195.229 112.943 194.994 112.943C194.424 112.943 193.982 113.133 193.67 113.512C193.357 113.891 193.201 114.393 193.201 115.018C193.201 115.674 193.369 116.178 193.705 116.529C194.045 116.881 194.471 117.057 194.982 117.057C195.143 117.057 195.324 117.027 195.527 116.969C195.734 116.906 195.941 116.809 196.148 116.676L196.734 117.584ZM201.305 118V109.598H203.924C205.408 109.598 206.521 109.939 207.264 110.623C208.006 111.303 208.377 112.326 208.377 113.693C208.377 114.994 207.969 116.037 207.152 116.822C206.336 117.607 205.242 118 203.871 118H201.305ZM202.699 110.781V116.816H203.812C204.785 116.816 205.545 116.545 206.092 116.002C206.639 115.455 206.912 114.693 206.912 113.717C206.912 112.764 206.65 112.037 206.127 111.537C205.607 111.033 204.844 110.781 203.836 110.781H202.699ZM214.336 118H213.018V117.109H212.994C212.791 117.453 212.539 117.711 212.238 117.883C211.938 118.055 211.592 118.141 211.201 118.141C210.658 118.141 210.207 117.98 209.848 117.66C209.488 117.336 209.309 116.896 209.309 116.342C209.309 115.811 209.488 115.375 209.848 115.035C210.207 114.691 210.74 114.469 211.447 114.367L213.023 114.156V114.027C213.023 113.621 212.918 113.326 212.707 113.143C212.5 112.959 212.217 112.867 211.857 112.867C211.568 112.867 211.277 112.92 210.984 113.025C210.695 113.131 210.416 113.293 210.146 113.512L209.531 112.715C209.887 112.426 210.262 112.211 210.656 112.07C211.051 111.93 211.486 111.859 211.963 111.859C212.764 111.859 213.359 112.059 213.75 112.457C214.141 112.852 214.336 113.443 214.336 114.232V118ZM213.023 115.562V115.064L211.734 115.234C211.355 115.285 211.072 115.387 210.885 115.539C210.701 115.688 210.609 115.906 210.609 116.195C210.609 116.484 210.697 116.711 210.873 116.875C211.053 117.039 211.283 117.121 211.564 117.121C212.006 117.121 212.359 116.975 212.625 116.682C212.891 116.385 213.023 116.012 213.023 115.562ZM221.227 112L218.467 119.137C218.252 119.684 217.959 120.102 217.588 120.391C217.221 120.68 216.783 120.824 216.275 120.824C216.119 120.824 215.973 120.814 215.836 120.795C215.703 120.775 215.572 120.748 215.443 120.713L215.701 119.658C215.787 119.686 215.865 119.705 215.936 119.717C216.01 119.732 216.088 119.74 216.17 119.74C216.389 119.74 216.576 119.684 216.732 119.57C216.889 119.461 217.014 119.293 217.107 119.066L217.564 117.994L215.18 112H216.691L218.086 116.166C218.105 116.236 218.127 116.324 218.15 116.43C218.174 116.531 218.199 116.65 218.227 116.787H218.256C218.271 116.705 218.291 116.615 218.314 116.518C218.338 116.416 218.369 116.303 218.408 116.178L219.855 112H221.227Z" fill="black" fill-opacity="0.8956"/>
<rect x="30" y="95" width="6" height="36" rx="3" fill="#DD6E3F"/>
<rect x="21" y="141" width="260" height="48" rx="4" fill="white" fill-opacity="0.5"/>
<path d="M51.2578 162H50.2148V154.881C50.0625 155.01 49.8066 155.16 49.4473 155.332C49.0879 155.5 48.7637 155.621 48.4746 155.695L48.1816 154.793C48.6387 154.672 49.1191 154.48 49.623 154.219C50.127 153.953 50.5254 153.684 50.8184 153.41H51.2578V162ZM53.5312 162V161.561C53.5312 161.197 53.5742 160.875 53.6602 160.594C53.7461 160.312 53.8809 160.049 54.0645 159.803C54.2441 159.553 54.4785 159.307 54.7676 159.064C55.0566 158.822 55.4043 158.553 55.8105 158.256C56.1074 158.045 56.3574 157.842 56.5605 157.646C56.7637 157.451 56.9277 157.256 57.0527 157.061C57.166 156.896 57.252 156.709 57.3105 156.498C57.373 156.287 57.4043 156.068 57.4043 155.842C57.4043 155.396 57.2754 155.033 57.0176 154.752C56.7598 154.471 56.4043 154.33 55.9512 154.33C55.5879 154.33 55.2402 154.404 54.9082 154.553C54.5801 154.697 54.2734 154.918 53.9883 155.215L53.3555 154.6C53.7305 154.213 54.1348 153.926 54.5684 153.738C55.0059 153.551 55.4922 153.457 56.0273 153.457C56.8164 153.457 57.4199 153.688 57.8379 154.148C58.2559 154.605 58.4648 155.137 58.4648 155.742C58.4648 156.07 58.4199 156.379 58.3301 156.668C58.2441 156.953 58.125 157.209 57.9727 157.436C57.8125 157.678 57.6172 157.91 57.3867 158.133C57.1562 158.352 56.8867 158.574 56.5781 158.801C56.2031 159.062 55.8906 159.287 55.6406 159.475C55.3945 159.662 55.1973 159.838 55.0488 160.002C54.9004 160.174 54.793 160.344 54.7266 160.512C54.6641 160.676 54.6328 160.863 54.6328 161.074H58.7578V162H53.5312ZM61.459 161.115H61.4355V164.76H60.3926V155.854H61.4355V156.926H61.459C61.7012 156.52 62 156.215 62.3555 156.012C62.7109 155.809 63.1191 155.707 63.5801 155.707C64.373 155.707 64.9902 155.982 65.4316 156.533C65.877 157.084 66.0996 157.82 66.0996 158.742C66.0996 159.773 65.8477 160.6 65.3438 161.221C64.8438 161.838 64.1621 162.146 63.2988 162.146C62.9004 162.146 62.5469 162.061 62.2383 161.889C61.9336 161.717 61.6738 161.459 61.459 161.115ZM61.4297 158.643V159.463C61.4297 159.971 61.5918 160.4 61.916 160.752C62.2402 161.104 62.6543 161.279 63.1582 161.279C63.7402 161.279 64.1973 161.055 64.5293 160.605C64.8613 160.156 65.0273 159.531 65.0273 158.73C65.0273 158.055 64.873 157.527 64.5645 157.148C64.2559 156.766 63.8359 156.574 63.3047 156.574C62.7383 156.574 62.2832 156.771 61.9395 157.166C61.5996 157.557 61.4297 158.049 61.4297 158.643ZM76.5176 162H75.4688V158.467C75.4688 157.799 75.3652 157.316 75.1582 157.02C74.9512 156.723 74.6055 156.574 74.1211 156.574C73.707 156.574 73.3555 156.762 73.0664 157.137C72.7812 157.512 72.6387 157.965 72.6387 158.496V162H71.5957V158.355C71.5957 157.762 71.4805 157.316 71.25 157.02C71.0234 156.723 70.6816 156.574 70.2246 156.574C69.7988 156.574 69.4473 156.752 69.1699 157.107C68.8965 157.463 68.7598 157.928 68.7598 158.502V162H67.7168V155.854H68.7598V156.826H68.7832C69.002 156.455 69.2715 156.176 69.5918 155.988C69.9121 155.801 70.2812 155.707 70.6992 155.707C71.1211 155.707 71.4863 155.822 71.7949 156.053C72.1074 156.283 72.3242 156.59 72.4453 156.973C72.6719 156.551 72.9551 156.234 73.2949 156.023C73.6387 155.812 74.0352 155.707 74.4844 155.707C75.1602 155.707 75.668 155.916 76.0078 156.334C76.3477 156.748 76.5176 157.373 76.5176 158.209V162ZM48.6855 177.426L49.1719 176.682C49.4766 176.885 49.7832 177.033 50.0918 177.127C50.4004 177.221 50.7188 177.268 51.0469 177.268C51.6562 177.268 52.1113 177.123 52.4121 176.834C52.7168 176.545 52.8691 176.178 52.8691 175.732C52.8691 175.178 52.6758 174.766 52.2891 174.496C51.9062 174.227 51.334 174.092 50.5723 174.092H49.875V173.225H50.5312C51.2109 173.225 51.7207 173.1 52.0605 172.85C52.4004 172.6 52.5703 172.205 52.5703 171.666C52.5703 171.232 52.4375 170.902 52.1719 170.676C51.9102 170.445 51.5918 170.33 51.2168 170.33C50.9043 170.33 50.6016 170.381 50.3086 170.482C50.0195 170.584 49.7344 170.74 49.4531 170.951L48.9258 170.254C49.2812 169.98 49.6504 169.779 50.0332 169.65C50.416 169.521 50.834 169.457 51.2871 169.457C51.9941 169.457 52.5625 169.645 52.9922 170.02C53.4219 170.391 53.6367 170.896 53.6367 171.537C53.6367 172.037 53.498 172.467 53.2207 172.826C52.9473 173.182 52.5352 173.438 51.9844 173.594V173.617C52.5469 173.684 53.0117 173.896 53.3789 174.256C53.75 174.611 53.9355 175.078 53.9355 175.656C53.9355 176.426 53.6758 177.033 53.1562 177.479C52.6406 177.924 51.9668 178.146 51.1348 178.146C50.6621 178.146 50.2305 178.09 49.8398 177.977C49.4531 177.859 49.0684 177.676 48.6855 177.426ZM57.873 178.146C57.0098 178.146 56.3457 177.785 55.8809 177.062C55.4199 176.34 55.1895 175.309 55.1895 173.969C55.1895 172.504 55.4316 171.387 55.916 170.617C56.4043 169.844 57.1094 169.457 58.0312 169.457C58.9297 169.457 59.5977 169.816 60.0352 170.535C60.4766 171.25 60.6973 172.326 60.6973 173.764C60.6973 175.178 60.4492 176.262 59.9531 177.016C59.4609 177.77 58.7676 178.146 57.873 178.146ZM57.9902 170.33C57.4121 170.33 56.9785 170.629 56.6895 171.227C56.4043 171.824 56.2617 172.723 56.2617 173.922C56.2617 175.035 56.4023 175.871 56.6836 176.43C56.9648 176.988 57.3887 177.268 57.9551 177.268C58.5215 177.268 58.9414 176.984 59.2148 176.418C59.4922 175.848 59.6309 174.992 59.6309 173.852C59.6309 172.676 59.4941 171.795 59.2207 171.209C58.9512 170.623 58.541 170.33 57.9902 170.33ZM71.0801 178H70.0312V174.467C70.0312 173.799 69.9277 173.316 69.7207 173.02C69.5137 172.723 69.168 172.574 68.6836 172.574C68.2695 172.574 67.918 172.762 67.6289 173.137C67.3438 173.512 67.2012 173.965 67.2012 174.496V178H66.1582V174.355C66.1582 173.762 66.043 173.316 65.8125 173.02C65.5859 172.723 65.2441 172.574 64.7871 172.574C64.3613 172.574 64.0098 172.752 63.7324 173.107C63.459 173.463 63.3223 173.928 63.3223 174.502V178H62.2793V171.854H63.3223V172.826H63.3457C63.5645 172.455 63.834 172.176 64.1543 171.988C64.4746 171.801 64.8438 171.707 65.2617 171.707C65.6836 171.707 66.0488 171.822 66.3574 172.053C66.6699 172.283 66.8867 172.59 67.0078 172.973C67.2344 172.551 67.5176 172.234 67.8574 172.023C68.2012 171.812 68.5977 171.707 69.0469 171.707C69.7227 171.707 70.2305 171.916 70.5703 172.334C70.9102 172.748 71.0801 173.373 71.0801 174.209V178Z" fill="black" fill-opacity="0.6063"/>
<path d="M116.684 162H112.031V153.598H113.426V160.816H116.684V162ZM122.977 162H121.611V161.074H121.588C121.381 161.426 121.121 161.691 120.809 161.871C120.5 162.051 120.146 162.141 119.748 162.141C119.041 162.141 118.51 161.93 118.154 161.508C117.803 161.086 117.627 160.453 117.627 159.609V156H118.98V159.451C118.98 159.986 119.084 160.389 119.291 160.658C119.502 160.924 119.816 161.057 120.234 161.057C120.641 161.057 120.971 160.91 121.225 160.617C121.482 160.32 121.611 159.93 121.611 159.445V156H122.977V162ZM130.084 162H128.725V158.613C128.725 158.059 128.623 157.643 128.42 157.365C128.221 157.084 127.918 156.943 127.512 156.943C127.105 156.943 126.768 157.098 126.498 157.406C126.232 157.715 126.1 158.105 126.1 158.578V162H124.734V156H126.1V156.961H126.123C126.346 156.594 126.619 156.318 126.943 156.135C127.271 155.951 127.648 155.859 128.074 155.859C128.73 155.859 129.229 156.068 129.568 156.486C129.912 156.904 130.084 157.52 130.084 158.332V162ZM136.266 161.584C135.969 161.779 135.67 161.92 135.369 162.006C135.068 162.096 134.742 162.141 134.391 162.141C133.465 162.141 132.725 161.871 132.17 161.332C131.619 160.789 131.344 160.057 131.344 159.135C131.344 158.139 131.631 157.344 132.205 156.75C132.779 156.156 133.551 155.859 134.52 155.859C134.867 155.859 135.186 155.9 135.475 155.982C135.764 156.061 136.051 156.189 136.336 156.369L135.768 157.295C135.564 157.174 135.365 157.086 135.17 157.031C134.975 156.973 134.76 156.943 134.525 156.943C133.955 156.943 133.514 157.133 133.201 157.512C132.889 157.891 132.732 158.393 132.732 159.018C132.732 159.674 132.9 160.178 133.236 160.529C133.576 160.881 134.002 161.057 134.514 161.057C134.674 161.057 134.855 161.027 135.059 160.969C135.266 160.906 135.473 160.809 135.68 160.676L136.266 161.584ZM142.746 162H141.387V158.561C141.387 158.021 141.287 157.617 141.088 157.348C140.889 157.078 140.59 156.943 140.191 156.943C139.785 156.943 139.447 157.098 139.178 157.406C138.912 157.715 138.779 158.109 138.779 158.59V162H137.414V153.117H138.779V156.943H138.803C139.029 156.58 139.303 156.309 139.623 156.129C139.947 155.949 140.311 155.859 140.713 155.859C141.389 155.859 141.896 156.064 142.236 156.475C142.576 156.881 142.746 157.492 142.746 158.309V162Z" fill="black" fill-opacity="0.8956"/>
<path d="M111.182 178L114.387 169.598H115.523L118.734 178H117.551L116.73 175.797H113.145L112.365 178H111.182ZM113.479 174.859H116.396L115.078 171.244C115.051 171.182 115.027 171.104 115.008 171.01C114.988 170.916 114.967 170.805 114.943 170.676H114.92C114.9 170.793 114.879 170.898 114.855 170.992C114.836 171.086 114.812 171.168 114.785 171.238L113.479 174.859ZM119.936 178V169.117H120.979V178H119.936ZM127.992 175.164H123.668C123.688 175.844 123.869 176.367 124.213 176.734C124.557 177.098 125.039 177.279 125.66 177.279C125.93 177.279 126.205 177.238 126.486 177.156C126.771 177.07 127.057 176.932 127.342 176.74L127.816 177.467C127.461 177.701 127.104 177.873 126.744 177.982C126.385 178.092 125.99 178.146 125.561 178.146C124.631 178.146 123.906 177.871 123.387 177.32C122.867 176.766 122.605 175.992 122.602 175C122.598 174.012 122.859 173.217 123.387 172.615C123.918 172.01 124.605 171.707 125.449 171.707C126.254 171.707 126.879 171.969 127.324 172.492C127.77 173.012 127.992 173.736 127.992 174.666V175.164ZM126.943 174.344C126.939 173.777 126.803 173.338 126.533 173.025C126.268 172.713 125.9 172.557 125.432 172.557C124.971 172.557 124.58 172.719 124.26 173.043C123.943 173.363 123.75 173.797 123.68 174.344H126.943ZM134.145 171.854L132.082 174.953L134.104 178H132.891L131.707 176.031C131.668 175.965 131.625 175.895 131.578 175.82C131.535 175.742 131.488 175.652 131.438 175.551H131.408C131.393 175.578 131.361 175.633 131.314 175.715C131.271 175.793 131.209 175.898 131.127 176.031L129.926 178H128.719L130.811 174.982L128.812 171.854H130.025L131.191 173.928C131.238 174.01 131.283 174.092 131.326 174.174C131.369 174.256 131.412 174.336 131.455 174.414H131.479C131.525 174.332 131.572 174.252 131.619 174.174C131.67 174.092 131.719 174.01 131.766 173.928L132.99 171.854H134.145ZM136.312 176.652L135.387 179.541H134.631L135.311 176.652H136.312ZM143.854 175.568C143.854 176.381 143.67 177.014 143.303 177.467C142.939 177.916 142.377 178.141 141.615 178.141C141.42 178.141 141.234 178.127 141.059 178.1C140.887 178.072 140.711 178.027 140.531 177.965L140.824 177.062C140.957 177.109 141.084 177.143 141.205 177.162C141.326 177.182 141.449 177.191 141.574 177.191C141.965 177.191 142.264 177.068 142.471 176.822C142.678 176.576 142.781 176.16 142.781 175.574L142.787 169.598H143.854V175.568ZM148.559 178.146C147.641 178.146 146.908 177.859 146.361 177.285C145.818 176.707 145.547 175.941 145.547 174.988C145.547 173.961 145.828 173.158 146.391 172.58C146.953 172.002 147.721 171.711 148.693 171.707C149.615 171.703 150.336 171.986 150.855 172.557C151.379 173.123 151.641 173.902 151.641 174.895C151.641 175.883 151.361 176.672 150.803 177.262C150.244 177.852 149.496 178.146 148.559 178.146ZM148.629 177.279C149.254 177.279 149.732 177.076 150.064 176.67C150.4 176.26 150.568 175.68 150.568 174.93C150.568 174.172 150.4 173.59 150.064 173.184C149.729 172.777 149.25 172.574 148.629 172.574C148.008 172.574 147.516 172.787 147.152 173.213C146.793 173.635 146.613 174.217 146.613 174.959C146.613 175.682 146.795 176.25 147.158 176.664C147.521 177.074 148.012 177.279 148.629 177.279ZM158.42 178H157.377V174.455C157.377 173.826 157.26 173.355 157.025 173.043C156.791 172.73 156.441 172.574 155.977 172.574C155.504 172.574 155.107 172.756 154.787 173.119C154.467 173.479 154.307 173.945 154.307 174.52V178H153.264V169.117H154.307V172.867H154.33C154.564 172.48 154.85 172.191 155.186 172C155.521 171.805 155.906 171.707 156.34 171.707C157.035 171.707 157.555 171.916 157.898 172.334C158.246 172.752 158.42 173.379 158.42 174.215V178ZM165.475 178H164.432V174.496C164.432 173.855 164.314 173.375 164.08 173.055C163.846 172.734 163.496 172.574 163.031 172.574C162.547 172.574 162.146 172.756 161.83 173.119C161.518 173.479 161.361 173.936 161.361 174.49V178H160.318V171.854H161.361V172.873H161.385C161.615 172.482 161.898 172.191 162.234 172C162.57 171.805 162.959 171.707 163.4 171.707C164.072 171.707 164.586 171.924 164.941 172.357C165.297 172.791 165.475 173.418 165.475 174.238V178ZM166.828 177.543L167.314 176.758C167.572 176.93 167.828 177.061 168.082 177.15C168.336 177.24 168.615 177.285 168.92 177.285C169.33 177.285 169.643 177.211 169.857 177.062C170.072 176.91 170.18 176.684 170.18 176.383C170.18 176.133 170.084 175.926 169.893 175.762C169.705 175.594 169.408 175.457 169.002 175.352C168.24 175.16 167.717 174.916 167.432 174.619C167.146 174.318 167.004 173.945 167.004 173.5C167.004 172.984 167.199 172.557 167.59 172.217C167.984 171.877 168.521 171.707 169.201 171.707C169.529 171.707 169.84 171.75 170.133 171.836C170.43 171.918 170.729 172.057 171.029 172.252L170.578 173.025C170.305 172.854 170.059 172.734 169.84 172.668C169.621 172.598 169.398 172.562 169.172 172.562C168.785 172.562 168.488 172.635 168.281 172.779C168.074 172.924 167.971 173.133 167.971 173.406C167.971 173.672 168.072 173.875 168.275 174.016C168.479 174.152 168.816 174.281 169.289 174.402C169.918 174.57 170.387 174.805 170.695 175.105C171.008 175.402 171.164 175.799 171.164 176.295C171.164 176.861 170.959 177.312 170.549 177.648C170.143 177.98 169.588 178.146 168.885 178.146C168.502 178.146 168.137 178.096 167.789 177.994C167.445 177.889 167.125 177.738 166.828 177.543ZM175.301 178.146C174.383 178.146 173.65 177.859 173.104 177.285C172.561 176.707 172.289 175.941 172.289 174.988C172.289 173.961 172.57 173.158 173.133 172.58C173.695 172.002 174.463 171.711 175.436 171.707C176.357 171.703 177.078 171.986 177.598 172.557C178.121 173.123 178.383 173.902 178.383 174.895C178.383 175.883 178.104 176.672 177.545 177.262C176.986 177.852 176.238 178.146 175.301 178.146ZM175.371 177.279C175.996 177.279 176.475 177.076 176.807 176.67C177.143 176.26 177.311 175.68 177.311 174.93C177.311 174.172 177.143 173.59 176.807 173.184C176.471 172.777 175.992 172.574 175.371 172.574C174.75 172.574 174.258 172.787 173.895 173.213C173.535 173.635 173.355 174.217 173.355 174.959C173.355 175.682 173.537 176.25 173.9 176.664C174.264 177.074 174.754 177.279 175.371 177.279ZM185.162 178H184.119V174.496C184.119 173.855 184.002 173.375 183.768 173.055C183.533 172.734 183.184 172.574 182.719 172.574C182.234 172.574 181.834 172.756 181.518 173.119C181.205 173.479 181.049 173.936 181.049 174.49V178H180.006V171.854H181.049V172.873H181.072C181.303 172.482 181.586 172.191 181.922 172C182.258 171.805 182.646 171.707 183.088 171.707C183.76 171.707 184.273 171.924 184.629 172.357C184.984 172.791 185.162 173.418 185.162 174.238V178Z" fill="black" fill-opacity="0.6063"/>
<rect x="30" y="147" width="6" height="36" rx="3" fill="#3174C5"/>
<rect x="21" y="193" width="260" height="48" rx="4" fill="white" fill-opacity="0.5"/>
<path d="M51.2578 214H50.2148V206.881C50.0625 207.01 49.8066 207.16 49.4473 207.332C49.0879 207.5 48.7637 207.621 48.4746 207.695L48.1816 206.793C48.6387 206.672 49.1191 206.48 49.623 206.219C50.127 205.953 50.5254 205.684 50.8184 205.41H51.2578V214ZM54.1406 209.125C53.9414 209.125 53.7715 209.059 53.6309 208.926C53.4902 208.789 53.4199 208.623 53.4199 208.428C53.4199 208.232 53.4902 208.066 53.6309 207.93C53.7715 207.793 53.9414 207.725 54.1406 207.725C54.3398 207.725 54.5078 207.793 54.6445 207.93C54.7852 208.066 54.8555 208.232 54.8555 208.428C54.8555 208.623 54.7852 208.789 54.6445 208.926C54.5078 209.059 54.3398 209.125 54.1406 209.125ZM54.1406 214.129C53.9414 214.129 53.7715 214.061 53.6309 213.924C53.4902 213.787 53.4199 213.623 53.4199 213.432C53.4199 213.24 53.4902 213.076 53.6309 212.939C53.7715 212.803 53.9414 212.734 54.1406 212.734C54.3398 212.734 54.5078 212.803 54.6445 212.939C54.7852 213.076 54.8555 213.24 54.8555 213.432C54.8555 213.623 54.7852 213.787 54.6445 213.924C54.5078 214.061 54.3398 214.129 54.1406 214.129ZM56.2207 213.426L56.707 212.682C57.0117 212.885 57.3184 213.033 57.627 213.127C57.9355 213.221 58.2539 213.268 58.582 213.268C59.1914 213.268 59.6465 213.123 59.9473 212.834C60.252 212.545 60.4043 212.178 60.4043 211.732C60.4043 211.178 60.2109 210.766 59.8242 210.496C59.4414 210.227 58.8691 210.092 58.1074 210.092H57.4102V209.225H58.0664C58.7461 209.225 59.2559 209.1 59.5957 208.85C59.9355 208.6 60.1055 208.205 60.1055 207.666C60.1055 207.232 59.9727 206.902 59.707 206.676C59.4453 206.445 59.127 206.33 58.752 206.33C58.4395 206.33 58.1367 206.381 57.8438 206.482C57.5547 206.584 57.2695 206.74 56.9883 206.951L56.4609 206.254C56.8164 205.98 57.1855 205.779 57.5684 205.65C57.9512 205.521 58.3691 205.457 58.8223 205.457C59.5293 205.457 60.0977 205.645 60.5273 206.02C60.957 206.391 61.1719 206.896 61.1719 207.537C61.1719 208.037 61.0332 208.467 60.7559 208.826C60.4824 209.182 60.0703 209.438 59.5195 209.594V209.617C60.082 209.684 60.5469 209.896 60.9141 210.256C61.2852 210.611 61.4707 211.078 61.4707 211.656C61.4707 212.426 61.2109 213.033 60.6914 213.479C60.1758 213.924 59.502 214.146 58.6699 214.146C58.1973 214.146 57.7656 214.09 57.375 213.977C56.9883 213.859 56.6035 213.676 56.2207 213.426ZM65.4082 214.146C64.5449 214.146 63.8809 213.785 63.416 213.062C62.9551 212.34 62.7246 211.309 62.7246 209.969C62.7246 208.504 62.9668 207.387 63.4512 206.617C63.9395 205.844 64.6445 205.457 65.5664 205.457C66.4648 205.457 67.1328 205.816 67.5703 206.535C68.0117 207.25 68.2324 208.326 68.2324 209.764C68.2324 211.178 67.9844 212.262 67.4883 213.016C66.9961 213.77 66.3027 214.146 65.4082 214.146ZM65.5254 206.33C64.9473 206.33 64.5137 206.629 64.2246 207.227C63.9395 207.824 63.7969 208.723 63.7969 209.922C63.7969 211.035 63.9375 211.871 64.2188 212.43C64.5 212.988 64.9238 213.268 65.4902 213.268C66.0566 213.268 66.4766 212.984 66.75 212.418C67.0273 211.848 67.166 210.992 67.166 209.852C67.166 208.676 67.0293 207.795 66.7559 207.209C66.4863 206.623 66.0762 206.33 65.5254 206.33ZM70.8809 213.115H70.8574V216.76H69.8145V207.854H70.8574V208.926H70.8809C71.123 208.52 71.4219 208.215 71.7773 208.012C72.1328 207.809 72.541 207.707 73.002 207.707C73.7949 207.707 74.4121 207.982 74.8535 208.533C75.2988 209.084 75.5215 209.82 75.5215 210.742C75.5215 211.773 75.2695 212.6 74.7656 213.221C74.2656 213.838 73.584 214.146 72.7207 214.146C72.3223 214.146 71.9688 214.061 71.6602 213.889C71.3555 213.717 71.0957 213.459 70.8809 213.115ZM70.8516 210.643V211.463C70.8516 211.971 71.0137 212.4 71.3379 212.752C71.6621 213.104 72.0762 213.279 72.5801 213.279C73.1621 213.279 73.6191 213.055 73.9512 212.605C74.2832 212.156 74.4492 211.531 74.4492 210.73C74.4492 210.055 74.2949 209.527 73.9863 209.148C73.6777 208.766 73.2578 208.574 72.7266 208.574C72.1602 208.574 71.7051 208.771 71.3613 209.166C71.0215 209.557 70.8516 210.049 70.8516 210.643ZM85.9395 214H84.8906V210.467C84.8906 209.799 84.7871 209.316 84.5801 209.02C84.373 208.723 84.0273 208.574 83.543 208.574C83.1289 208.574 82.7773 208.762 82.4883 209.137C82.2031 209.512 82.0605 209.965 82.0605 210.496V214H81.0176V210.355C81.0176 209.762 80.9023 209.316 80.6719 209.02C80.4453 208.723 80.1035 208.574 79.6465 208.574C79.2207 208.574 78.8691 208.752 78.5918 209.107C78.3184 209.463 78.1816 209.928 78.1816 210.502V214H77.1387V207.854H78.1816V208.826H78.2051C78.4238 208.455 78.6934 208.176 79.0137 207.988C79.334 207.801 79.7031 207.707 80.1211 207.707C80.543 207.707 80.9082 207.822 81.2168 208.053C81.5293 208.283 81.7461 208.59 81.8672 208.973C82.0938 208.551 82.377 208.234 82.7168 208.023C83.0605 207.812 83.457 207.707 83.9062 207.707C84.582 207.707 85.0898 207.916 85.4297 208.334C85.7695 208.748 85.9395 209.373 85.9395 210.209V214ZM51.2578 230H50.2148V222.881C50.0625 223.01 49.8066 223.16 49.4473 223.332C49.0879 223.5 48.7637 223.621 48.4746 223.695L48.1816 222.793C48.6387 222.672 49.1191 222.48 49.623 222.219C50.127 221.953 50.5254 221.684 50.8184 221.41H51.2578V230ZM58.916 230H57.873V226.455C57.873 225.826 57.7559 225.355 57.5215 225.043C57.2871 224.73 56.9375 224.574 56.4727 224.574C56 224.574 55.6035 224.756 55.2832 225.119C54.9629 225.479 54.8027 225.945 54.8027 226.52V230H53.7598V221.117H54.8027V224.867H54.8262C55.0605 224.48 55.3457 224.191 55.6816 224C56.0176 223.805 56.4023 223.707 56.8359 223.707C57.5312 223.707 58.0508 223.916 58.3945 224.334C58.7422 224.752 58.916 225.379 58.916 226.215V230Z" fill="black" fill-opacity="0.6063"/>
<path d="M113.426 211.064V214H112.031V205.598H114.639C115.607 205.598 116.346 205.824 116.854 206.277C117.365 206.727 117.621 207.381 117.621 208.24C117.621 209.076 117.334 209.756 116.76 210.279C116.186 210.803 115.412 211.064 114.439 211.064H113.426ZM113.426 206.74V209.928H114.334C114.932 209.928 115.385 209.789 115.693 209.512C116.002 209.23 116.156 208.826 116.156 208.299C116.156 207.779 116.01 207.391 115.717 207.133C115.424 206.871 114.986 206.74 114.404 206.74H113.426ZM122.232 209.148C122.158 209.125 122.084 209.109 122.01 209.102C121.939 209.09 121.859 209.084 121.77 209.084C121.285 209.084 120.912 209.264 120.65 209.623C120.389 209.982 120.258 210.451 120.258 211.029V214H118.893V208H120.258V209.148H120.281C120.422 208.738 120.629 208.428 120.902 208.217C121.176 208.002 121.498 207.895 121.869 207.895C121.979 207.895 122.076 207.9 122.162 207.912C122.248 207.924 122.332 207.943 122.414 207.971L122.232 209.148ZM128.426 211.357H124.324C124.348 211.924 124.512 212.355 124.816 212.652C125.121 212.945 125.545 213.092 126.088 213.092C126.314 213.092 126.568 213.045 126.85 212.951C127.135 212.857 127.412 212.709 127.682 212.506L128.32 213.338C127.957 213.615 127.582 213.818 127.195 213.947C126.812 214.076 126.387 214.141 125.918 214.141C124.988 214.141 124.262 213.873 123.738 213.338C123.219 212.799 122.957 212.047 122.953 211.082C122.953 210.121 123.223 209.344 123.762 208.75C124.301 208.156 124.988 207.859 125.824 207.859C126.633 207.859 127.268 208.113 127.729 208.621C128.193 209.125 128.426 209.84 128.426 210.766V211.357ZM127.107 210.408C127.107 209.896 126.994 209.512 126.768 209.254C126.545 208.992 126.229 208.861 125.818 208.861C125.428 208.861 125.096 209.002 124.822 209.283C124.553 209.561 124.387 209.936 124.324 210.408H127.107ZM129.146 213.49L129.756 212.541C129.99 212.713 130.238 212.85 130.5 212.951C130.762 213.053 131.047 213.104 131.355 213.104C131.691 213.104 131.951 213.043 132.135 212.922C132.322 212.797 132.416 212.611 132.416 212.365C132.416 212.17 132.338 212.008 132.182 211.879C132.025 211.746 131.762 211.637 131.391 211.551C130.641 211.375 130.113 211.143 129.809 210.854C129.508 210.564 129.357 210.184 129.357 209.711C129.357 209.168 129.566 208.725 129.984 208.381C130.406 208.033 130.957 207.859 131.637 207.859C131.984 207.859 132.314 207.906 132.627 208C132.939 208.09 133.238 208.234 133.523 208.434L132.961 209.354C132.707 209.189 132.473 209.072 132.258 209.002C132.043 208.928 131.822 208.891 131.596 208.891C131.275 208.891 131.027 208.951 130.852 209.072C130.676 209.189 130.588 209.354 130.588 209.564C130.588 209.787 130.678 209.953 130.857 210.062C131.037 210.168 131.342 210.271 131.771 210.373C132.42 210.525 132.895 210.75 133.195 211.047C133.5 211.34 133.652 211.734 133.652 212.23C133.652 212.812 133.439 213.277 133.014 213.625C132.592 213.969 132.023 214.141 131.309 214.141C130.906 214.141 130.525 214.086 130.166 213.977C129.807 213.867 129.467 213.705 129.146 213.49ZM139.992 211.357H135.891C135.914 211.924 136.078 212.355 136.383 212.652C136.688 212.945 137.111 213.092 137.654 213.092C137.881 213.092 138.135 213.045 138.416 212.951C138.701 212.857 138.979 212.709 139.248 212.506L139.887 213.338C139.523 213.615 139.148 213.818 138.762 213.947C138.379 214.076 137.953 214.141 137.484 214.141C136.555 214.141 135.828 213.873 135.305 213.338C134.785 212.799 134.523 212.047 134.52 211.082C134.52 210.121 134.789 209.344 135.328 208.75C135.867 208.156 136.555 207.859 137.391 207.859C138.199 207.859 138.834 208.113 139.295 208.621C139.76 209.125 139.992 209.84 139.992 210.766V211.357ZM138.674 210.408C138.674 209.896 138.561 209.512 138.334 209.254C138.111 208.992 137.795 208.861 137.385 208.861C136.994 208.861 136.662 209.002 136.389 209.283C136.119 209.561 135.953 209.936 135.891 210.408H138.674ZM146.631 214H145.271V210.613C145.271 210.059 145.17 209.643 144.967 209.365C144.768 209.084 144.465 208.943 144.059 208.943C143.652 208.943 143.314 209.098 143.045 209.406C142.779 209.715 142.646 210.105 142.646 210.578V214H141.281V208H142.646V208.961H142.67C142.893 208.594 143.166 208.318 143.49 208.135C143.818 207.951 144.195 207.859 144.621 207.859C145.277 207.859 145.775 208.068 146.115 208.486C146.459 208.904 146.631 209.52 146.631 210.332V214ZM151.564 213.9C151.389 213.979 151.203 214.037 151.008 214.076C150.816 214.115 150.607 214.135 150.381 214.135C149.826 214.135 149.398 213.988 149.098 213.695C148.801 213.398 148.652 212.959 148.652 212.377V209.066H147.645V208H148.652V206.541L150.012 206.143V208H151.453V209.066H150.012V212.266C150.012 212.559 150.064 212.77 150.17 212.898C150.279 213.023 150.447 213.086 150.674 213.086C150.779 213.086 150.881 213.074 150.979 213.051C151.08 213.023 151.172 212.988 151.254 212.945L151.564 213.9ZM157.207 214H155.889V213.109H155.865C155.662 213.453 155.41 213.711 155.109 213.883C154.809 214.055 154.463 214.141 154.072 214.141C153.529 214.141 153.078 213.98 152.719 213.66C152.359 213.336 152.18 212.896 152.18 212.342C152.18 211.811 152.359 211.375 152.719 211.035C153.078 210.691 153.611 210.469 154.318 210.367L155.895 210.156V210.027C155.895 209.621 155.789 209.326 155.578 209.143C155.371 208.959 155.088 208.867 154.729 208.867C154.439 208.867 154.148 208.92 153.855 209.025C153.566 209.131 153.287 209.293 153.018 209.512L152.402 208.715C152.758 208.426 153.133 208.211 153.527 208.07C153.922 207.93 154.357 207.859 154.834 207.859C155.635 207.859 156.23 208.059 156.621 208.457C157.012 208.852 157.207 209.443 157.207 210.232V214ZM155.895 211.562V211.064L154.605 211.234C154.227 211.285 153.943 211.387 153.756 211.539C153.572 211.688 153.48 211.906 153.48 212.195C153.48 212.484 153.568 212.711 153.744 212.875C153.924 213.039 154.154 213.121 154.436 213.121C154.877 213.121 155.23 212.975 155.496 212.682C155.762 212.385 155.895 212.012 155.895 211.562ZM162.17 213.9C161.994 213.979 161.809 214.037 161.613 214.076C161.422 214.115 161.213 214.135 160.986 214.135C160.432 214.135 160.004 213.988 159.703 213.695C159.406 213.398 159.258 212.959 159.258 212.377V209.066H158.25V208H159.258V206.541L160.617 206.143V208H162.059V209.066H160.617V212.266C160.617 212.559 160.67 212.77 160.775 212.898C160.885 213.023 161.053 213.086 161.279 213.086C161.385 213.086 161.486 213.074 161.584 213.051C161.686 213.023 161.777 212.988 161.859 212.945L162.17 213.9ZM163.922 206.846C163.672 206.846 163.465 206.766 163.301 206.605C163.137 206.441 163.055 206.242 163.055 206.008C163.055 205.77 163.137 205.572 163.301 205.416C163.465 205.256 163.672 205.176 163.922 205.176C164.176 205.176 164.385 205.256 164.549 205.416C164.713 205.572 164.795 205.77 164.795 206.008C164.795 206.25 164.713 206.451 164.549 206.611C164.385 206.768 164.176 206.846 163.922 206.846ZM164.596 214H163.23V208H164.596V214ZM169.031 214.141C168.094 214.141 167.35 213.861 166.799 213.303C166.248 212.74 165.973 211.988 165.973 211.047C165.977 210.055 166.262 209.275 166.828 208.709C167.398 208.143 168.172 207.859 169.148 207.859C170.09 207.855 170.824 208.133 171.352 208.691C171.883 209.25 172.148 210.002 172.148 210.947C172.148 211.92 171.867 212.695 171.305 213.273C170.746 213.852 169.988 214.141 169.031 214.141ZM169.096 213.057C169.639 213.057 170.051 212.879 170.332 212.523C170.617 212.164 170.76 211.65 170.76 210.982C170.76 210.322 170.617 209.818 170.332 209.471C170.047 209.119 169.633 208.943 169.09 208.943C168.555 208.943 168.133 209.129 167.824 209.5C167.516 209.867 167.361 210.373 167.361 211.018C167.361 211.67 167.514 212.174 167.818 212.529C168.127 212.881 168.553 213.057 169.096 213.057ZM178.881 214H177.521V210.613C177.521 210.059 177.42 209.643 177.217 209.365C177.018 209.084 176.715 208.943 176.309 208.943C175.902 208.943 175.564 209.098 175.295 209.406C175.029 209.715 174.896 210.105 174.896 210.578V214H173.531V208H174.896V208.961H174.92C175.143 208.594 175.416 208.318 175.74 208.135C176.068 207.951 176.445 207.859 176.871 207.859C177.527 207.859 178.025 208.068 178.365 208.486C178.709 208.904 178.881 209.52 178.881 210.332V214Z" fill="black" fill-opacity="0.8956"/>
<path d="M111.463 229.344L111.979 228.529C112.326 228.764 112.672 228.934 113.016 229.039C113.359 229.145 113.752 229.197 114.193 229.197C114.697 229.197 115.109 229.08 115.43 228.846C115.75 228.611 115.91 228.271 115.91 227.826C115.91 227.428 115.775 227.109 115.506 226.871C115.236 226.633 114.791 226.404 114.17 226.186C113.365 225.908 112.771 225.59 112.389 225.23C112.006 224.867 111.814 224.387 111.814 223.789C111.814 223.102 112.062 222.541 112.559 222.107C113.059 221.674 113.721 221.457 114.545 221.457C114.928 221.457 115.303 221.502 115.67 221.592C116.037 221.678 116.408 221.814 116.783 222.002L116.35 222.852C116.041 222.695 115.736 222.58 115.436 222.506C115.135 222.432 114.814 222.395 114.475 222.395C113.982 222.395 113.594 222.51 113.309 222.74C113.023 222.967 112.881 223.283 112.881 223.689C112.881 224.045 113.012 224.328 113.273 224.539C113.535 224.75 113.975 224.965 114.592 225.184C115.443 225.477 116.053 225.812 116.42 226.191C116.791 226.57 116.977 227.082 116.977 227.727C116.977 228.418 116.727 228.994 116.227 229.455C115.73 229.912 115.029 230.141 114.123 230.141C113.623 230.141 113.156 230.076 112.723 229.947C112.293 229.818 111.873 229.617 111.463 229.344ZM123.744 230H122.314L119.654 227.035H119.631V230H118.588V221.117H119.631V226.672H119.654L122.18 223.854H123.527L120.732 226.812L123.744 230ZM129.803 223.854L126.938 231.102C126.711 231.68 126.422 232.113 126.07 232.402C125.719 232.691 125.303 232.836 124.822 232.836C124.693 232.836 124.572 232.828 124.459 232.812C124.35 232.797 124.246 232.775 124.148 232.748L124.348 231.875C124.426 231.902 124.498 231.922 124.564 231.934C124.635 231.945 124.705 231.951 124.775 231.951C125.033 231.951 125.25 231.883 125.426 231.746C125.602 231.609 125.744 231.416 125.854 231.166L126.352 229.988L123.943 223.854H125.098L126.727 228.512C126.738 228.551 126.754 228.613 126.773 228.699C126.797 228.781 126.824 228.885 126.855 229.01H126.891C126.902 228.955 126.918 228.889 126.938 228.811C126.961 228.729 126.988 228.633 127.02 228.523L128.73 223.854H129.803ZM131.994 229.115H131.971V232.76H130.928V223.854H131.971V224.926H131.994C132.236 224.52 132.535 224.215 132.891 224.012C133.246 223.809 133.654 223.707 134.115 223.707C134.908 223.707 135.525 223.982 135.967 224.533C136.412 225.084 136.635 225.82 136.635 226.742C136.635 227.773 136.383 228.6 135.879 229.221C135.379 229.838 134.697 230.146 133.834 230.146C133.436 230.146 133.082 230.061 132.773 229.889C132.469 229.717 132.209 229.459 131.994 229.115ZM131.965 226.643V227.463C131.965 227.971 132.127 228.4 132.451 228.752C132.775 229.104 133.189 229.279 133.693 229.279C134.275 229.279 134.732 229.055 135.064 228.605C135.396 228.156 135.562 227.531 135.562 226.73C135.562 226.055 135.408 225.527 135.1 225.148C134.791 224.766 134.371 224.574 133.84 224.574C133.273 224.574 132.818 224.771 132.475 225.166C132.135 225.557 131.965 226.049 131.965 226.643ZM143.238 227.164H138.914C138.934 227.844 139.115 228.367 139.459 228.734C139.803 229.098 140.285 229.279 140.906 229.279C141.176 229.279 141.451 229.238 141.732 229.156C142.018 229.07 142.303 228.932 142.588 228.74L143.062 229.467C142.707 229.701 142.35 229.873 141.99 229.982C141.631 230.092 141.236 230.146 140.807 230.146C139.877 230.146 139.152 229.871 138.633 229.32C138.113 228.766 137.852 227.992 137.848 227C137.844 226.012 138.105 225.217 138.633 224.615C139.164 224.01 139.852 223.707 140.695 223.707C141.5 223.707 142.125 223.969 142.57 224.492C143.016 225.012 143.238 225.736 143.238 226.666V227.164ZM142.189 226.344C142.186 225.777 142.049 225.338 141.779 225.025C141.514 224.713 141.146 224.557 140.678 224.557C140.217 224.557 139.826 224.719 139.506 225.043C139.189 225.363 138.996 225.797 138.926 226.344H142.189ZM156.867 230H155.807V224.422C155.807 224.195 155.812 223.943 155.824 223.666C155.84 223.389 155.861 223.09 155.889 222.77H155.859C155.812 222.965 155.768 223.133 155.725 223.273C155.686 223.414 155.646 223.527 155.607 223.613L152.818 230H152.238L149.455 223.66C149.416 223.566 149.375 223.445 149.332 223.297C149.289 223.148 149.246 222.973 149.203 222.77H149.174C149.193 222.961 149.207 223.197 149.215 223.479C149.223 223.76 149.227 224.088 149.227 224.463V230H148.207V221.598H149.643L152.139 227.375C152.24 227.594 152.322 227.789 152.385 227.961C152.447 228.129 152.492 228.273 152.52 228.395H152.555C152.637 228.164 152.711 227.963 152.777 227.791C152.844 227.615 152.902 227.469 152.953 227.352L155.496 221.598H156.867V230ZM164.016 227.164H159.691C159.711 227.844 159.893 228.367 160.236 228.734C160.58 229.098 161.062 229.279 161.684 229.279C161.953 229.279 162.229 229.238 162.51 229.156C162.795 229.07 163.08 228.932 163.365 228.74L163.84 229.467C163.484 229.701 163.127 229.873 162.768 229.982C162.408 230.092 162.014 230.146 161.584 230.146C160.654 230.146 159.93 229.871 159.41 229.32C158.891 228.766 158.629 227.992 158.625 227C158.621 226.012 158.883 225.217 159.41 224.615C159.941 224.01 160.629 223.707 161.473 223.707C162.277 223.707 162.902 223.969 163.348 224.492C163.793 225.012 164.016 225.736 164.016 226.666V227.164ZM162.967 226.344C162.963 225.777 162.826 225.338 162.557 225.025C162.291 224.713 161.924 224.557 161.455 224.557C160.994 224.557 160.604 224.719 160.283 225.043C159.967 225.363 159.773 225.797 159.703 226.344H162.967ZM170.543 227.164H166.219C166.238 227.844 166.42 228.367 166.764 228.734C167.107 229.098 167.59 229.279 168.211 229.279C168.48 229.279 168.756 229.238 169.037 229.156C169.322 229.07 169.607 228.932 169.893 228.74L170.367 229.467C170.012 229.701 169.654 229.873 169.295 229.982C168.936 230.092 168.541 230.146 168.111 230.146C167.182 230.146 166.457 229.871 165.938 229.32C165.418 228.766 165.156 227.992 165.152 227C165.148 226.012 165.41 225.217 165.938 224.615C166.469 224.01 167.156 223.707 168 223.707C168.805 223.707 169.43 223.969 169.875 224.492C170.32 225.012 170.543 225.736 170.543 226.666V227.164ZM169.494 226.344C169.49 225.777 169.354 225.338 169.084 225.025C168.818 224.713 168.451 224.557 167.982 224.557C167.521 224.557 167.131 224.719 166.811 225.043C166.494 225.363 166.301 225.797 166.23 226.344H169.494ZM175.096 229.924C174.928 229.994 174.76 230.045 174.592 230.076C174.428 230.111 174.242 230.129 174.035 230.129C173.531 230.129 173.137 229.984 172.852 229.695C172.57 229.406 172.43 228.979 172.43 228.412V224.721H171.381V223.854H172.43V222.447L173.479 222.113V223.854H175.014V224.721H173.479V228.301C173.479 228.648 173.541 228.898 173.666 229.051C173.791 229.203 173.979 229.279 174.229 229.279C174.346 229.279 174.459 229.266 174.568 229.238C174.678 229.211 174.771 229.178 174.85 229.139L175.096 229.924ZM176.941 222.553C176.734 222.553 176.562 222.484 176.426 222.348C176.289 222.211 176.221 222.045 176.221 221.85C176.221 221.646 176.289 221.479 176.426 221.346C176.562 221.209 176.734 221.141 176.941 221.141C177.148 221.141 177.32 221.209 177.457 221.346C177.598 221.479 177.668 221.646 177.668 221.85C177.668 222.045 177.598 222.211 177.457 222.348C177.32 222.484 177.148 222.553 176.941 222.553ZM177.451 230H176.408V223.854H177.451V230ZM184.705 230H183.662V226.496C183.662 225.855 183.545 225.375 183.311 225.055C183.076 224.734 182.727 224.574 182.262 224.574C181.777 224.574 181.377 224.756 181.061 225.119C180.748 225.479 180.592 225.936 180.592 226.49V230H179.549V223.854H180.592V224.873H180.615C180.846 224.482 181.129 224.191 181.465 224C181.801 223.805 182.189 223.707 182.631 223.707C183.303 223.707 183.816 223.924 184.172 224.357C184.527 224.791 184.705 225.418 184.705 226.238V230ZM191.912 229.555C191.912 230.637 191.633 231.451 191.074 231.998C190.52 232.549 189.746 232.824 188.754 232.824C188.328 232.824 187.934 232.781 187.57 232.695C187.207 232.613 186.84 232.484 186.469 232.309L186.844 231.518C187.164 231.67 187.475 231.779 187.775 231.846C188.076 231.916 188.4 231.951 188.748 231.951C189.412 231.951 189.932 231.762 190.307 231.383C190.682 231.004 190.869 230.439 190.869 229.689V228.975H190.846C190.615 229.365 190.324 229.658 189.973 229.854C189.621 230.049 189.213 230.146 188.748 230.146C187.982 230.146 187.365 229.873 186.896 229.326C186.432 228.775 186.199 228.039 186.199 227.117C186.199 226.105 186.455 225.285 186.967 224.656C187.482 224.023 188.164 223.707 189.012 223.707C189.426 223.707 189.785 223.789 190.09 223.953C190.395 224.117 190.646 224.365 190.846 224.697H190.869V223.854H191.912V229.555ZM190.869 227.217V226.332C190.869 225.848 190.707 225.434 190.383 225.09C190.062 224.746 189.66 224.574 189.176 224.574C188.582 224.574 188.115 224.781 187.775 225.195C187.436 225.609 187.266 226.229 187.266 227.053C187.266 227.764 187.424 228.312 187.74 228.699C188.057 229.086 188.49 229.279 189.041 229.279C189.584 229.279 190.023 229.086 190.359 228.699C190.699 228.312 190.869 227.818 190.869 227.217Z" fill="black" fill-opacity="0.6063"/>
<rect x="30" y="199" width="6" height="36" rx="3" fill="#3174C5"/>
<defs>
<linearGradient id="paint0_linear_2361_5489" x1="1" y1="1" x2="294" y2="309" gradientUnits="userSpaceOnUse">
<stop stop-color="#FBFEFF"/>
<stop offset="1" stop-color="#E9F8FF"/>
</linearGradient>
</defs>
</svg>
