<svg width="14" height="14" viewBox="0 0 14 14" fill="none" xmlns="http://www.w3.org/2000/svg">
<path d="M13.5 0C13.6354 0 13.7526 0.0494792 13.8516 0.148438C13.9505 0.247396 14 0.364583 14 0.5V6.5C14 6.63542 13.9505 6.7526 13.8516 6.85156C13.7526 6.95052 13.6354 7 13.5 7C13.3646 7 13.2474 6.95052 13.1484 6.85156C13.0495 6.7526 13 6.63542 13 6.5V1.70312L1.70312 13H6.5C6.63542 13 6.7526 13.0495 6.85156 13.1484C6.95052 13.2474 7 13.3646 7 13.5C7 13.6354 6.95052 13.7526 6.85156 13.8516C6.7526 13.9505 6.63542 14 6.5 14H0.492188C0.356771 14 0.239583 13.9505 0.140625 13.8516C0.046875 13.7526 0 13.6354 0 13.5V7.5C0 7.36458 0.0494792 7.2474 0.148438 7.14844C0.247396 7.04948 0.364583 7 0.5 7C0.635417 7 0.752604 7.04948 0.851562 7.14844C0.950521 7.2474 1 7.36458 1 7.5V12.2969L12.2969 1H7.5C7.36458 1 7.2474 0.950521 7.14844 0.851562C7.04948 0.752604 7 0.635417 7 0.5C7 0.364583 7.04948 0.247396 7.14844 0.148438C7.2474 0.0494792 7.36458 0 7.5 0H13.5Z" fill="black" fill-opacity="0.6063"/>
</svg>
