<svg width="13" height="13" viewBox="0 0 13 13" fill="none" xmlns="http://www.w3.org/2000/svg">
<path d="M13 6.5C13 6.63542 12.9505 6.7526 12.8516 6.85156C12.7526 6.95052 12.6354 7 12.5 7H7V12.5C7 12.6354 6.95052 12.7526 6.85156 12.8516C6.7526 12.9505 6.63542 13 6.5 13C6.36458 13 6.2474 12.9505 6.14844 12.8516C6.04948 12.7526 6 12.6354 6 12.5V7H0.5C0.364583 7 0.247396 6.95052 0.148438 6.85156C0.0494792 6.7526 0 6.63542 0 6.5C0 6.36458 0.0494792 6.2474 0.148438 6.14844C0.247396 6.04948 0.364583 6 0.5 6H6V0.5C6 0.364583 6.04948 0.247396 6.14844 0.148438C6.2474 0.0494792 6.36458 0 6.5 0C6.63542 0 6.7526 0.0494792 6.85156 0.148438C6.95052 0.247396 7 0.364583 7 0.5V6H12.5C12.6354 6 12.7526 6.04948 12.8516 6.14844C12.9505 6.2474 13 6.36458 13 6.5Z" fill="black" fill-opacity="0.6063"/>
</svg>
