<svg width="16" height="16" viewBox="0 0 16 16" fill="none" xmlns="http://www.w3.org/2000/svg">
<path d="M16 8C16 8.73958 15.9036 9.45052 15.7109 10.1328C15.5234 10.8151 15.2552 11.4531 14.9062 12.0469C14.5625 12.6354 14.1458 13.1745 13.6562 13.6641C13.1719 14.1484 12.6328 14.5651 12.0391 14.9141C11.4505 15.2578 10.8151 15.526 10.1328 15.7188C9.45052 15.9062 8.73958 16 8 16C7.26042 16 6.54948 15.9062 5.86719 15.7188C5.1849 15.526 4.54688 15.2578 3.95312 14.9141C3.35938 14.5651 2.82031 14.1484 2.33594 13.6641C1.85156 13.1797 1.4349 12.6406 1.08594 12.0469C0.742188 11.4531 0.473958 10.8151 0.28125 10.1328C0.09375 9.45052 0 8.73958 0 8C0 7.26042 0.09375 6.54948 0.28125 5.86719C0.473958 5.1849 0.742188 4.54948 1.08594 3.96094C1.4349 3.36719 1.85156 2.82812 2.33594 2.34375C2.82552 1.85417 3.36458 1.4375 3.95312 1.09375C4.54688 0.744792 5.1849 0.476562 5.86719 0.289062C6.54948 0.0963542 7.26042 0 8 0C8.57812 0 9.14323 0.0625 9.69531 0.1875C10.2474 0.307292 10.7786 0.481771 11.2891 0.710938C11.7995 0.940104 12.2812 1.22396 12.7344 1.5625C13.1927 1.90104 13.6146 2.28385 14 2.71094V0.5C14 0.364583 14.0495 0.247396 14.1484 0.148438C14.2474 0.0494792 14.3646 0 14.5 0C14.6354 0 14.7526 0.0494792 14.8516 0.148438C14.9505 0.247396 15 0.364583 15 0.5C15 1.13021 15 1.75781 15 2.38281C15.0052 3.00781 15.0078 3.63542 15.0078 4.26562C15.0078 4.35417 15.0026 4.44271 14.9922 4.53125C14.9818 4.61458 14.9583 4.69271 14.9219 4.76562C14.8854 4.83333 14.8333 4.89062 14.7656 4.9375C14.6979 4.97917 14.6094 5 14.5 5H10.5C10.3646 5 10.2474 4.95052 10.1484 4.85156C10.0495 4.7526 10 4.63542 10 4.5C10 4.36458 10.0495 4.2474 10.1484 4.14844C10.2474 4.04948 10.3646 4 10.5 4H13.7422C13.4141 3.53125 13.0365 3.11198 12.6094 2.74219C12.1875 2.3724 11.7292 2.0599 11.2344 1.80469C10.7396 1.54427 10.2188 1.34635 9.67188 1.21094C9.125 1.07031 8.56771 1 8 1C7.35417 1 6.73177 1.08333 6.13281 1.25C5.53906 1.41667 4.98177 1.65365 4.46094 1.96094C3.94531 2.26302 3.47396 2.6276 3.04688 3.05469C2.625 3.47656 2.26042 3.94792 1.95312 4.46875C1.65104 4.98438 1.41667 5.54167 1.25 6.14062C1.08333 6.73438 1 7.35417 1 8C1 8.64583 1.08333 9.26823 1.25 9.86719C1.41667 10.4609 1.65104 11.0182 1.95312 11.5391C2.25521 12.0547 2.61979 12.526 3.04688 12.9531C3.47396 13.3802 3.94531 13.7448 4.46094 14.0469C4.98177 14.349 5.53906 14.5833 6.13281 14.75C6.73177 14.9167 7.35417 15 8 15C8.63021 15 9.23958 14.9219 9.82812 14.7656C10.4219 14.6042 10.9766 14.375 11.4922 14.0781C12.013 13.776 12.4896 13.4089 12.9219 12.9766C13.3594 12.5443 13.737 12.0573 14.0547 11.5156C14.3776 10.9635 14.6146 10.3984 14.7656 9.82031C14.9219 9.24219 15 8.63542 15 8C15 7.86458 15.0495 7.7474 15.1484 7.64844C15.2474 7.54948 15.3646 7.5 15.5 7.5C15.6354 7.5 15.7526 7.54948 15.8516 7.64844C15.9505 7.7474 16 7.86458 16 8Z" fill="black" fill-opacity="0.6063"/>
</svg>
