<svg width="15" height="15" viewBox="0 0 15 15" fill="none" xmlns="http://www.w3.org/2000/svg">
<g id="Icon">
<ellipse id="Ellipse 3" cx="4.29228" cy="4.28885" rx="4.29228" ry="4.28885" transform="matrix(-1 0 0 1 11.0259 2.33829)" fill="url(#paint0_radial_1735_3099)" fill-opacity="0.25"/>
<path id="Union" fill-rule="evenodd" clip-rule="evenodd" d="M0.60169 6.62693C0.60169 10.0107 3.347 12.7539 6.73352 12.7539C8.0915 12.7539 9.34638 12.3128 10.3625 11.5661L13.4296 14.6308C13.7888 14.9897 14.3712 14.9897 14.7304 14.6308C15.0896 14.2719 15.0896 13.69 14.7304 13.3311L11.6653 10.2685C12.4194 9.25045 12.8653 7.99072 12.8653 6.62693C12.8653 3.24312 10.12 0.5 6.73352 0.5C3.347 0.5 0.60169 3.24312 0.60169 6.62693ZM2.44122 6.62713C2.44122 8.9958 4.36294 10.916 6.7335 10.916C9.10406 10.916 11.0258 8.9958 11.0258 6.62713C11.0258 4.25846 9.10406 2.33828 6.7335 2.33828C4.36294 2.33828 2.44122 4.25846 2.44122 6.62713Z" fill="url(#paint1_linear_1735_3099)"/>
</g>
<defs>
<radialGradient id="paint0_radial_1735_3099" cx="0" cy="0" r="1" gradientUnits="userSpaceOnUse" gradientTransform="translate(4.29228 4.28885) rotate(90) scale(4.28885 4.29228)">
<stop stop-color="white"/>
<stop offset="1" stop-color="white" stop-opacity="0.75"/>
</radialGradient>
<linearGradient id="paint1_linear_1735_3099" x1="0.599757" y1="0.499999" x2="14.9882" y2="15.2159" gradientUnits="userSpaceOnUse">
<stop stop-color="#41403F"/>
<stop offset="1" stop-color="#1F1F1F"/>
</linearGradient>
</defs>
</svg>
